<svg xmlns="http://www.w3.org/2000/svg" xmlns:xlink="http://www.w3.org/1999/xlink" viewBox="0 0 757.43 531.37"><defs><style>.cls-1{opacity:0.16;}.cls-2{fill:url(#linear-gradient);}.cls-3{fill:url(#linear-gradient-2);}.cls-4{fill:url(#linear-gradient-3);}.cls-5{fill:url(#linear-gradient-4);}.cls-6{fill:url(#linear-gradient-5);}.cls-7{opacity:0.17;}.cls-8{fill:url(#linear-gradient-6);}.cls-9{fill:url(#linear-gradient-7);}.cls-10{fill:url(#linear-gradient-8);}.cls-11{fill:url(#linear-gradient-9);}.cls-12{fill:url(#linear-gradient-10);}.cls-13{opacity:0.18;}.cls-14{fill:url(#linear-gradient-11);}.cls-15{fill:url(#linear-gradient-12);}.cls-16{fill:url(#linear-gradient-13);}.cls-17{fill:url(#linear-gradient-14);}.cls-18{fill:url(#linear-gradient-15);}</style><linearGradient id="linear-gradient" x1="640.81" y1="-449.68" x2="382.28" y2="-586.32" gradientTransform="translate(382.21 960.27) rotate(-63.68)" gradientUnits="userSpaceOnUse"><stop offset="0" stop-color="#164c45"/><stop offset="1" stop-color="#1f6b61"/></linearGradient><linearGradient id="linear-gradient-2" x1="613.15" y1="-406.61" x2="372.22" y2="-533.95" gradientTransform="translate(382.21 960.27) rotate(-63.68)" gradientUnits="userSpaceOnUse"><stop offset="0" stop-color="#32c2b1"/><stop offset="0.28" stop-color="#30bead"/><stop offset="0.55" stop-color="#2ab3a2"/><stop offset="0.77" stop-color="#21a392"/></linearGradient><linearGradient id="linear-gradient-3" x1="478.5" y1="-403.36" x2="383.6" y2="-453.52" gradientTransform="translate(382.21 960.27) rotate(-63.68)" gradientUnits="userSpaceOnUse"><stop offset="0" stop-color="#bda523"/><stop offset="0.31" stop-color="#c1a824"/><stop offset="0.61" stop-color="#ccb225"/><stop offset="0.77" stop-color="#d6bb27"/></linearGradient><linearGradient id="linear-gradient-4" x1="399.85" y1="-655.39" x2="658.27" y2="-483.88" gradientTransform="translate(382.21 960.27) rotate(-63.68)" gradientUnits="userSpaceOnUse"><stop offset="0" stop-color="#cc8d1a"/><stop offset="1" stop-color="#ffaf21"/></linearGradient><linearGradient id="linear-gradient-5" x1="613.99" y1="-618.81" x2="656.65" y2="-550.34" gradientTransform="translate(382.21 960.27) rotate(-63.68)" gradientUnits="userSpaceOnUse"><stop offset="0" stop-color="#ffde2b"/><stop offset="1" stop-color="#f7d628"/></linearGradient><linearGradient id="linear-gradient-6" x1="753.23" y1="9.64" x2="491.23" y2="-128.84" xlink:href="#linear-gradient"/><linearGradient id="linear-gradient-7" x1="718.56" y1="52.47" x2="478.93" y2="-74.19" xlink:href="#linear-gradient-2"/><linearGradient id="linear-gradient-8" x1="569.24" y1="66.09" x2="489.24" y2="23.81" xlink:href="#linear-gradient-3"/><linearGradient id="linear-gradient-9" x1="509.23" y1="-199.45" x2="768.17" y2="-27.58" xlink:href="#linear-gradient-4"/><linearGradient id="linear-gradient-10" x1="714.46" y1="-157.53" x2="760.85" y2="-83.06" xlink:href="#linear-gradient-5"/><linearGradient id="linear-gradient-11" x1="550.74" y1="254.16" x2="212.7" y2="75.49" gradientTransform="translate(118.95 -82.18) rotate(27.27)" xlink:href="#linear-gradient"/><linearGradient id="linear-gradient-12" x1="495.27" y1="329.2" x2="179.08" y2="162.07" gradientTransform="translate(118.95 -82.18) rotate(27.27)" xlink:href="#linear-gradient-2"/><linearGradient id="linear-gradient-13" x1="288.61" y1="322.74" x2="169.35" y2="259.7" gradientTransform="translate(118.95 -82.18) rotate(27.27)" xlink:href="#linear-gradient-3"/><linearGradient id="linear-gradient-14" x1="256.07" y1="-48.12" x2="587.82" y2="172.08" gradientTransform="translate(118.95 -82.18) rotate(27.27)" xlink:href="#linear-gradient-4"/><linearGradient id="linear-gradient-15" x1="515.75" y1="-3.38" x2="584.63" y2="107.2" gradientTransform="translate(118.95 -82.18) rotate(27.27)" xlink:href="#linear-gradient-5"/></defs><g id="Layer_2" data-name="Layer 2"><g id="Layer_1-2" data-name="Layer 1"><g class="cls-1"><path d="M306.59,235.25q-5.05,8.67-10.15,17.47-31.21,53.93-63.5,112.85-21.3,39-42.85,80.18-24.93-14.13-49.93-25.32A519.67,519.67,0,0,0,61,392.17q-18.21-4.83-36.11-8-9.3-1.68-18.49-2.91,39-96.37,79.86-184.82,18.24-39.72,36.65-77.83a592.91,592.91,0,0,1,82,41.39q26.15,15.79,51.9,34.83Q282,213.47,306.59,235.25Z" transform="translate(0 -22.45)"/></g><path class="cls-2" d="M250.42,173q25.22,18.66,49.77,40.47-5.07,8.67-10.16,17.46c-68.37-29.88-93.87-15.4-101.88-2.69-16.29,27.15,25.13,78.22,7.16,94.44-15.68,13.95-53-19.21-92.3-3.22-21.45,8.64-37,28.73-48.41,50.92q-18.21-4.83-36.11-8c22.68-13.33,45.36-29.2,60.42-51.91,26.3-39.09,7.17-70.87,35.64-102.24,32.24-34.92,75.61-8.69,120.36-26.76A77.41,77.41,0,0,0,250.42,173Z" transform="translate(0 -22.45)"/><path class="cls-3" d="M290,230.94q-31.2,53.93-63.49,112.84a17.79,17.79,0,0,0-6.66.91c-14,5-10.09,24.56-26.28,32.27-16.27,7.94-31-5.59-44.93.81-5.67,2.6-11.22,8.51-14.92,20.87A520.57,520.57,0,0,0,54.6,370.39c11.4-22.19,27-42.28,48.41-50.92,39.31-16,76.62,17.17,92.3,3.22,18-16.22-23.44-67.29-7.16-94.44C196.16,215.54,221.66,201.06,290,230.94Z" transform="translate(0 -22.45)"/><path class="cls-4" d="M226.54,343.78q-21.31,39-42.86,80.19-24.92-14.13-49.93-25.33c3.7-12.36,9.25-18.27,14.92-20.87,14-6.4,28.66,7.13,44.93-.81,16.19-7.71,12.26-27.26,26.28-32.27A17.79,17.79,0,0,1,226.54,343.78Z" transform="translate(0 -22.45)"/><path class="cls-5" d="M198.51,138.18Q224.66,154,250.42,173a77.41,77.41,0,0,1-15.51,8.43c-44.75,18.07-88.12-8.16-120.36,26.76-28.47,31.37-9.34,63.15-35.64,102.24C63.85,333.15,41.17,349,18.49,362.35q-9.3-1.68-18.49-2.9,39-96.39,79.85-184.83l.59-.09c15.77-2.56,21-22.08,39.83-24.9,19-2.48,26.14,15.58,41.52,16.39C171.08,166.6,183.37,161.14,198.51,138.18Z" transform="translate(0 -22.45)"/><path class="cls-6" d="M116.51,96.79a592.26,592.26,0,0,1,82,41.39c-15.14,23-27.43,28.42-36.72,27.84-15.38-.81-22.57-18.87-41.52-16.39-18.86,2.82-24.06,22.34-39.83,24.9l-.59.09Q98.1,134.92,116.51,96.79Z" transform="translate(0 -22.45)"/><g class="cls-7"><path d="M757.43,314.78q-8,10.75-15.16,21.65c-29.33,44.48-48.71,90.34-58.14,134.13-6.25,29-8.14,57.07-5.67,83.26q-31.63-11.13-62.21-22.7-48.84-18.43-95-37.79-21.5-9-42.41-18.12-10.87-4.75-21.6-9.53C470.05,410.33,498.65,351.92,543,297.3a539.84,539.84,0,0,1,69.32-70.66q28.77,18.29,60.38,37.71,20.24,12.4,41.63,25.16Q735.34,302,757.43,314.78Z" transform="translate(0 -22.45)"/></g><path class="cls-8" d="M706.37,273.76q21,12.51,43.07,25.27-8,10.75-15.15,21.65c-68.21-7.93-95.21,4.83-105,20-20.62,29.87,24.61,78.94,11.85,97.28-12.09,16.17-55.29-15.16-91.65-3.51-19.94,6.36-31.78,23.68-36.17,43.16q-21.5-9-42.41-18.12c21.57-5.92,40.82-17,52.42-37.83,20.29-36.4,3-72.35,36.49-101.48,38.93-32.82,75.08-6.73,127.16-34.46A164.52,164.52,0,0,0,706.37,273.76Z" transform="translate(0 -22.45)"/><path class="cls-9" d="M734.29,320.68C705,365.17,685.58,411,676.14,454.82a15.71,15.71,0,0,0-6,2.1c-12.07,7.29-1.73,26.36-13.59,35.67-12.06,9.39-31.91-3.24-43,3-4.45,2.5-7.61,8.17-5.26,19.81q-48.82-18.45-95-37.8c4.39-19.48,16.24-36.8,36.17-43.16,36.36-11.65,79.56,19.68,91.65,3.51,12.76-18.34-32.47-67.41-11.85-97.28C639.08,325.51,666.08,312.75,734.29,320.68Z" transform="translate(0 -22.45)"/><path class="cls-10" d="M676.14,454.82c-6.24,29-8.13,57.06-5.66,83.25q-31.63-11.13-62.22-22.69c-2.35-11.64.81-17.31,5.26-19.81,11.08-6.21,30.93,6.41,43-3,11.86-9.31,1.51-28.38,13.59-35.67A15.71,15.71,0,0,1,676.14,454.82Z" transform="translate(0 -22.45)"/><path class="cls-11" d="M664.74,248.61Q685,261,706.37,273.76a164.52,164.52,0,0,1-19.44,11.93c-52.08,27.73-88.23,1.64-127.16,34.46-33.51,29.13-16.2,65.08-36.49,101.48-11.6,20.86-30.85,31.91-52.42,37.83q-10.87-4.74-21.6-9.53c12.81-55.34,41.4-113.76,85.78-168.38h.58c15.5-.16,27.28-18.85,46.59-20.08,19-1.34,19.47,16.57,34.61,17.15C626.1,279,639.27,272.67,664.74,248.61Z" transform="translate(0 -22.45)"/><path class="cls-12" d="M604.36,210.89q28.77,18.29,60.38,37.72c-25.47,24.06-38.64,30.42-47.92,30-15.14-.58-15.58-18.49-34.61-17.15-19.31,1.23-31.09,19.92-46.59,20.08H535A541.08,541.08,0,0,1,604.36,210.89Z" transform="translate(0 -22.45)"/><g class="cls-13"><path d="M668.61,196.19c-46.23,49.82-92,97.13-132.19,142.23-25.75,28.86-49.25,56.82-69.37,83.95-19.73,26.61-36.21,52.43-48.51,77.52Q406,488.6,393.7,477.65c-50.4-44.74-99.39-85.23-151.48-120.82A931.67,931.67,0,0,0,134,292.78c15.87-19.53,33.08-39.63,50.82-60.38,28.32-33.13,58.06-67.91,85.38-104.61,12.71-17.09,24.89-34.6,36.07-52.55q8.73-14,16.58-28.38c100.67,20.68,186,51.41,257.34,90.92A660.93,660.93,0,0,1,668.61,196.19Z" transform="translate(0 -22.45)"/></g><path class="cls-14" d="M458.89,398c-19.73,26.61-36.21,52.43-48.51,77.52q-12.51-11.28-24.84-22.24c12-54.49,25-92.62,28.76-118.35,4.46-25.81-.24-39.22-7.77-46.24-32.68-26.06-121.29,30.42-137.52,2.53-17.18-22.35,47.53-72.86,48.31-127.78-.51-29.38-23.82-48.59-55.27-60,12.71-17.09,24.88-34.6,36.07-52.55,9.66,29.72,22.16,58.56,49.67,77.45,45.93,34.2,111.9,2.3,139,45.2,27.14,51.58-47.13,120-35,196.57A120.89,120.89,0,0,0,458.89,398Z" transform="translate(0 -22.45)"/><path class="cls-15" d="M385.54,453.24C335.14,408.5,286.15,368,234.06,332.42a27.57,27.57,0,0,0-.65-9.42c-5.06-20-33-16.88-41.38-38.76-8.66-21.58,15.67-39.73,11.27-57.79-1.89-7.23-8.77-14.22-26.63-18.46,28.32-33.13,58.06-67.91,85.38-104.61,31.45,11.43,54.76,30.64,55.27,60-.78,54.92-65.49,105.43-48.31,127.78,16.23,27.89,104.84-28.59,137.52-2.53,7.53,7,12.23,20.43,7.77,46.24C410.52,360.62,397.57,398.75,385.54,453.24Z" transform="translate(0 -22.45)"/><path class="cls-16" d="M234.06,332.42a931,931,0,0,0-108.22-64.05c15.88-19.53,33.08-39.63,50.83-60.38,17.86,4.24,24.74,11.23,26.63,18.46,4.4,18.06-19.93,36.21-11.27,57.79,8.39,21.88,36.32,18.8,41.38,38.76A27.57,27.57,0,0,1,234.06,332.42Z" transform="translate(0 -22.45)"/><path class="cls-17" d="M528.26,314C502.51,342.87,479,370.83,458.89,398a120.89,120.89,0,0,1-7.17-27.91c-12.09-76.52,62.18-145,35-196.57-27.07-42.9-93-11-139-45.2-27.51-18.89-40-47.73-49.67-77.45q8.73-14,16.58-28.38c100.67,20.68,186,51.41,257.34,90.92-.14.33-.28.67-.41,1-10.6,26.43,15.72,33.76,2.26,66-13.77,32.38-47.31,44.33-60.15,69.67C505.79,265.54,505.48,285.68,528.26,314Z" transform="translate(0 -22.45)"/><path class="cls-18" d="M660.45,171.78c-46.23,49.82-92,97.13-132.19,142.23-22.78-28.33-22.47-48.47-14.52-63.94,12.84-25.34,46.38-37.29,60.15-69.67,13.46-32.27-12.86-39.6-2.26-66,.13-.33.27-.67.41-1A661.57,661.57,0,0,1,660.45,171.78Z" transform="translate(0 -22.45)"/></g></g></svg>