<svg xmlns="http://www.w3.org/2000/svg" viewBox="0 0 428.72 275.47"><defs><style>.cls-1{font-size:12px;font-family:Roboto-Regular, Roboto;}.cls-2{letter-spacing:-0.01em;}.cls-3{opacity:0.13;}.cls-4{fill:#424241;}.cls-5{fill:#f6f6f6;}.cls-6{fill:#ededed;}.cls-10,.cls-7,.cls-8,.cls-9{fill:none;stroke:#c6c6c6;stroke-miterlimit:10;}.cls-8{stroke-width:1.07px;}.cls-9{stroke-width:0.92px;}.cls-10{stroke-width:1.04px;}.cls-11{fill:#304ddb;}.cls-12{fill:#4262ff;}.cls-13{fill:#f9bc50;}.cls-14{fill:#3c3c3b;}.cls-15{fill:#dadada;}.cls-16{fill:#2fac66;}.cls-17{fill:#299c5c;}.cls-18{fill:#00ccbf;}.cls-19{fill:#00aba0;}.cls-20{fill:#f54f18;}.cls-21{fill:#c94114;}</style></defs><g id="Layer_1" data-name="Layer 1"><text class="cls-1" transform="translate(78.02 208.01)">Lo<tspan class="cls-2" x="13.3" y="0">r</tspan><tspan x="17.25" y="0">em ipsum</tspan></text></g><g id="Layer_2" data-name="Layer 2"><g id="Layer_1-2" data-name="Layer 1"><rect class="cls-3" x="37.98" y="41.9" width="335.69" height="195.36" rx="8.5" transform="translate(-29.11 58.03) rotate(-15)"/><rect class="cls-4" x="30.31" y="38.2" width="335.69" height="195.36" rx="8.5" transform="translate(-28.42 55.92) rotate(-15)"/><path class="cls-5" d="M173.63,47.15,221.28,225,78.77,263.18A10.39,10.39,0,0,1,66,255.89L23.7,98a10.39,10.39,0,0,1,7.42-12.7Z"/><rect class="cls-6" x="167.66" y="47.94" width="30.33" height="184.01" transform="translate(-29.99 52.09) rotate(-15)"/><line class="cls-7" x1="40.67" y1="104.28" x2="131.86" y2="79.85"/><line class="cls-8" x1="48.04" y1="131.81" x2="152.09" y2="103.93"/><line class="cls-9" x1="55.42" y1="159.33" x2="132.08" y2="138.79"/><line class="cls-7" x1="62.79" y1="186.85" x2="153.99" y2="162.42"/><line class="cls-10" x1="70.17" y1="214.38" x2="168.74" y2="187.97"/><line class="cls-10" x1="77.54" y1="241.9" x2="176.11" y2="215.49"/><path class="cls-5" d="M222.69,224.62,175,46.78,317.55,8.59a10.39,10.39,0,0,1,12.78,7.29l42.29,157.85a10.41,10.41,0,0,1-7.42,12.71Z"/><rect class="cls-6" x="198.33" y="39.83" width="30.33" height="184.01" transform="translate(453.84 203.91) rotate(165)"/><line class="cls-7" x1="342.8" y1="170.93" x2="251.6" y2="195.37"/><line class="cls-8" x1="348.27" y1="139.96" x2="244.23" y2="167.84"/><line class="cls-9" x1="313.52" y1="119.78" x2="236.85" y2="140.32"/><line class="cls-7" x1="320.67" y1="88.36" x2="229.48" y2="112.8"/><line class="cls-10" x1="320.67" y1="58.86" x2="222.1" y2="85.27"/><line class="cls-10" x1="313.3" y1="31.34" x2="214.73" y2="57.75"/><rect class="cls-11" x="74.87" y="221.27" width="177.65" height="9.37" transform="translate(40.69 -24.49) rotate(9.77)"/><path class="cls-12" d="M64.3,204.7h9a0,0,0,0,1,0,0v9.37a0,0,0,0,1,0,0h-9a2.64,2.64,0,0,1-2.64-2.64v-4.08a2.64,2.64,0,0,1,2.64-2.64Z" transform="translate(36.49 -8.41) rotate(9.77)"/><polygon class="cls-13" points="250.44 245.63 260.42 242.59 252.03 236.4 250.44 245.63"/><polygon class="cls-14" points="257.14 243.59 260.42 242.59 257.66 240.56 257.14 243.59"/><rect class="cls-15" x="73.15" y="205.94" width="3.04" height="9.37" transform="matrix(0.99, 0.17, -0.17, 0.99, 36.81, -9.61)"/><rect class="cls-16" x="-8.32" y="80.3" width="170.63" height="9" transform="translate(188.8 109.62) rotate(144.76)"/><path class="cls-17" d="M150.57,26.17h8.6a0,0,0,0,1,0,0v9a0,0,0,0,1,0,0h-8.6A2.54,2.54,0,0,1,148,32.63V28.71a2.54,2.54,0,0,1,2.54-2.54Z" transform="translate(296.76 -32.91) rotate(144.76)"/><polygon class="cls-13" points="4.72 130.35 0 139.19 9.91 137.7 4.72 130.35"/><polygon class="cls-14" points="1.55 136.28 0 139.19 3.26 138.7 1.55 136.28"/><rect class="cls-15" x="146.41" y="30.23" width="2.92" height="9" transform="translate(288.67 -22.23) rotate(144.76)"/><polygon class="cls-18" points="347.45 74.86 222.75 55.88 221.83 63.01 346.52 81.98 347.45 74.86"/><path class="cls-19" d="M220.62,55.56l-6.29-1a1.91,1.91,0,0,0-2.11,1.73l-.4,3.1a2,2,0,0,0,1.59,2.29l6.29,1Z"/><polygon class="cls-13" points="347.45 74.86 353.53 79.42 346.52 81.98 347.45 74.86"/><polygon class="cls-14" points="351.53 77.92 353.53 79.42 351.23 80.26 351.53 77.92"/><polygon class="cls-15" points="222.75 55.88 220.62 55.56 219.7 62.68 221.83 63.01 222.75 55.88"/><rect class="cls-20" x="289.29" y="171.01" width="147.95" height="8.45" transform="translate(-32.58 252.52) rotate(-36.8)"/><path class="cls-21" d="M295.59,219.73H303a0,0,0,0,1,0,0v8.45a0,0,0,0,1,0,0h-7.37a2.29,2.29,0,0,1-2.29-2.29V222A2.29,2.29,0,0,1,295.59,219.73Z" transform="translate(-74.74 223.22) rotate(-36.8)"/><polygon class="cls-13" points="419.97 127.53 428.72 126.27 425.03 134.3 419.97 127.53"/><polygon class="cls-14" points="425.84 126.68 428.72 126.27 427.5 128.91 425.84 126.68"/><rect class="cls-15" x="301.75" y="216.08" width="2.53" height="8.45" transform="translate(-71.58 225.41) rotate(-36.8)"/></g></g></svg>