<svg xmlns="http://www.w3.org/2000/svg" viewBox="0 0 222.98 227.92"><defs><style>.cls-1{fill:#949596;}.cls-2{fill:#d1d3d4;}.cls-3{fill:#b5b7b8;}.cls-4{fill:#27cf7e;}.cls-5{fill:#21db82;}.cls-6{fill:none;stroke:#009444;stroke-miterlimit:10;}.cls-7{fill:#939598;}</style></defs><g id="Layer_2" data-name="Layer 2"><g id="Layer_1-2" data-name="Layer 1"><path class="cls-1" d="M132.41,167.29v16a75.11,75.11,0,0,1-44.59-.86V167.29A4.17,4.17,0,0,1,92,163.12h36.25a4.2,4.2,0,0,1,4.17,4.17Z"/><path class="cls-1" d="M111.6,190.2a78.93,78.93,0,0,0,20.81-2.78v36.33a4.17,4.17,0,0,1-4.17,4.17H92a4.17,4.17,0,0,1-4.17-4.17V186.54A78.54,78.54,0,0,0,111.6,190.2Z"/><rect class="cls-2" x="83.79" y="169.86" width="52.65" height="8.2" rx="3.37"/><rect class="cls-3" x="84.47" y="178.06" width="51.28" height="8.2" rx="3.33"/><rect class="cls-3" x="84.47" y="194.45" width="51.28" height="8.2" rx="3.33"/><rect class="cls-3" x="84.47" y="210.84" width="51.28" height="8.2" rx="3.33"/><rect class="cls-2" x="83.79" y="186.25" width="52.65" height="8.2" rx="3.37"/><rect class="cls-2" x="83.79" y="202.64" width="52.65" height="8.2" rx="3.37"/><path class="cls-4" d="M186.36,111.49q0,3.41-.31,6.72a70.13,70.13,0,0,1-1,7,74.25,74.25,0,0,1-3.3,12,69.37,69.37,0,0,1-2.75,6.51,72.9,72.9,0,0,1-6.33,10.77,70.65,70.65,0,0,1-4.34,5.58,73.65,73.65,0,0,1-8.88,8.78c-1.81,1.51-3.68,2.93-5.63,4.26a74.41,74.41,0,0,1-21.35,10.13,75.11,75.11,0,0,1-44.59-.86,73.42,73.42,0,0,1-8.61-3.48,75.08,75.08,0,0,1-10.76-6.32q-2.9-2-5.58-4.35a73.65,73.65,0,0,1-8.78-8.88c-1.51-1.81-2.93-3.68-4.26-5.63a73.45,73.45,0,0,1-6.19-10.85,70.65,70.65,0,0,1-2.66-6.55,72.76,72.76,0,0,1-3.15-12.09,70.27,70.27,0,0,1-.88-7c-.15-1.9-.22-3.83-.22-5.77q0-3.4.31-6.72a70.13,70.13,0,0,1,1-7,74.25,74.25,0,0,1,3.3-12q1.23-3.35,2.75-6.52a74.22,74.22,0,0,1,6.33-10.76,70.65,70.65,0,0,1,4.34-5.58,73.65,73.65,0,0,1,8.88-8.78c1.81-1.51,3.68-2.93,5.63-4.26a73.45,73.45,0,0,1,10.85-6.19A70.65,70.65,0,0,1,86.73,41a72.76,72.76,0,0,1,12.09-3.15,70.27,70.27,0,0,1,7-.88c1.9-.15,3.83-.22,5.77-.22q3.41,0,6.72.31a70.13,70.13,0,0,1,7,1,74.25,74.25,0,0,1,12,3.3q3.34,1.23,6.52,2.75a74.22,74.22,0,0,1,10.76,6.33,70.65,70.65,0,0,1,5.58,4.34A73.65,73.65,0,0,1,169,63.59c1.51,1.81,2.93,3.68,4.26,5.63a73.45,73.45,0,0,1,6.19,10.85,70.65,70.65,0,0,1,2.66,6.55,72.76,72.76,0,0,1,3.15,12.09,70.27,70.27,0,0,1,.88,7C186.29,107.62,186.36,109.55,186.36,111.49Z"/><path class="cls-5" d="M86.88,51.1a57,57,0,0,0-39,54.64c-.15-.54-.28-1.11-.4-1.66A44,44,0,0,1,81.33,51.92,45.06,45.06,0,0,1,86.88,51.1Z"/><path class="cls-5" d="M179.47,110.93a65.26,65.26,0,0,1-98.3,56.28A65.26,65.26,0,0,0,139,50.55,65.25,65.25,0,0,1,179.47,110.93Z"/><line class="cls-6" x1="203.69" y1="48.29" x2="176.68" y2="66.8"/><line class="cls-6" x1="186.25" y1="49.1" x2="172.18" y2="60.85"/><line class="cls-6" x1="184.19" y1="26.58" x2="162.9" y2="51.45"/><line class="cls-6" x1="167.56" y1="31.87" x2="157" y2="46.86"/><line class="cls-6" x1="159.74" y1="10.66" x2="145.61" y2="40.18"/><line class="cls-6" x1="145.04" y1="20.08" x2="138.73" y2="37.28"/><line class="cls-6" x1="132" y1="1.6" x2="125.99" y2="33.79"/><line class="cls-6" x1="120.24" y1="14.51" x2="118.59" y2="32.79"/><line class="cls-6" x1="105.39" y1="32.72" x2="102.86" y2="0.04"/><line class="cls-6" x1="97.98" y1="33.65" x2="94.84" y2="15.55"/><line class="cls-6" x1="85.22" y1="37.01" x2="74.31" y2="6.07"/><line class="cls-6" x1="78.31" y1="39.84" x2="70.57" y2="23.13"/><line class="cls-6" x1="66.87" y1="46.39" x2="48.29" y2="19.29"/><line class="cls-6" x1="60.93" y1="50.91" x2="49.1" y2="36.73"/><line class="cls-6" x1="51.58" y1="60.19" x2="26.58" y2="38.79"/><line class="cls-6" x1="47.02" y1="66.09" x2="31.87" y2="55.42"/><line class="cls-6" x1="40.38" y1="77.46" x2="10.66" y2="63.24"/><line class="cls-6" x1="37.49" y1="84.33" x2="20.08" y2="77.94"/><line class="cls-6" x1="34.04" y1="97.03" x2="1.61" y2="90.98"/><line class="cls-6" x1="33.05" y1="104.41" x2="14.51" y2="102.74"/><line class="cls-6" x1="32.98" y1="117.57" x2="0.04" y2="120.12"/><line class="cls-6" x1="33.91" y1="124.95" x2="15.55" y2="128.14"/><line class="cls-6" x1="37.25" y1="137.67" x2="6.07" y2="148.67"/><line class="cls-6" x1="40.07" y1="144.56" x2="23.13" y2="152.41"/><line class="cls-6" x1="46.59" y1="155.98" x2="19.29" y2="174.69"/><line class="cls-6" x1="51.09" y1="161.9" x2="36.73" y2="173.88"/><line class="cls-6" x1="60.32" y1="171.25" x2="38.79" y2="196.4"/><line class="cls-6" x1="66.2" y1="175.82" x2="55.43" y2="191.11"/><line class="cls-6" x1="77.52" y1="182.47" x2="63.24" y2="212.32"/><line class="cls-6" x1="152.41" y1="199.85" x2="144.6" y2="182.98"/><line class="cls-6" x1="174.69" y1="203.69" x2="156.04" y2="176.49"/><line class="cls-6" x1="173.88" y1="186.25" x2="161.99" y2="172"/><line class="cls-6" x1="196.4" y1="184.19" x2="171.38" y2="162.77"/><line class="cls-6" x1="191.11" y1="167.56" x2="175.97" y2="156.9"/><line class="cls-6" x1="212.33" y1="159.74" x2="182.67" y2="145.55"/><line class="cls-6" x1="202.91" y1="145.04" x2="185.58" y2="138.68"/><line class="cls-6" x1="221.38" y1="132" x2="189.1" y2="125.98"/><line class="cls-6" x1="208.47" y1="120.24" x2="190.12" y2="118.58"/><line class="cls-6" x1="222.94" y1="102.86" x2="190.24" y2="105.39"/><line class="cls-6" x1="207.43" y1="94.84" x2="189.33" y2="97.98"/><line class="cls-6" x1="216.91" y1="74.31" x2="186.02" y2="85.2"/><line class="cls-6" x1="199.85" y1="70.57" x2="183.21" y2="78.28"/><path class="cls-3" d="M135.46,189.6v.79a3.41,3.41,0,0,1-2.54,3.3l-1.78-1.24h1.48A2.85,2.85,0,0,0,135.46,189.6Z"/><path class="cls-7" d="M135,197.39v.8a3.4,3.4,0,0,1-2.55,3.3l-1.78-1.25h1.48A2.85,2.85,0,0,0,135,197.39Z"/><path class="cls-7" d="M135,214.25V215a3.4,3.4,0,0,1-2.55,3.3l-1.78-1.24h1.48A2.86,2.86,0,0,0,135,214.25Z"/><path class="cls-3" d="M135.46,205.88v.79a3.41,3.41,0,0,1-2.54,3.3l-1.78-1.24h1.48A2.85,2.85,0,0,0,135.46,205.88Z"/></g></g></svg>