<svg xmlns="http://www.w3.org/2000/svg" viewBox="0 0 584.54 325.26"><defs><style>.cls-1{font-size:12px;font-family:Roboto-Regular, Roboto;}.cls-2{letter-spacing:-0.01em;}.cls-3{fill:#70331e;}.cls-4{fill:#a6a33c;}.cls-5{fill:#cecb5a;}.cls-6{opacity:0.04;}.cls-7{fill:#ba6741;}.cls-8{opacity:0.07;}.cls-9{fill:#f2f2f2;opacity:0.6;}.cls-10{fill:#b0613d;}</style></defs><g id="Layer_1" data-name="Layer 1"><text class="cls-1" transform="translate(61.21 110.29)">Lo<tspan class="cls-2" x="13.3" y="0">r</tspan><tspan x="17.25" y="0">em ipsum</tspan></text></g><g id="Layer_2" data-name="Layer 2"><g id="Layer_1-2" data-name="Layer 1"><path class="cls-3" d="M44.94,190.08a106.76,106.76,0,0,0-8.84,56.25,98.2,98.2,0,0,0,10.26,33.75H539.77a108.28,108.28,0,0,0,8.84-33.75,115.09,115.09,0,0,0-8.84-56.25H44.94Z"/><path class="cls-4" d="M31.88,195.34c8.9-.93-2.88-.91,2.09-.7,2.86.12,5.46.3,10.69.51,3.23.13,7.43.24,13.62.23,25.67,0,35.63,32.06,60.35,31.87,26-.2,35.49-35.86,60.36-35.86s34.35,35.66,60.35,35.86c24.72.19,34.68-31.91,60.35-31.87s34.92,31.87,60.35,31.87,34.91-31.87,60.35-31.87c24.76,0,32.52,30.18,60.35,31.87q26.36,1.6,60.35-31.87V163.5H3.59Z"/><path class="cls-5" d="M1.78,162.81c0,4.76-6,65.7,59.75,52.06,26.2-5.44,34.1-25.74,58-25.77,24.67,0,34.24,25.92,58,25.77,25-.16,34.1-29,58-29s33,28.83,58,29c23.76.15,33.33-25.8,58-25.77s33.56,25.77,58,25.77,33.55-25.77,58-25.77c23.8,0,31.26,24.4,58,25.77,21.71,1.11,42.08-10.46,50.83-20.11,3.4-3.74,8.13-9.12,6-15.24-2.25-6.55-11.53-11.62-23.77-13.44L29.76,163.34C24,167.66,7.5,158.48,1.78,162.81Z"/><path class="cls-6" d="M5.43,194.35c-8.61-29.63-7.09-47.8,5.34-73.79,61.4-128.39,536.72-59.15,563,0,16.67,37.47,7.49,65.56,7.49,65.56a35.08,35.08,0,0,1-2.78,4.95c-120.75-13.16-218.44-16.51-286.22-16.51C184.93,174.56,91.14,183.7,5.43,194.35Z"/><path class="cls-7" d="M1.69,181.62c-2.75-19.29-3.35-46,9.08-72,69.9-146.16,493.13-146.16,563,0,12.43,26,11.83,52.71,9.08,72a2354.71,2354.71,0,0,0-581.19,0Z"/><path class="cls-8" d="M60.56,140.15c-2.19-13.56-2.67-32.34,7.24-50.6,55.74-102.7,393.23-102.7,449,0,9.91,18.26,9.43,37,7.24,50.6-72.77,4.64-150.88-1.18-233.72-1.23C208.94,138.88,132.18,144.71,60.56,140.15Z"/><ellipse class="cls-9" cx="28.75" cy="116.33" rx="4.5" ry="2.27" transform="translate(-91 111.92) rotate(-74.01)"/><ellipse class="cls-9" cx="123.88" cy="105.25" rx="4.5" ry="2.27" transform="translate(-11.43 195.34) rotate(-74.01)"/><ellipse class="cls-9" cx="123.64" cy="150.12" rx="2.27" ry="4.5"/><ellipse class="cls-9" cx="278.02" cy="33.12" rx="2.27" ry="4.5"/><ellipse class="cls-9" cx="218.16" cy="50.59" rx="4.5" ry="2.27" transform="translate(109.42 246.37) rotate(-74.01)"/><ellipse class="cls-9" cx="142.05" cy="33.25" rx="4.5" ry="2.27" transform="translate(70.95 160.64) rotate(-74.01)"/><ellipse class="cls-9" cx="82.32" cy="93.91" rx="4.5" ry="2.27" transform="translate(-30.64 147.17) rotate(-74.01)"/><ellipse class="cls-9" cx="234.18" cy="108.34" rx="2.27" ry="4.5" transform="translate(-23.12 88.95) rotate(-20.52)"/><ellipse class="cls-9" cx="191.75" cy="123.12" rx="2.27" ry="4.5"/><ellipse class="cls-9" cx="190.9" cy="39.18" rx="2.27" ry="4.5"/><ellipse class="cls-9" cx="118.86" cy="60.25" rx="4.5" ry="2.27" transform="translate(28.2 157.91) rotate(-74.01)"/><ellipse class="cls-9" cx="344.44" cy="121.17" rx="2.27" ry="4.5" transform="translate(-20.62 128.42) rotate(-20.52)"/><ellipse class="cls-9" cx="60.08" cy="159.12" rx="2.27" ry="4.5"/><ellipse class="cls-9" cx="296.47" cy="99.59" rx="2.27" ry="4.5" transform="translate(-14.64 67.63) rotate(-12.7)"/><ellipse class="cls-9" cx="363" cy="84.6" rx="4.5" ry="2.27" transform="translate(181.66 410.24) rotate(-74.01)"/><ellipse class="cls-9" cx="323.43" cy="60.12" rx="2.27" ry="4.5"/><ellipse class="cls-9" cx="314.35" cy="15.12" rx="2.27" ry="4.5"/><ellipse class="cls-9" cx="373.38" cy="33.12" rx="2.27" ry="4.5"/><ellipse class="cls-9" cx="414.24" cy="24.12" rx="2.27" ry="4.5"/><ellipse class="cls-9" cx="439.23" cy="60.12" rx="2.27" ry="4.5"/><ellipse class="cls-9" cx="460.31" cy="99.59" rx="2.27" ry="4.5"/><ellipse class="cls-9" cx="491.43" cy="60.12" rx="2.27" ry="4.5"/><ellipse class="cls-9" cx="436.96" cy="136.32" rx="4.5" ry="2.27" transform="translate(242.36 550.63) rotate(-82.17)"/><ellipse class="cls-9" cx="274.32" cy="151.23" rx="2.27" ry="4.5" transform="translate(-35.6 105.75) rotate(-20.52)"/><ellipse class="cls-9" cx="414.24" cy="99.59" rx="4.5" ry="2.27" transform="translate(259.11 496.39) rotate(-82.17)"/><ellipse class="cls-9" cx="494.24" cy="153.1" rx="4.5" ry="2.27" transform="translate(275.2 621.85) rotate(-82.17)"/><ellipse class="cls-9" cx="394.41" cy="112.44" rx="4.5" ry="2.27" transform="translate(229.26 487.84) rotate(-82.17)"/><ellipse class="cls-9" cx="496.03" cy="104.06" rx="4.5" ry="2.27" transform="translate(325.33 581.28) rotate(-82.17)"/><ellipse class="cls-9" cx="551.43" cy="127.62" rx="2.27" ry="4.5"/><path class="cls-10" d="M17.22,271.26a29.92,29.92,0,0,0-.31,54H567.35a29.36,29.36,0,0,0,17.19-27c0-11.79-6.8-22.47-17.19-27-91.86-4.56-175.07-9.24-275.06-9C201.55,262.47,101.2,267.09,17.22,271.26Z"/></g></g></svg>