<svg xmlns="http://www.w3.org/2000/svg" xmlns:xlink="http://www.w3.org/1999/xlink" viewBox="0 0 334.34 310.11"><defs><style>.cls-1{fill:url(#linear-gradient);}.cls-2{fill:#cfb450;opacity:0.73;}.cls-3{fill:url(#linear-gradient-2);}.cls-11,.cls-12,.cls-13,.cls-14,.cls-15,.cls-16,.cls-17,.cls-18,.cls-19,.cls-4,.cls-5,.cls-6,.cls-7,.cls-8{fill:none;stroke-miterlimit:10;}.cls-4{stroke-width:7.64px;stroke:url(#linear-gradient-3);}.cls-11,.cls-12,.cls-14,.cls-18,.cls-5{stroke:#757575;}.cls-5{stroke-width:4.68px;}.cls-21,.cls-5{opacity:0.14;}.cls-6{stroke:#876f24;stroke-width:0.37px;}.cls-7,.cls-8{stroke:#615323;}.cls-14,.cls-17,.cls-7{stroke-width:0.52px;}.cls-8{stroke-width:3.47px;}.cls-9{fill:#4d4545;}.cls-10{fill:#272323;}.cls-11,.cls-12,.cls-13,.cls-14,.cls-15,.cls-16,.cls-17,.cls-18,.cls-19{stroke-linecap:round;}.cls-11{stroke-width:0.69px;}.cls-12,.cls-13{stroke-width:0.35px;}.cls-13,.cls-15,.cls-16,.cls-17,.cls-19{stroke:#706a6a;}.cls-15{stroke-width:0.67px;}.cls-16{stroke-width:1.05px;}.cls-18,.cls-19{stroke-width:0.17px;}.cls-20{opacity:0.2;}</style><linearGradient id="linear-gradient" x1="283.17" y1="212.26" x2="129.23" y2="46.53" gradientUnits="userSpaceOnUse"><stop offset="0" stop-color="#cfb450"/><stop offset="1" stop-color="#bda548"/></linearGradient><linearGradient id="linear-gradient-2" x1="207.82" y1="120.88" x2="71.1" y2="199.29" gradientUnits="userSpaceOnUse"><stop offset="0" stop-color="#454545" stop-opacity="0.3"/><stop offset="1" stop-color="#9c8e8e" stop-opacity="0"/></linearGradient><linearGradient id="linear-gradient-3" x1="294.05" y1="218.56" x2="122.36" y2="33.71" gradientUnits="userSpaceOnUse"><stop offset="0" stop-color="#a3a3a3"/><stop offset="1" stop-color="#9c8e8e"/></linearGradient></defs><g id="Layer_2" data-name="Layer 2"><g id="Layer_1-2" data-name="Layer 1"><circle class="cls-1" cx="204.49" cy="127.56" r="122.31"/><path class="cls-2" d="M289.06,39,94.75,180.69a121.41,121.41,0,0,1-10-31.4L253.84,15.8A122.06,122.06,0,0,1,289.06,39Z"/><path class="cls-3" d="M264,239.12l-141.31,71L0,89.59,150.59,14l1.92,3.81A122.34,122.34,0,0,0,262.59,236.28Z"/><path class="cls-4" d="M330.44,130.53A122.37,122.37,0,1,1,212.6,3.9,122.29,122.29,0,0,1,330.44,130.53Z"/><circle class="cls-5" cx="208.2" cy="126.14" r="117.6"/><line class="cls-6" x1="127.67" y1="72.83" x2="117.26" y2="65.89"/><line class="cls-6" x1="113.31" y1="108.04" x2="101.04" y2="105.6"/><line class="cls-6" x1="113.51" y1="146.06" x2="101.25" y2="148.5"/><line class="cls-6" x1="128.25" y1="181.1" x2="117.86" y2="188.06"/><line class="cls-6" x1="263.55" y1="207.25" x2="270.51" y2="217.65"/><line class="cls-6" x1="290.29" y1="180.22" x2="300.7" y2="187.17"/><line class="cls-6" x1="304.65" y1="145.02" x2="316.92" y2="147.46"/><line class="cls-6" x1="304.45" y1="107" x2="316.71" y2="104.56"/><line class="cls-6" x1="289.71" y1="71.95" x2="300.1" y2="65"/><line class="cls-6" x1="262.68" y1="45.22" x2="269.62" y2="34.81"/><line class="cls-7" x1="120.84" y1="90.21" x2="105.43" y2="83.83"/><line class="cls-7" x1="120.75" y1="162.42" x2="105.34" y2="168.81"/><line class="cls-7" x1="275.57" y1="193.22" x2="287.37" y2="205.02"/><line class="cls-7" x1="296.06" y1="161.99" x2="311.47" y2="168.37"/><line class="cls-7" x1="275.57" y1="58.98" x2="287.36" y2="47.18"/><line class="cls-7" x1="296.15" y1="89.78" x2="311.56" y2="83.39"/><line class="cls-8" x1="117.38" y1="126.1" x2="92.99" y2="126.1"/><line class="cls-8" x1="299.52" y1="126.1" x2="323.91" y2="126.1"/><line class="cls-8" x1="208.45" y1="35.03" x2="208.45" y2="10.64"/><line class="cls-6" x1="189.45" y1="31.06" x2="187.01" y2="18.8"/><line class="cls-6" x1="154.4" y1="45.8" x2="147.45" y2="35.4"/><line class="cls-6" x1="155.28" y1="207.84" x2="148.34" y2="218.25"/><line class="cls-6" x1="190.49" y1="222.2" x2="188.05" y2="234.47"/><line class="cls-6" x1="228.51" y1="221.99" x2="230.95" y2="234.26"/><line class="cls-6" x1="227.47" y1="30.86" x2="229.91" y2="18.59"/><line class="cls-7" x1="141.33" y1="58.98" x2="129.53" y2="47.18"/><line class="cls-7" x1="172.12" y1="38.4" x2="165.74" y2="22.99"/><line class="cls-7" x1="141.32" y1="193.22" x2="129.53" y2="205.02"/><line class="cls-7" x1="172.56" y1="213.71" x2="166.18" y2="229.12"/><line class="cls-7" x1="244.77" y1="213.8" x2="251.16" y2="229.21"/><line class="cls-7" x1="244.34" y1="38.49" x2="250.72" y2="23.08"/><line class="cls-8" x1="208.45" y1="217.17" x2="208.45" y2="241.56"/><circle class="cls-9" cx="208.98" cy="126.53" r="2.78"/><path class="cls-10" d="M205.4,123.19l-.54,1.16c-.58,1.22-1.75,1.9-2.61,1.5l-77-35.4c-.86-.4-1.09-1.71-.51-2.94l.55-1.16c.58-1.23,1.74-1.9,2.6-1.5l77,35.4C205.75,120.65,206,122,205.4,123.19Z"/><rect class="cls-10" x="217.09" y="129.67" width="3.51" height="46.59" rx="1.23" transform="translate(475.49 226.61) rotate(161.06)"/><path class="cls-11" d="M170.2,99.92a47,47,0,0,1,27.66-19.76"/><path class="cls-12" d="M163.34,96.64A54.19,54.19,0,0,1,203.4,72"/><path class="cls-13" d="M179.13,98.5A40.52,40.52,0,0,1,221,87.17"/><path class="cls-14" d="M217.74,166.1A40.51,40.51,0,0,1,177,151.36"/><path class="cls-14" d="M210.53,159.54c-.91.05-1.82.05-2.74,0A32.78,32.78,0,0,1,180.52,143"/><path class="cls-12" d="M184.09,105.59a32.8,32.8,0,0,1,26-11.44l1.21.07"/><path class="cls-15" d="M179,103.45a38,38,0,0,1,8.84-8.32,38.41,38.41,0,0,1,11-5.09"/><path class="cls-16" d="M162.26,91A59,59,0,0,1,188,71.51"/><path class="cls-17" d="M211.87,144.44a19,19,0,0,1-3.19.17,18.48,18.48,0,0,1-15-8.76"/><path class="cls-18" d="M208.11,139.66a14.32,14.32,0,0,1-9.06-4.43"/><path class="cls-19" d="M210,148.75c-.62,0-1.24,0-1.86,0a22.23,22.23,0,0,1-15.84-7.46"/><path class="cls-19" d="M213.2,154.86A27.9,27.9,0,0,1,189,147.21"/><path class="cls-19" d="M214.24,163.29a36.27,36.27,0,0,1-6.25.31A36.66,36.66,0,0,1,189.81,158"/><path class="cls-17" d="M210.17,151.49c-.69,0-1.39,0-2.09,0a25,25,0,0,1-14.85-5.57"/><g class="cls-20"><circle class="cls-9" cx="208.5" cy="126.22" r="2.78"/><path class="cls-10" d="M205.17,122.64l-.63,1.12c-.66,1.18-1.87,1.77-2.7,1.31L127.53,84.39c-.83-.46-1-1.78-.31-3l.63-1.12c.66-1.18,1.87-1.77,2.7-1.31l74.31,40.68C205.69,120.13,205.83,121.45,205.17,122.64Z"/><rect class="cls-10" x="214.75" y="129.98" width="3.51" height="46.59" rx="1.23" transform="translate(465.2 245.55) rotate(165.06)"/><path class="cls-11" d="M171.68,97a46.94,46.94,0,0,1,29-17.78"/><path class="cls-12" d="M165.06,93.22a54.16,54.16,0,0,1,41.69-21.83"/><path class="cls-13" d="M180.68,96.17a40.54,40.54,0,0,1,32.17-10.89,40,40,0,0,1,10.39,2.52"/><path class="cls-14" d="M214.49,166.31a40.53,40.53,0,0,1-39.67-17.55"/><path class="cls-14" d="M207.75,159.26c-.91,0-1.83-.08-2.73-.17A32.8,32.8,0,0,1,179,140.71"/><path class="cls-12" d="M185.14,103.59A32.74,32.74,0,0,1,211.92,94c.41,0,.81.09,1.21.15"/><path class="cls-15" d="M180.23,101.11a37.9,37.9,0,0,1,20.77-12"/><path class="cls-16" d="M164.38,87.49a59.1,59.1,0,0,1,27-17.62"/><path class="cls-17" d="M210.14,144.29a19,19,0,0,1-3.2-.06,18.41,18.41,0,0,1-14.37-9.78"/><path class="cls-18" d="M206.72,139.26a14.08,14.08,0,0,1-4.82-1.73,14.33,14.33,0,0,1-3.91-3.32"/><path class="cls-19" d="M208,148.46c-.62,0-1.24-.05-1.85-.11a22.31,22.31,0,0,1-15.28-8.55"/><path class="cls-19" d="M210.74,154.77a27.82,27.82,0,0,1-23.65-9.32"/><path class="cls-19" d="M211.19,163.26a36.22,36.22,0,0,1-6.25-.13,36.71,36.71,0,0,1-17.76-6.84"/><path class="cls-17" d="M208,151.2c-.69,0-1.39-.06-2.08-.13a25,25,0,0,1-14.43-6.59"/></g><g class="cls-21"><circle class="cls-9" cx="208.46" cy="126.22" r="2.78"/><path class="cls-10" d="M205.32,122.47l-.69,1.09c-.72,1.14-2,1.67-2.77,1.17L129.78,80.21c-.8-.5-.87-1.83-.15-3l.69-1.08c.72-1.15,2-1.67,2.76-1.18l72.09,44.52C206,120,206,121.32,205.32,122.47Z"/><rect class="cls-10" x="213.28" y="130.37" width="3.51" height="46.59" rx="1.23" transform="translate(457.19 259.51) rotate(168.06)"/><path class="cls-11" d="M173.21,95.09a47,47,0,0,1,29.86-16.25"/><path class="cls-12" d="M166.8,91a54.25,54.25,0,0,1,42.78-19.62"/><path class="cls-13" d="M182.25,94.76a40.48,40.48,0,0,1,42.94-6.13"/><path class="cls-14" d="M212.33,166.57A40.48,40.48,0,0,1,173.64,147"/><path class="cls-14" d="M206,159.18c-.91-.07-1.82-.18-2.73-.32a32.76,32.76,0,0,1-25.05-19.72"/><path class="cls-12" d="M186.31,102.41a32.73,32.73,0,0,1,27.25-8.18l1.19.22"/><path class="cls-15" d="M181.54,99.67A37.91,37.91,0,0,1,202.9,88.78"/><path class="cls-16" d="M166.43,85.23a59,59,0,0,1,27.88-16.18"/><path class="cls-17" d="M209.14,144.36a18.83,18.83,0,0,1-3.18-.23,18.43,18.43,0,0,1-13.85-10.52"/><path class="cls-18" d="M206,139.15a14.2,14.2,0,0,1-4.73-2,14,14,0,0,1-3.72-3.52"/><path class="cls-19" d="M206.81,148.41c-.62,0-1.24-.12-1.85-.21a22.26,22.26,0,0,1-14.81-9.34"/><path class="cls-19" d="M209.19,154.85a27.73,27.73,0,0,1-23.12-10.54"/><path class="cls-19" d="M209.2,163.35a36.26,36.26,0,0,1-6.24-.45,36.85,36.85,0,0,1-17.37-7.76"/><path class="cls-17" d="M206.6,151.14c-.69,0-1.39-.13-2.08-.24a25,25,0,0,1-14.06-7.34"/></g></g></g></svg>