<svg xmlns="http://www.w3.org/2000/svg" viewBox="0 0 563.92 290.19"><defs><style>.cls-1{fill:#a1a09f;}.cls-2{fill:#c6c6c6;}.cls-3{fill:#dadada;}.cls-4{fill:#575756;}.cls-5{fill:#babab9;}.cls-6{fill:#f9b233;}.cls-7{fill:#e3e3e2;}</style></defs><g id="Layer_2" data-name="Layer 2"><g id="Layer_1-2" data-name="Layer 1"><path class="cls-1" d="M303.12,111.59a49,49,0,0,1-7.58-12.16c-6.71-15.52-4.27-32.72,7.38-42.55a27.65,27.65,0,0,1,4.23-3,46.19,46.19,0,0,0-.93,4.88c-1.82,13.64,2.22,29,12.08,41.85.63.83,1.29,1.65,2,2.45.51.62,1,1.21,1.57,1.79A62.42,62.42,0,0,0,334,115.3a56.37,56.37,0,0,0,19.64,8.12,29.87,29.87,0,0,1-3.47,1.88,32.72,32.72,0,0,1-14.92,2.86c-10.71-.37-21.94-5.47-30.55-14.73C304.18,112.83,303.65,112.22,303.12,111.59Z" transform="translate(-5.16)"/><path class="cls-2" d="M494.26,75.12c0,.95,0,1.9-.09,2.84-.09,1.52-.26,3-.49,4.5a47,47,0,0,1-4.94,14.77c-.28.54-.58,1.07-.88,1.59a48.54,48.54,0,0,1-6.38,8.62c-.17.18-.34.37-.52.55a48.52,48.52,0,0,1-6.8,6c-.63.46-1.28.91-1.94,1.34s-1.59,1-2.4,1.49c-.51.3-1,.59-1.53.86.61-.4,1.22-.82,1.81-1.25l.36-.27.56-.42.81-.64a50.29,50.29,0,0,0,9-9.28,49,49,0,0,0,3.86-6.1c.21-.41.43-.81.63-1.22h0a47.37,47.37,0,0,0,4.8-18.06c0-.24,0-.48,0-.71a46.06,46.06,0,0,0-.94-7.49,46.82,46.82,0,0,0-2-6.85c-.44-1.16-.91-2.31-1.44-3.44a48.4,48.4,0,0,0-9.56-13.64,51.61,51.61,0,0,0-36.41-15.19h-.45a52.23,52.23,0,0,0-6.66.42c-.66.07-1.31.17-1.95.28a51.57,51.57,0,0,0-35.51-14.94A52.91,52.91,0,0,0,383,20.52a51,51,0,0,0-8.57,3.06c-.68.31-1.34.63-2,1a50.85,50.85,0,0,0-12.71,9.24c-.65-.11-1.3-.21-2-.28l-1-.11-.39,0c-.66-.07-1.33-.13-2-.17-1.08-.07-2.17-.1-3.27-.1h-.45a52.85,52.85,0,0,0-13,1.71,52.06,52.06,0,0,0-12.14,4.9c-.78.44-1.55.9-2.31,1.37a50.55,50.55,0,0,0-9,7.21,48.45,48.45,0,0,0-11,17.08c-.31.84-.6,1.7-.87,2.56,0,0,0,0,0,0a46.33,46.33,0,0,0-2.05,11.77c0,.23,0,.47,0,.71a46.39,46.39,0,0,0,1.19,8c.15.64.32,1.29.5,1.93s.37,1.27.58,1.91c-.14-.26-.27-.53-.41-.8l-.09-.17c-.15-.3-.29-.6-.43-.91a3,3,0,0,1-.15-.32c-.15-.3-.29-.61-.41-.91-.06-.11-.1-.21-.15-.32s-.12-.27-.17-.41a1.89,1.89,0,0,1-.09-.21l-.31-.75c-.15-.38-.3-.76-.44-1.15s-.18-.48-.26-.72-.14-.41-.22-.62-.1-.31-.14-.47-.2-.59-.29-.88a3.17,3.17,0,0,1-.12-.41c-.1-.29-.18-.59-.26-.89,0-.14-.08-.28-.11-.42s-.15-.53-.21-.81-.15-.57-.21-.85v0c0-.11-.06-.23-.08-.34l-.06-.25c0-.22-.1-.44-.14-.66h0l-.09-.49c-.07-.26-.11-.54-.16-.82l-.09-.52c-.05-.3-.09-.59-.14-.88l-.06-.43c0-.29-.08-.58-.11-.87a5.08,5.08,0,0,1-.07-.67,5.9,5.9,0,0,1-.06-.59c0-.23-.05-.46-.06-.7s-.05-.55-.07-.82c0-.11,0-.22,0-.33s0-.22,0-.32h0v-.26c0-.2,0-.4,0-.6a50.2,50.2,0,0,1,1.53-9.8c.07-.29.15-.57.22-.85a.25.25,0,0,0,0-.07c.15-.45.31-.9.48-1.34.42-1.11.87-2.2,1.38-3.28.07-.17.15-.33.23-.49a45.66,45.66,0,0,1,3.5-6.12c.57-.86,1.18-1.7,1.81-2.52a47.53,47.53,0,0,1,4.08-4.67,51.68,51.68,0,0,1,36.86-15.19c1.19,0,2.36,0,3.53.11,1.72.11,3.41.31,5.08.58l.66-.65a51.77,51.77,0,0,1,36-14.31c1,0,2,0,2.95.09s2-.09,2.95-.09a51.73,51.73,0,0,1,35.95,14.31l.67.65c1.67-.27,3.37-.47,5.08-.58,1.17-.08,2.34-.11,3.53-.11a51.68,51.68,0,0,1,36.86,15.19,49.19,49.19,0,0,1,6.5,8.11A47,47,0,0,1,494.21,73C494.24,73.68,494.26,74.39,494.26,75.12Z" transform="translate(-5.16)"/><path class="cls-1" d="M497.28,82.08a38.82,38.82,0,0,1-44.51,38.4,51.5,51.5,0,0,0,4.26-2.9,49.81,49.81,0,0,0,19.62-36.81c.07-1,.09-1.93.09-2.91,0-.74,0-1.47-.05-2.2A49.56,49.56,0,0,0,463,43.53a37.72,37.72,0,0,1,4.27.75,38.84,38.84,0,0,1,29.92,35.54C497.27,80.57,497.28,81.32,497.28,82.08Z" transform="translate(-5.16)"/><path class="cls-3" d="M490.47,80.65c0,1,0,1.95-.1,2.91a49.81,49.81,0,0,1-1.69,10.36s0,0,0,.06a48.59,48.59,0,0,1-1.8,5.3c-.3.75-.62,1.5-1,2.24-.27.58-.56,1.16-.85,1.74a47.75,47.75,0,0,1-4.09,6.66c-.69,1-1.43,1.91-2.2,2.83a50.69,50.69,0,0,1-8,7.62c-.52.38-1,.77-1.57,1.14l-.33.23-.83.42-.9.43a53.07,53.07,0,0,1-22.58,5h-1c-.82,0-1.63,0-2.45-.11l-.64,0c-1.07-.08-2.14-.19-3.19-.34l-.78-.11-.79-.12c-.61-.1-1.21-.22-1.8-.34l-.66-.13-.87-.2-.65-.15-.51-.13-.52-.14-.14,0-.71-.19-1.15-.35c-.26-.07-.52-.16-.78-.24l-.87-.3-.75-.26-1-.37c-.53-.21-1.05-.41-1.58-.64l-.1,0-.83-.37-.83-.37-.81-.39-.81-.41-.1,0a10.86,10.86,0,0,0-6.37-1.14,10.15,10.15,0,0,0-1.55.32L412,121l-.08,0-1,.28c-.83.21-1.68.41-2.53.58l-.93.18-.16,0-.81.14-.45.07-1,.15-1.2.15c-.33,0-.68.08-1,.1l-1.4.12-1.22.07c-.38,0-.76,0-1.15,0s-.88,0-1.31,0a51.8,51.8,0,0,1-6.14-.35c-1.62-.18-3.21-.44-4.78-.77l-.94-.2-.94-.22c-.62-.16-1.25-.32-1.86-.5l-.23-.06a12.31,12.31,0,0,0-1.32-.26h-.06a11,11,0,0,0-6.3,1.14h0l-.69.34-.63.31-.95.45-.5.21c-.41.19-.82.36-1.23.53,0,0,0,0,0,0l-1.23.48-.68.26c-.63.23-1.26.45-1.91.65l-1.42.44c-.77.23-1.54.44-2.33.63l-.76.18c-1,.24-2.07.44-3.11.61l-.77.12-.76.11c-.62.09-1.25.16-1.87.22l-.63.06c-.24,0-.47.05-.72.06l-.67,0c-.8.06-1.61.1-2.42.11h-1a53.35,53.35,0,0,1-33.35-11.72l-.91-.75c-.81-.69-1.6-1.39-2.37-2.12-.53-.49-1-1-1.55-1.52s-.73-.77-1.09-1.16-.53-.58-.79-.88a.81.81,0,0,1-.09-.1l0,0c-.94-1.08-1.85-2.2-2.7-3.36-.19-.25-.37-.51-.56-.77s-.52-.74-.77-1.11-.43-.64-.64-1l-.36-.58c-.16-.24-.31-.49-.47-.74l-.59-1c-.21-.37-.42-.75-.62-1.13s-.43-.79-.63-1.19c-.05-.09-.09-.19-.14-.28-.14-.26-.27-.53-.4-.81l-.08-.17c-.15-.31-.3-.62-.43-.94l0,0c-.05-.1-.09-.2-.13-.3-.14-.3-.28-.61-.4-.93a1.55,1.55,0,0,1-.14-.32c-.07-.14-.12-.28-.18-.42l-.08-.22c-.11-.25-.21-.5-.3-.76s-.3-.78-.44-1.18l-.25-.73-.21-.64c-.06-.16-.11-.32-.15-.47s-.19-.61-.28-.91l-.12-.41c-.09-.31-.17-.61-.25-.91,0-.15-.08-.29-.11-.43l-.21-.83c-.07-.29-.14-.58-.2-.87,0-.13-.06-.26-.08-.38-.07-.31-.13-.62-.2-.93h0l0-.16-.06-.33c-.06-.28-.1-.56-.15-.84l-.09-.54c0-.18-.05-.36-.08-.54v0c0-.11,0-.22-.05-.34s0-.29-.07-.44-.07-.58-.1-.88-.06-.46-.08-.68,0-.41-.05-.61-.05-.47-.07-.71l-.06-.84c0-.12,0-.23,0-.34s0-.22,0-.33h0a8.42,8.42,0,0,1,0-.87,53.43,53.43,0,0,1,1.73-11c0-.11.07-.23.1-.35l.06-.21c.06-.21.11-.43.18-.64.35-1.22.75-2.41,1.19-3.59l.16-.43c.38-1,.78-2,1.21-2.91a10.94,10.94,0,0,1,1-1.75c.39-.54.78-1.07,1.2-1.6.68-.88,1.39-1.74,2.13-2.57a53.38,53.38,0,0,1,5.24-5.18c.49-.42,1-.84,1.5-1.24a53,53,0,0,1,24-10.83,52.48,52.48,0,0,1,9.27-.81c1.17,0,2.32,0,3.47.11a10.86,10.86,0,0,0,7.83-2.65,53.29,53.29,0,0,1,69.92,0,11,11,0,0,0,8.1,2.67c1.44-.12,2.88-.17,4.34-.17a53.07,53.07,0,0,1,38.65,16.61,52.3,52.3,0,0,1,4.19,5,49.5,49.5,0,0,1,7.28,23.84C490.45,79.18,490.47,79.91,490.47,80.65Z" transform="translate(-5.16)"/><circle class="cls-4" cx="405.36" cy="46.71" r="6.04"/><circle class="cls-4" cx="388.76" cy="46.71" r="6.04"/><path class="cls-1" d="M432.05,67c0,5.23-13.31,9.47-29.73,9.47S372.59,72.21,372.59,67a3.34,3.34,0,0,1,.41-1.57c2.36,4.47,14.59,7.89,29.32,7.89s26.95-3.42,29.31-7.89A3.36,3.36,0,0,1,432.05,67Z" transform="translate(-5.16)"/><path class="cls-1" d="M83.43,99.51a49.25,49.25,0,0,1-7.57-12.16c-6.72-15.52-4.27-32.72,7.37-42.55a28.23,28.23,0,0,1,4.24-3,43.78,43.78,0,0,0-.93,4.88c-1.82,13.64,2.21,29,12.08,41.85.63.83,1.28,1.65,2,2.45.52.62,1,1.21,1.58,1.79a62.42,62.42,0,0,0,12.2,10.43A56.37,56.37,0,0,0,134,111.34a29.2,29.2,0,0,1-3.48,1.88,32.69,32.69,0,0,1-14.92,2.86c-10.71-.37-21.93-5.47-30.54-14.73C84.5,100.75,84,100.14,83.43,99.51Z" transform="translate(-5.16)"/><path class="cls-2" d="M274.58,63c0,1,0,1.9-.09,2.84-.09,1.52-.26,3-.49,4.5a47,47,0,0,1-4.94,14.77c-.29.54-.58,1.07-.89,1.59A45.8,45.8,0,0,1,265,91.51a47.09,47.09,0,0,1-3.21,3.85c-.17.18-.34.37-.52.55a49.76,49.76,0,0,1-6.8,6c-.64.45-1.28.91-1.94,1.34s-1.59,1-2.41,1.49c-.51.3-1,.59-1.53.86.62-.4,1.22-.82,1.82-1.25l.36-.27.55-.42.82-.64a50,50,0,0,0,9-9.29A47.73,47.73,0,0,0,265,87.62c.22-.41.43-.81.63-1.22h0a46,46,0,0,0,2.78-7,47.17,47.17,0,0,0,2-11.12c0-.23,0-.47,0-.7a47.19,47.19,0,0,0-1-7.49,48.06,48.06,0,0,0-2-6.85c-.44-1.16-.92-2.31-1.45-3.44a48.57,48.57,0,0,0-9.55-13.64A51.66,51.66,0,0,0,220.12,21h-.45a52.07,52.07,0,0,0-6.65.42c-.66.07-1.31.17-2,.28A51.57,51.57,0,0,0,175.56,6.76a52.37,52.37,0,0,0-12.24,1.68,51,51,0,0,0-8.57,3.06c-.68.3-1.34.63-2,1a50.79,50.79,0,0,0-12.7,9.24c-.65-.11-1.3-.21-2-.28l-1-.11-.39,0c-.67-.06-1.34-.12-2-.16-1.08-.07-2.17-.1-3.28-.1H131a53.35,53.35,0,0,0-13,1.72,52,52,0,0,0-12.13,4.9c-.78.44-1.56.9-2.31,1.37a50.62,50.62,0,0,0-9,7.21,48.28,48.28,0,0,0-11,17.08c-.31.84-.6,1.7-.87,2.56h0a47.28,47.28,0,0,0-1.31,5.34,45.34,45.34,0,0,0-.73,6.43c0,.23,0,.47,0,.7a46.5,46.5,0,0,0,1.19,8.05c.16.64.32,1.29.5,1.93s.37,1.27.59,1.91c-.15-.26-.28-.53-.41-.8a1.4,1.4,0,0,1-.09-.17c-.15-.3-.3-.6-.44-.91a3,3,0,0,1-.15-.32c-.14-.3-.28-.61-.41-.91a2.22,2.22,0,0,1-.14-.32c-.07-.13-.12-.27-.18-.41l-.09-.22c-.1-.25-.21-.49-.3-.74s-.3-.77-.45-1.15l-.25-.72c-.08-.21-.15-.42-.22-.62a4.26,4.26,0,0,1-.15-.47c-.11-.29-.2-.59-.28-.88-.05-.14-.09-.27-.13-.41s-.18-.59-.25-.89a3.25,3.25,0,0,1-.11-.42c-.08-.26-.15-.53-.22-.81s-.14-.57-.2-.85c0,0,0,0,0,0s0-.23-.08-.34l-.06-.25c0-.22-.09-.44-.14-.66h0l-.09-.49c-.06-.26-.1-.54-.15-.82s-.07-.35-.09-.52-.1-.59-.14-.88,0-.29-.07-.43c0-.29-.08-.58-.11-.87s0-.45-.07-.67l-.06-.59-.06-.7c0-.27,0-.55-.07-.82,0-.11,0-.22,0-.33s0-.22,0-.32h0c0-.08,0-.18,0-.26s0-.4,0-.6a49.45,49.45,0,0,1,1.52-9.8c.08-.29.15-.57.23-.85a.64.64,0,0,1,0-.07c.15-.45.31-.9.47-1.34.42-1.11.88-2.2,1.38-3.28.07-.17.15-.33.23-.49a46.47,46.47,0,0,1,3.51-6.13c.57-.85,1.17-1.69,1.81-2.51a46.24,46.24,0,0,1,4.08-4.67,51.66,51.66,0,0,1,36.86-15.19c1.18,0,2.36,0,3.52.11A49.63,49.63,0,0,1,136,15l.67-.65A51.75,51.75,0,0,1,172.6,0c1,0,2,0,3,.09s2-.09,2.94-.09a51.75,51.75,0,0,1,36,14.31c.23.22.45.43.66.65a50.28,50.28,0,0,1,5.08-.58c1.17-.08,2.35-.11,3.53-.11a51.66,51.66,0,0,1,36.86,15.19,48.74,48.74,0,0,1,6.51,8.11,48.25,48.25,0,0,1,4.5,9,46.93,46.93,0,0,1,2.92,14.34C274.56,61.6,274.58,62.31,274.58,63Z" transform="translate(-5.16)"/><path class="cls-1" d="M277.6,70a38.77,38.77,0,0,1-38.82,38.82,38.34,38.34,0,0,1-5.7-.42,48.34,48.34,0,0,0,4.26-2.9A49.78,49.78,0,0,0,257,68.69q.09-1.44.09-2.91c0-.74,0-1.47-.05-2.2a49.56,49.56,0,0,0-13.66-32.13,37.55,37.55,0,0,1,4.26.75,38.81,38.81,0,0,1,29.92,35.54C277.58,68.49,277.6,69.24,277.6,70Z" transform="translate(-5.16)"/><path class="cls-3" d="M270.78,68.57c0,1,0,1.94-.09,2.91A49.27,49.27,0,0,1,269,81.84a.14.14,0,0,1,0,.06,49.27,49.27,0,0,1-1.79,5.3c-.31.75-.62,1.5-1,2.24q-.4.87-.84,1.74a49.73,49.73,0,0,1-4.09,6.66c-.7,1-1.44,1.91-2.21,2.83a50.26,50.26,0,0,1-8,7.62c-.51.38-1,.77-1.57,1.14-.1.08-.21.15-.33.23l-.82.42-.9.43a53.13,53.13,0,0,1-22.58,5h-1c-.82,0-1.64-.05-2.45-.11l-.65,0c-1.06-.08-2.13-.19-3.18-.34l-.79-.11-.78-.12c-.61-.1-1.21-.22-1.81-.34l-.65-.13-.88-.2-.64-.15-.52-.13-.51-.14-.15,0-.7-.2-1.16-.34-.77-.24-.87-.3-.75-.26-1-.37-1.58-.64-.1,0c-.28-.12-.56-.23-.83-.36l-.83-.37-.81-.39-.81-.41-.1,0a10.89,10.89,0,0,0-6.38-1.14,10,10,0,0,0-1.54.32l-.33.09-.09,0-1,.28c-.83.21-1.68.41-2.53.58l-.93.18a.76.76,0,0,0-.16,0l-.82.14-.45.07-1,.15-1.2.15c-.34,0-.68.08-1,.1s-.93.09-1.4.12l-1.22.07c-.37,0-.76,0-1.15,0s-.87,0-1.31,0a51.75,51.75,0,0,1-6.13-.35c-1.62-.18-3.21-.44-4.78-.77l-1-.2-.94-.23c-.62-.15-1.24-.31-1.86-.49l-.23-.06a11.41,11.41,0,0,0-1.32-.26h-.06a11,11,0,0,0-6.3,1.14h0l-.68.34-.64.31-.94.45-.5.21c-.41.19-.82.36-1.23.53h0l-1.23.49-.68.26c-.63.23-1.27.45-1.91.65l-1.42.44c-.77.23-1.55.44-2.33.63l-.77.18c-1,.23-2.06.44-3.11.61l-.76.12-.76.11c-.63.08-1.25.16-1.88.22l-.62.06-.72.06-.67,0c-.81.06-1.61.1-2.42.11h-1A53.3,53.3,0,0,1,97.86,103.8l-.92-.76c-.81-.68-1.59-1.38-2.37-2.11-.52-.49-1-1-1.54-1.52s-.74-.77-1.1-1.16-.53-.58-.79-.88a.81.81,0,0,0-.09-.1,0,0,0,0,1,0,0q-1.42-1.62-2.7-3.36c-.19-.25-.38-.51-.56-.77L87,92c-.21-.32-.43-.64-.64-1s-.24-.38-.35-.58-.32-.49-.47-.74l-.59-1c-.21-.37-.43-.75-.63-1.13s-.42-.79-.63-1.19c0-.1-.09-.19-.13-.28-.14-.26-.27-.53-.4-.81l-.09-.17c-.15-.31-.29-.62-.43-.94v0c0-.1-.1-.2-.14-.3-.14-.3-.27-.61-.4-.93,0-.1-.09-.21-.14-.32s-.12-.28-.17-.42L81.69,82l-.3-.76c-.15-.39-.29-.78-.43-1.18-.09-.24-.17-.49-.25-.73s-.15-.43-.21-.64-.11-.32-.15-.47c-.11-.3-.2-.61-.28-.91,0-.14-.08-.27-.12-.41-.1-.31-.18-.61-.25-.91a3.89,3.89,0,0,1-.11-.43c-.08-.27-.15-.55-.21-.83s-.14-.58-.2-.87l-.09-.38c-.06-.31-.13-.62-.19-.93h0l0-.16L78.81,72c-.06-.27-.1-.55-.15-.83a5.25,5.25,0,0,1-.09-.55c0-.17-.06-.35-.08-.53,0,0,0,0,0,0s0-.22,0-.34l-.06-.44c0-.29-.08-.58-.11-.88s-.05-.46-.07-.68l-.06-.61c0-.24,0-.47-.06-.71L78,65.58c0-.11,0-.22,0-.33s0-.22,0-.33h0c0-.29,0-.58,0-.87a52.76,52.76,0,0,1,1.74-11c0-.12.06-.23.1-.35s0-.14.05-.21l.18-.64c.36-1.22.76-2.41,1.19-3.59l.16-.43c.38-1,.79-2,1.22-2.91a10.47,10.47,0,0,1,1-1.75c.39-.54.79-1.07,1.21-1.6.67-.88,1.39-1.74,2.13-2.57a53.28,53.28,0,0,1,5.23-5.18c.5-.42,1-.84,1.51-1.24A53.23,53.23,0,0,1,127,21c1.16,0,2.31,0,3.46.11a10.87,10.87,0,0,0,7.84-2.65,53.29,53.29,0,0,1,69.92,0,11,11,0,0,0,8.1,2.67c1.43-.12,2.88-.17,4.33-.17a53.09,53.09,0,0,1,38.66,16.61,52.2,52.2,0,0,1,4.18,5,49.34,49.34,0,0,1,7.29,23.84C270.76,67.09,270.78,67.83,270.78,68.57Z" transform="translate(-5.16)"/><circle class="cls-4" cx="177.3" cy="28.73" r="7.37"/><circle class="cls-4" cx="157.04" cy="28.73" r="7.37"/><path class="cls-1" d="M208.73,53.48c0,6.38-16.25,11.56-36.29,11.56s-36.29-5.18-36.29-11.56a4.09,4.09,0,0,1,.51-1.92c2.88,5.46,17.8,9.63,35.78,9.63s32.91-4.17,35.79-9.63A4.07,4.07,0,0,1,208.73,53.48Z" transform="translate(-5.16)"/><path class="cls-1" d="M100.32,244.79a101.58,101.58,0,0,1-15.71-25.2c-13.92-32.17-8.85-67.84,15.29-88.21a58.47,58.47,0,0,1,8.77-6.18,96.64,96.64,0,0,0-1.92,10.12c-3.77,28.27,4.59,60,25,86.75,1.3,1.73,2.66,3.42,4.07,5.09,1.08,1.27,2.16,2.5,3.26,3.71a130.25,130.25,0,0,0,25.29,21.61,116.84,116.84,0,0,0,40.72,16.84,63.34,63.34,0,0,1-7.2,3.89A67.83,67.83,0,0,1,167,279.14c-22.2-.78-45.47-11.35-63.32-30.55C102.53,247.36,101.42,246.1,100.32,244.79Z" transform="translate(-5.16)"/><path class="cls-5" d="M477.39,216.78c-.41,1.26-.83,2.52-1.26,3.76-.54,1.56-1.12,3.1-1.7,4.64a143.23,143.23,0,0,1-12.71,25.34,120.83,120.83,0,0,1-16.16,20.36c-1,1-2.09,2.06-3.17,3-.22.22-.44.42-.67.62-.55.39-1.11.76-1.66,1.12s-1.21.78-1.82,1.15a85.94,85.94,0,0,1-45.57,13.38l-1.95,0c-1.64,0-3.29-.13-4.93-.27l-1.31-.12c-2.15-.2-4.3-.51-6.43-.9l-1.58-.29c-.54-.11-1.05-.21-1.59-.34-1.23-.26-2.43-.57-3.64-.89l-1.32-.36-1.77-.53-1.3-.41c-.34-.1-.69-.22-1-.35s-.71-.23-1.05-.36l-.29-.1-1.42-.53-2.34-.92c-.51-.2-1.05-.43-1.56-.65l-1.76-.79-1.51-.71-1.95-1c-1.07-.55-2.14-1.1-3.2-1.7-.06,0-.13-.08-.2-.13-.57-.32-1.13-.63-1.68-1l-1.67-1c-.55-.35-1.1-.68-1.64-1l-1.63-1.08-.2-.12a17.44,17.44,0,0,0-12.87-3,15.75,15.75,0,0,0-3.11.84c-.22.08-.44.17-.67.24l-.17.06c-.7.27-1.4.51-2.11.74-1.68.57-3.39,1.1-5.11,1.55-.62.18-1.25.32-1.88.48l-.32.09-1.64.37-.91.18c-.68.14-1.37.28-2.05.4s-1.61.28-2.42.4-1.37.22-2,.28c-.94.12-1.88.23-2.83.31s-1.64.14-2.46.18-1.53.09-2.32.11-1.76.05-2.64.05a80.78,80.78,0,0,1-12.39-.94,85.13,85.13,0,0,1-9.64-2.05c-.64-.18-1.27-.36-1.91-.56s-1.26-.38-1.9-.59c-1.25-.41-2.51-.85-3.75-1.31-.16-.07-.31-.12-.46-.17a16.86,16.86,0,0,0-2.67-.68l-.12,0a17.59,17.59,0,0,0-12.71,3.06h0c-.46.31-.92.62-1.39.91s-.85.56-1.28.84L248,277.56l-1,.58c-.82.49-1.66.95-2.48,1.4l0,0c-.83.45-1.66.87-2.49,1.3l-1.36.68c-1.28.62-2.56,1.21-3.86,1.75-.94.4-1.89.8-2.87,1.17-1.55.61-3.11,1.16-4.7,1.68l-1.54.48c-2.07.63-4.17,1.17-6.28,1.62-.52.13-1,.23-1.55.34s-1,.2-1.53.28c-1.26.23-2.52.42-3.78.59-.42.08-.84.12-1.26.17s-1,.11-1.45.15-.91.09-1.36.12c-1.62.14-3.25.24-4.88.27l-2,0c-19.83,0-38.42-7.13-54.37-19.51a112.51,112.51,0,0,1-12.93-11.79c-.62-.66-1.24-1.34-1.85-2-1.64-1.82-3.22-3.7-4.78-5.66-1.06-1.3-2.1-2.67-3.12-4.05-.75-1-1.49-2.06-2.21-3.1-.54-.78-1.07-1.56-1.59-2.35-.07-.09-.12-.18-.19-.28a.07.07,0,0,1,0-.05q-2.86-4.32-5.44-9c-.39-.67-.76-1.36-1.14-2.06-.52-1-1-2-1.56-3-.44-.85-.86-1.71-1.29-2.57-.25-.52-.49-1-.72-1.55s-.64-1.31-1-2c-.4-.89-.8-1.8-1.18-2.68s-.86-2-1.27-3-.86-2.11-1.27-3.18l-.27-.74c-.28-.71-.54-1.43-.81-2.16-.07-.16-.11-.31-.17-.47-.3-.82-.6-1.65-.87-2.5l0-.07c-.11-.27-.19-.54-.27-.8-.28-.81-.56-1.64-.81-2.49a7.69,7.69,0,0,1-.28-.85c-.13-.37-.24-.76-.35-1.13l-.18-.58c-.21-.69-.41-1.36-.6-2-.3-1-.59-2.09-.88-3.14-.17-.66-.35-1.32-.5-2s-.3-1.14-.43-1.7-.22-.85-.3-1.28c-.22-.8-.39-1.61-.57-2.42-.09-.36-.16-.72-.24-1.1-.19-.81-.35-1.62-.51-2.43-.09-.39-.15-.76-.21-1.15-.16-.72-.29-1.45-.43-2.2s-.28-1.56-.4-2.33c-.07-.34-.13-.69-.18-1-.13-.83-.26-1.65-.38-2.48h0L98,175c0-.3-.09-.61-.13-.9-.12-.74-.2-1.49-.3-2.25-.07-.47-.14-1-.19-1.44L97.13,168c0-.39-.08-.77-.13-1.17-.06-.79-.15-1.57-.21-2.37-.07-.61-.11-1.21-.15-1.82s-.08-1.08-.11-1.61-.1-1.28-.13-1.91-.09-1.49-.13-2.25c0-.3,0-.6,0-.89s0-.59,0-.88v0c0-.79,0-1.58,0-2.35a184.5,184.5,0,0,1,2.22-22.23c0,.24,0,.48,0,.71v0c0,.27,0,.58,0,.85s0,.58,0,.87c0,.74.08,1.47.14,2.21s.08,1.24.13,1.87.06,1,.11,1.57.08,1.18.15,1.78c.06.77.15,1.54.22,2.32,0,.38.09.76.13,1.14.09.79.17,1.58.28,2.36,0,.47.12.94.19,1.41.09.74.18,1.48.31,2.19l.18,1.28v0c.09.59.19,1.17.29,1.76,0,.22.07.44.11.66s.1.62.17.92c0,0,0,0,0,.07l.15,1.43c0,.48.12,1,.19,1.45.1.76.18,1.5.3,2.24,0,.29.08.6.13.9l.06.41v0c.12.82.25,1.64.38,2.47,0,.33.11.68.18,1,.12.77.25,1.56.4,2.33s.27,1.48.43,2.2c.06.39.12.76.21,1.15.16.81.32,1.62.51,2.44.08.37.15.73.24,1.09.18.81.35,1.62.57,2.42.08.43.18.85.3,1.28s.27,1.13.43,1.7.33,1.3.5,2c.29,1.06.58,2.1.88,3.14.19.69.39,1.36.6,2l.18.58c.11.37.22.76.35,1.13a7.69,7.69,0,0,0,.28.85c.25.85.53,1.68.81,2.49.08.26.16.53.27.8l0,.08c.27.85.57,1.67.87,2.5.06.15.1.31.17.46.27.73.53,1.46.81,2.16l.27.74c.41,1.07.83,2.13,1.27,3.18s.84,2,1.27,3,.78,1.79,1.18,2.68c.31.67.62,1.34,1,2s.47,1,.72,1.55l1.29,2.58c.51,1,1,2,1.56,3,.38.7.75,1.39,1.14,2.06q2.57,4.65,5.44,9a.07.07,0,0,0,0,0c.07.1.12.19.19.28.52.79,1,1.58,1.59,2.35.72,1,1.46,2.07,2.21,3.11,1,1.37,2.06,2.74,3.12,4,1.56,2,3.15,3.84,4.78,5.66.61.67,1.23,1.35,1.85,2A112.51,112.51,0,0,0,153,256.22c15.95,12.38,34.54,19.51,54.37,19.51.65,0,1.31,0,1.95,0,1.63,0,3.26-.13,4.88-.27.45,0,.91-.06,1.36-.11s1-.11,1.45-.16.84-.09,1.26-.17c1.26-.16,2.52-.36,3.78-.59.51-.08,1-.18,1.53-.28s1-.21,1.55-.34c2.11-.45,4.21-1,6.28-1.62l1.54-.48c1.59-.51,3.15-1.07,4.7-1.67,1-.38,1.93-.78,2.87-1.18,1.3-.54,2.58-1.13,3.86-1.75l1.36-.68c.83-.43,1.66-.85,2.49-1.3,0,0,0,0,0,0,.82-.45,1.66-.91,2.48-1.4.33-.18.67-.37,1-.58l1.91-1.19,1.28-.83c.47-.3.93-.61,1.39-.92h0a17.53,17.53,0,0,1,12.71-3h.12a16.86,16.86,0,0,1,2.67.68c.15,0,.3.1.46.17,1.24.46,2.5.9,3.75,1.31l1.9.6,1.91.55a85.13,85.13,0,0,0,9.64,2.05,80.78,80.78,0,0,0,12.39.94c.88,0,1.78,0,2.64-.05s1.56,0,2.32-.11,1.65-.1,2.46-.18,1.89-.19,2.83-.31c.68-.06,1.37-.16,2-.28s1.61-.24,2.42-.4,1.37-.26,2.05-.4c.3-.05.61-.11.91-.18.55-.11,1.11-.26,1.64-.37l.32-.09c.63-.16,1.26-.3,1.88-.48,1.72-.45,3.43-1,5.12-1.54.7-.24,1.4-.48,2.1-.75l.17,0,.67-.25a15.75,15.75,0,0,1,3.11-.84,17.48,17.48,0,0,1,12.87,3l.2.12,1.63,1.08c.54.36,1.09.7,1.64,1l1.67,1c.55.33,1.11.64,1.68,1,.07.05.14.07.2.12,1.06.6,2.13,1.15,3.2,1.71l1.95,1,1.51.71,1.76.79,1.56.66c.77.31,1.56.62,2.34.91l1.42.53a2,2,0,0,0,.29.1c.34.13.7.25,1.05.36s.69.25,1,.35.86.29,1.3.41l1.77.53,1.32.36c1.21.33,2.41.63,3.64.89.54.13,1.05.23,1.59.34l1.58.29c2.13.39,4.28.7,6.43.91.44.05.88.09,1.31.11,1.64.14,3.29.25,4.93.27.65,0,1.31,0,1.95,0a85.94,85.94,0,0,0,45.57-13.38c.61-.37,1.21-.76,1.82-1.14s1.11-.74,1.66-1.13c.23-.2.45-.39.67-.61,1.08-1,2.13-2,3.17-3a120.83,120.83,0,0,0,16.16-20.36q2.34-3.67,4.45-7.56c.36-.49.71-1,1.05-1.46Q474.36,222.13,477.39,216.78Z" transform="translate(-5.16)"/><path class="cls-2" d="M496.54,169.19c0,2-.06,3.94-.19,5.9-.18,3.15-.53,6.26-1,9.32A97.22,97.22,0,0,1,485.1,215c-.59,1.11-1.21,2.22-1.84,3.3a101.46,101.46,0,0,1-13.21,17.86q-.53.57-1.08,1.14a101.7,101.7,0,0,1-14.1,12.39c-1.31.95-2.65,1.89-4,2.78-1.63,1.08-3.29,2.12-5,3.1-1.06.61-2.1,1.21-3.17,1.78,1.27-.83,2.53-1.71,3.76-2.6.24-.19.5-.36.74-.56s.78-.58,1.16-.87q.86-.65,1.68-1.32a103.81,103.81,0,0,0,18.63-19.25,99.38,99.38,0,0,0,8-12.64c.45-.84.89-1.68,1.31-2.53h0a98,98,0,0,0,10-37.45c0-.49.07-1,.08-1.47A97.4,97.4,0,0,0,482,149c-.91-2.42-1.9-4.8-3-7.14a100.58,100.58,0,0,0-19.81-28.28,107,107,0,0,0-75.48-31.49h-.93a108.21,108.21,0,0,0-13.8.87c-1.36.15-2.71.35-4,.58a106.93,106.93,0,0,0-73.61-31A109,109,0,0,0,265.91,56a107.08,107.08,0,0,0-17.77,6.33c-1.4.64-2.77,1.31-4.13,2A105.07,105.07,0,0,0,217.67,83.5c-1.34-.23-2.69-.43-4-.58-.67-.09-1.35-.17-2-.23l-.81-.09c-1.38-.14-2.77-.26-4.18-.35q-3.36-.19-6.79-.2h-.93A109.87,109.87,0,0,0,172,85.62,107,107,0,0,0,146.8,95.78c-1.62.91-3.22,1.85-4.79,2.84a104.73,104.73,0,0,0-18.6,14.93A100.29,100.29,0,0,0,100.6,149c-.65,1.74-1.25,3.51-1.81,5.29,0,0,0,0,0,0a97.19,97.19,0,0,0-2.72,11.07,95.75,95.75,0,0,0-1.52,13.32c0,.49,0,1,.08,1.47a96.55,96.55,0,0,0,2.46,16.67c.32,1.34.67,2.68,1,4s.77,2.64,1.21,4c-.3-.54-.57-1.09-.85-1.65-.07-.12-.12-.23-.18-.35-.32-.63-.62-1.25-.91-1.9-.12-.22-.22-.45-.31-.66-.3-.62-.59-1.25-.85-1.89-.12-.22-.2-.42-.3-.65s-.25-.57-.36-.86c-.06-.14-.13-.29-.19-.44-.22-.52-.43-1-.63-1.54-.32-.79-.62-1.59-.92-2.39-.18-.5-.36-1-.53-1.49s-.3-.86-.45-1.29-.22-.64-.31-1c-.23-.6-.41-1.22-.59-1.83-.1-.28-.18-.55-.26-.84-.19-.61-.37-1.23-.53-1.84-.09-.3-.16-.58-.22-.88-.17-.54-.31-1.1-.45-1.67s-.3-1.18-.42-1.77c0,0,0,0,0-.06-.07-.23-.12-.48-.17-.71l-.12-.51c-.1-.46-.2-.91-.29-1.37h0c-.07-.33-.13-.66-.19-1-.13-.55-.22-1.12-.32-1.7-.07-.36-.14-.73-.19-1.09-.11-.61-.2-1.22-.29-1.83,0-.3-.08-.59-.13-.89-.07-.6-.17-1.2-.23-1.8S88,168,88,167.52s-.09-.82-.12-1.22-.1-1-.13-1.45-.1-1.14-.14-1.71c0-.23,0-.45,0-.68s0-.45,0-.66v0c0-.18,0-.37,0-.55,0-.41,0-.83,0-1.23a103.1,103.1,0,0,1,3.16-20.33l.47-1.76s0-.1,0-.15c.31-.93.64-1.85,1-2.76q1.31-3.45,2.86-6.8c.15-.35.31-.69.48-1a96.52,96.52,0,0,1,7.26-12.69c1.19-1.78,2.44-3.51,3.75-5.21A100.84,100.84,0,0,1,115,99.58a107.18,107.18,0,0,1,76.41-31.49c2.46,0,4.89.08,7.31.24,3.56.23,7.08.63,10.53,1.2.45-.45.91-.9,1.38-1.34a107.21,107.21,0,0,1,74.53-29.67c2,0,4.1.06,6.12.18q3-.18,6.11-.18a107.19,107.19,0,0,1,74.53,29.67c.47.44.93.89,1.38,1.34,3.46-.57,7-1,10.53-1.2q3.63-.24,7.31-.24a107.16,107.16,0,0,1,76.41,31.49A101.2,101.2,0,0,1,481,116.39,98.16,98.16,0,0,1,490.36,135a96.84,96.84,0,0,1,6.07,29.72C496.5,166.2,496.54,167.68,496.54,169.19Z" transform="translate(-5.16)"/><path class="cls-1" d="M523.52,183.62a80.34,80.34,0,0,1-80.46,80.46,77.9,77.9,0,0,1-11.81-.87,103.34,103.34,0,0,0,49.51-82.31q.19-3,.19-6c0-1.54,0-3.06-.11-4.57a102.76,102.76,0,0,0-28.32-66.6,81,81,0,0,1,8.85,1.55,80.52,80.52,0,0,1,62,73.67C523.49,180.48,523.52,182,523.52,183.62Z" transform="translate(-5.16)"/><path class="cls-1" d="M383.87,68.29a80.34,80.34,0,0,1,43.8,105,77.48,77.48,0,0,1-5.29,10.59,103.34,103.34,0,0,0-57.29-77.09q-2.7-1.32-5.51-2.47c-1.42-.59-2.84-1.13-4.27-1.64a102.78,102.78,0,0,0-72.36.86,81.19,81.19,0,0,1,4.8-7.6,80.51,80.51,0,0,1,91.72-29.33C381,67.12,382.4,67.68,383.87,68.29Z" transform="translate(-5.16)"/><path class="cls-1" d="M200.15,50.53A101.14,101.14,0,0,1,230.74,45c36.82-.79,70.16,19.19,81.45,52.21a69.57,69.57,0,0,1,2.9,11.49,102.38,102.38,0,0,0-9.29-6.16C279.29,87,244.92,82.29,211.08,92q-3.27.92-6.51,2-2.46.85-4.85,1.78a129.38,129.38,0,0,0-30.55,16.74,119.93,119.93,0,0,0-31.47,34.41,71.6,71.6,0,0,1-1.21-8.94,76,76,0,0,1,5.44-33.92c8.86-22.26,27.78-41.53,53.23-51.7C196.8,51.7,198.45,51.11,200.15,50.53Z" transform="translate(-5.16)"/><path class="cls-6" d="M331.52,261.4a20.63,20.63,0,0,0-3.2.65l-.68.19-.18,0c-.72.21-1.44.4-2.16.58-1.73.44-3.49.85-5.25,1.2-.64.14-1.29.25-1.93.37l-.33.07-1.69.29-.93.14c-.7.11-1.41.22-2.11.31s-1.65.22-2.48.31-1.41.17-2.11.22c-1,.09-1.93.18-2.9.24s-1.69.11-2.53.14-1.57.07-2.38.08-1.81,0-2.72,0a109,109,0,0,1-12.72-.73c-3.35-.38-6.65-.92-9.9-1.59l-2-.43-1.95-.46c-1.29-.32-2.58-.66-3.86-1l-.47-.13a23.24,23.24,0,0,0-2.74-.53,20,20,0,0,1,3.14.52l.45.11q1.8.48,3.63.9c.61.14,1.22.29,1.83.41l1.84.38q4.59.89,9.32,1.4a112.75,112.75,0,0,0,12,.64c.85,0,1.72,0,2.56,0s1.5,0,2.24-.06l2.38-.12c.92-.06,1.82-.14,2.73-.22.66-.05,1.33-.11,2-.19s1.56-.17,2.33-.27l2-.28c.29,0,.58-.08.87-.13l1.59-.25.31-.06c.61-.1,1.21-.21,1.82-.33,1.66-.31,3.31-.67,4.94-1.06l2-.5.17,0,.15,0A23.63,23.63,0,0,1,331.52,261.4Z" transform="translate(-5.16)"/><path class="cls-7" d="M488.67,180.66q0,3-.19,6A102.75,102.75,0,0,1,485,208.16a.56.56,0,0,1,0,.12,100.68,100.68,0,0,1-3.72,11c-.63,1.57-1.29,3.12-2,4.65-.56,1.21-1.15,2.41-1.75,3.6A102,102,0,0,1,469,241.33c-1.44,2-3,4-4.57,5.86A103.89,103.89,0,0,1,447.8,263c-1.07.8-2.15,1.6-3.26,2.36-.22.17-.45.32-.68.48q-.86.45-1.71.87l-1.87.89A110,110,0,0,1,393.48,278l-2,0c-1.69,0-3.38-.1-5.07-.21l-1.34-.09c-2.21-.16-4.42-.4-6.6-.7l-1.63-.23c-.55-.08-1.08-.16-1.63-.26-1.26-.2-2.5-.44-3.74-.69l-1.35-.28-1.82-.41-1.34-.32c-.35-.08-.71-.17-1.06-.27l-1.07-.28-.3-.08-1.46-.41-2.4-.71-1.61-.51-1.8-.61-1.55-.55-2-.76c-1.1-.43-2.19-.86-3.28-1.32-.06,0-.14-.06-.21-.1-.58-.25-1.16-.49-1.72-.75l-1.72-.78c-.56-.27-1.13-.53-1.68-.81l-1.68-.84-.2-.09A22.6,22.6,0,0,0,330,263.54a20.63,20.63,0,0,0-3.2.65l-.68.19-.18,0c-.72.21-1.44.4-2.16.58-1.73.44-3.49.85-5.25,1.2-.64.14-1.29.25-1.93.37l-.33.07-1.69.29-.93.14c-.7.11-1.41.22-2.11.31s-1.65.22-2.48.31-1.41.17-2.11.22c-1,.09-1.93.18-2.9.24s-1.69.11-2.53.14-1.57.07-2.38.08-1.81,0-2.72,0a109,109,0,0,1-12.72-.73c-3.35-.38-6.65-.92-9.9-1.59l-2-.43-1.95-.46c-1.29-.32-2.58-.66-3.86-1l-.47-.13a23.24,23.24,0,0,0-2.74-.53h-.12a22.74,22.74,0,0,0-13.06,2.37h0l-1.42.71-1.32.65-2,.92-1,.45c-.84.38-1.7.74-2.55,1.09h0c-.85.35-1.7.68-2.55,1l-1.4.53c-1.31.48-2.63.94-4,1.36-1,.31-1.95.62-2.95.91q-2.38.71-4.83,1.3l-1.58.37q-3.19.74-6.45,1.26c-.53.1-1.06.18-1.59.26s-1.05.16-1.57.22c-1.3.18-2.59.33-3.89.46-.43.06-.86.09-1.29.13s-1,.09-1.49.12-.93.07-1.4.09c-1.66.11-3.33.19-5,.21l-2,0a110.3,110.3,0,0,1-69.12-24.29c-.64-.51-1.27-1-1.9-1.56-1.68-1.41-3.31-2.87-4.91-4.39-1.09-1-2.16-2.07-3.2-3.14-.77-.8-1.53-1.6-2.27-2.41-.56-.6-1.1-1.21-1.64-1.82-.07-.07-.12-.14-.19-.22a.05.05,0,0,1,0,0q-2.94-3.34-5.59-6.95c-.4-.52-.78-1.06-1.17-1.6-.54-.76-1.08-1.53-1.6-2.31s-.89-1.33-1.33-2c-.25-.4-.5-.79-.74-1.2s-.65-1-1-1.54l-1.22-2.08c-.44-.77-.88-1.55-1.3-2.34s-.88-1.64-1.3-2.47c-.1-.19-.19-.38-.28-.57-.29-.55-.56-1.11-.83-1.68-.07-.12-.12-.24-.18-.36-.31-.64-.61-1.28-.89-1.94l0-.06a6.64,6.64,0,0,1-.28-.62c-.29-.63-.57-1.27-.83-1.93a5.51,5.51,0,0,1-.29-.66c-.13-.29-.25-.59-.36-.88l-.18-.45c-.22-.53-.42-1.05-.62-1.58-.31-.81-.61-1.62-.9-2.44-.18-.51-.36-1-.52-1.52s-.3-.88-.44-1.32-.22-.66-.31-1c-.22-.62-.4-1.25-.58-1.88-.09-.28-.17-.56-.25-.85-.19-.63-.36-1.26-.52-1.89-.09-.3-.16-.59-.22-.89-.16-.56-.3-1.13-.44-1.71s-.29-1.21-.41-1.81c-.07-.26-.13-.53-.18-.79-.14-.64-.27-1.28-.4-1.92h0l-.06-.32c0-.23-.09-.47-.13-.7-.12-.57-.21-1.15-.31-1.74-.07-.37-.14-.75-.19-1.12s-.11-.74-.16-1.11c0,0,0,0,0-.06,0-.23-.08-.46-.11-.7s-.08-.6-.13-.91c-.07-.61-.16-1.22-.22-1.84s-.11-.94-.15-1.41-.09-.84-.12-1.25-.1-1-.13-1.48-.09-1.16-.13-1.75c0-.23,0-.46,0-.69l0-.68v0c0-.61,0-1.22,0-1.82a109.68,109.68,0,0,1,3.6-22.73c.06-.24.13-.48.2-.72l.12-.44c.12-.44.24-.89.37-1.33q1.11-3.78,2.47-7.44l.33-.9q1.19-3.06,2.52-6a22.15,22.15,0,0,1,2.1-3.62c.81-1.12,1.63-2.23,2.5-3.32,1.4-1.82,2.88-3.6,4.42-5.33a108.92,108.92,0,0,1,10.85-10.74c1-.87,2.06-1.74,3.12-2.57A110.32,110.32,0,0,1,190.52,82c2.41,0,4.8.07,7.18.23a22.55,22.55,0,0,0,16.24-5.49,110.49,110.49,0,0,1,144.94.09,22.75,22.75,0,0,0,16.79,5.53c3-.25,6-.36,9-.36a111,111,0,0,1,88.8,44.72,102.5,102.5,0,0,1,15.1,49.41C488.63,177.6,488.67,179.12,488.67,180.66Z" transform="translate(-5.16)"/><circle class="cls-4" cx="312.99" cy="128.83" r="19.23"/><circle class="cls-4" cx="260.12" cy="128.83" r="19.23"/><path class="cls-1" d="M386.73,193.43c0,16.66-42.4,30.16-94.71,30.16s-94.7-13.5-94.7-30.16a10.63,10.63,0,0,1,1.31-5c7.52,14.27,46.47,25.14,93.39,25.14s85.87-10.87,93.4-25.14A10.75,10.75,0,0,1,386.73,193.43Z" transform="translate(-5.16)"/><path class="cls-1" d="M16.43,227.79a48.82,48.82,0,0,1-7.58-12.16c-6.72-15.51-4.27-32.72,7.37-42.55a29,29,0,0,1,4.24-3,46.19,46.19,0,0,0-.93,4.88c-1.82,13.64,2.21,29,12.08,41.85.63.83,1.29,1.65,2,2.46.52.61,1,1.2,1.58,1.79a62.7,62.7,0,0,0,12.2,10.42A56.4,56.4,0,0,0,67,239.63a29.79,29.79,0,0,1-3.47,1.87,32.61,32.61,0,0,1-14.92,2.86c-10.71-.37-21.94-5.47-30.55-14.73C17.49,229,17,228.43,16.43,227.79Z" transform="translate(-5.16)"/><path class="cls-2" d="M207.57,191.32c0,1,0,1.9-.09,2.85-.09,1.52-.26,3-.49,4.49a46.81,46.81,0,0,1-4.94,14.77c-.28.54-.58,1.08-.89,1.6a48.27,48.27,0,0,1-6.37,8.61c-.17.19-.34.37-.52.55a48.52,48.52,0,0,1-6.8,6c-.63.46-1.28.91-1.94,1.34s-1.59,1-2.4,1.5c-.52.29-1,.58-1.53.85.61-.4,1.22-.82,1.81-1.25l.36-.27c.19-.13.37-.28.56-.42l.81-.64a50.3,50.3,0,0,0,9-9.28,47.09,47.09,0,0,0,3.85-6.1l.64-1.22h0a47,47,0,0,0,2.77-6.95,46.49,46.49,0,0,0,2-11.11c0-.24,0-.48,0-.71a46.2,46.2,0,0,0-1-7.49,45.13,45.13,0,0,0-2-6.84c-.44-1.17-.91-2.32-1.45-3.45a48.51,48.51,0,0,0-9.55-13.64,51.61,51.61,0,0,0-36.42-15.19h-.44a52.11,52.11,0,0,0-6.66.42c-.66.07-1.31.17-1.95.28A51.57,51.57,0,0,0,108.55,135a52.38,52.38,0,0,0-12.24,1.69,51,51,0,0,0-8.57,3.05c-.68.31-1.34.63-2,1A50.67,50.67,0,0,0,73,150c-.65-.11-1.3-.21-2-.28l-1-.11-.39,0c-.67-.07-1.34-.13-2-.17-1.08-.06-2.17-.1-3.27-.1H64A53.34,53.34,0,0,0,51,151a51.49,51.49,0,0,0-12.14,4.91c-.78.44-1.55.89-2.31,1.37a49.7,49.7,0,0,0-9,7.2,48.35,48.35,0,0,0-11,17.09q-.46,1.26-.87,2.55h0a47.28,47.28,0,0,0-1.31,5.34,45.34,45.34,0,0,0-.73,6.43c0,.23,0,.47,0,.71a47.36,47.36,0,0,0,1.18,8c.16.65.33,1.29.51,1.93s.37,1.27.58,1.91c-.15-.26-.28-.53-.41-.8l-.09-.17c-.15-.3-.3-.6-.44-.91l-.15-.32c-.14-.3-.28-.6-.41-.91l-.14-.32c-.06-.13-.12-.27-.17-.41l-.1-.21-.3-.75c-.15-.38-.3-.76-.44-1.15-.09-.24-.18-.48-.26-.72s-.14-.41-.22-.62l-.15-.47c-.11-.29-.19-.59-.28-.88-.05-.14-.09-.27-.13-.41s-.18-.59-.25-.88a3.39,3.39,0,0,1-.11-.43c-.08-.26-.15-.53-.22-.8s-.14-.57-.2-.86v0a2.09,2.09,0,0,1-.08-.34l-.06-.24c-.05-.23-.1-.44-.14-.67h0a4,4,0,0,1-.09-.48c-.07-.27-.11-.54-.16-.82s-.07-.36-.09-.53-.1-.59-.14-.88l-.06-.43c0-.29-.09-.58-.11-.87s-.06-.44-.08-.67,0-.39-.05-.58-.05-.47-.07-.7,0-.55-.06-.83c0-.11,0-.22,0-.33s0-.21,0-.31h0v-.27c0-.2,0-.4,0-.59a49.44,49.44,0,0,1,1.53-9.81c.07-.29.15-.57.22-.85a.19.19,0,0,0,0-.07c.15-.45.31-.89.47-1.33.42-1.11.88-2.21,1.38-3.28.08-.17.15-.34.24-.5a46.29,46.29,0,0,1,3.5-6.12c.57-.86,1.18-1.7,1.81-2.52a48.71,48.71,0,0,1,4.08-4.67,51.7,51.7,0,0,1,36.86-15.19c1.19,0,2.36,0,3.53.11,1.71.11,3.41.31,5.08.58l.66-.64a51.72,51.72,0,0,1,36-14.32c1,0,2,0,3,.09s2-.09,3-.09a51.69,51.69,0,0,1,35.95,14.32l.67.64c1.67-.27,3.36-.47,5.08-.58,1.16-.07,2.34-.11,3.52-.11a51.69,51.69,0,0,1,36.86,15.19,48.74,48.74,0,0,1,6.51,8.11,47.13,47.13,0,0,1,4.5,9,46.58,46.58,0,0,1,2.93,14.33C207.55,189.88,207.57,190.59,207.57,191.32Z" transform="translate(-5.16)"/><path class="cls-1" d="M210.59,198.29a38.76,38.76,0,0,1-38.82,38.81,36.82,36.82,0,0,1-5.69-.42,51.5,51.5,0,0,0,4.26-2.9A49.79,49.79,0,0,0,190,197q.09-1.44.09-2.91c0-.74,0-1.47-.05-2.2a49.56,49.56,0,0,0-13.66-32.13,37.72,37.72,0,0,1,4.27.75A38.84,38.84,0,0,1,210.53,196C210.57,196.77,210.59,197.52,210.59,198.29Z" transform="translate(-5.16)"/><path class="cls-3" d="M203.77,196.85q0,1.47-.09,2.91a49.17,49.17,0,0,1-1.7,10.36.14.14,0,0,1,0,.06,47.83,47.83,0,0,1-1.79,5.3c-.3.76-.62,1.5-1,2.24q-.4.89-.84,1.74a49.73,49.73,0,0,1-4.09,6.66c-.69,1-1.43,1.91-2.2,2.83a50.24,50.24,0,0,1-8,7.62c-.52.39-1,.77-1.58,1.14l-.32.23c-.28.15-.55.29-.83.42l-.9.43a53.13,53.13,0,0,1-22.58,5h-1c-.82,0-1.63,0-2.45-.1l-.64-.05c-1.07-.07-2.14-.19-3.19-.33l-.79-.12q-.39,0-.78-.12c-.61-.1-1.21-.21-1.81-.33l-.65-.14-.88-.2-.64-.15-.51-.13L144,242l-.14,0-.71-.2L142,241.4l-.77-.24-.87-.3-.75-.26-1-.37c-.53-.2-1-.41-1.58-.63l-.1,0-.83-.36-.83-.38-.81-.39-.81-.41-.1,0a10.89,10.89,0,0,0-6.38-1.13,10.25,10.25,0,0,0-1.54.31l-.33.09-.09,0-1,.28c-.83.21-1.68.41-2.53.58l-.93.18-.16,0-.82.14-.44.07c-.34.05-.68.11-1,.15s-.8.11-1.2.15-.68.08-1,.1-.93.09-1.4.12l-1.22.07-1.14,0-1.32,0a51.75,51.75,0,0,1-6.13-.36c-1.62-.18-3.21-.44-4.78-.76l-.94-.21-.94-.22-1.87-.49-.22-.07a10,10,0,0,0-1.33-.25h0a11,11,0,0,0-6.3,1.15h0l-.69.34-.64.32-.94.44-.5.22-1.23.52h0l-1.23.49-.68.25c-.63.23-1.27.45-1.91.66l-1.42.44c-.77.22-1.54.43-2.33.62l-.76.18c-1,.24-2.07.44-3.12.61-.25.05-.51.09-.76.12l-.76.11c-.63.09-1.25.16-1.88.22l-.62.07-.72,0-.67.05c-.8.05-1.61.09-2.42.1h-1a53,53,0,0,1-26.94-7.31,52.38,52.38,0,0,1-6.41-4.41l-.92-.75c-.81-.68-1.59-1.39-2.36-2.12-.53-.49-1.05-1-1.55-1.52s-.74-.77-1.09-1.16-.53-.58-.79-.88l-.1-.1v0q-1.43-1.62-2.7-3.35l-.56-.78c-.26-.36-.52-.73-.77-1.11l-.65-1c-.12-.19-.24-.38-.35-.57s-.32-.5-.47-.75l-.59-1-.63-1.13c-.21-.39-.42-.79-.62-1.19l-.14-.28c-.14-.26-.27-.53-.4-.81l-.09-.17c-.14-.31-.29-.62-.42-.94l0,0c0-.11-.1-.21-.13-.3-.14-.31-.28-.62-.4-.94a1.73,1.73,0,0,1-.14-.31c-.07-.14-.12-.29-.18-.43l-.08-.22c-.11-.25-.21-.5-.3-.76s-.3-.78-.44-1.17-.17-.5-.25-.74-.14-.42-.21-.63a4.42,4.42,0,0,1-.15-.48c-.11-.3-.19-.61-.28-.91l-.12-.41c-.09-.3-.17-.61-.25-.91a3.89,3.89,0,0,1-.11-.43c-.08-.27-.14-.55-.21-.83s-.14-.58-.2-.87l-.09-.38c-.06-.31-.13-.62-.19-.93h0l0-.15-.06-.34c-.06-.28-.1-.56-.15-.84s-.07-.36-.09-.54-.05-.36-.08-.54v0l-.06-.33c0-.15,0-.29-.06-.44s-.08-.59-.1-.89-.06-.45-.08-.68,0-.41-.06-.6l-.06-.72-.06-.84c0-.11,0-.22,0-.34s0-.22,0-.32h0a8.58,8.58,0,0,1,0-.88,52.86,52.86,0,0,1,1.73-11c0-.11.06-.23.1-.34l.06-.22c.05-.21.11-.43.17-.64.36-1.21.76-2.41,1.2-3.59l.16-.43c.38-1,.78-1.95,1.21-2.91a10.89,10.89,0,0,1,1-1.75c.4-.54.79-1.07,1.21-1.6.68-.88,1.39-1.73,2.13-2.57a52.3,52.3,0,0,1,5.24-5.18c.49-.42,1-.84,1.5-1.24a53,53,0,0,1,24-10.83,52.48,52.48,0,0,1,9.27-.81c1.16,0,2.32,0,3.46.11a10.87,10.87,0,0,0,7.84-2.65,53.32,53.32,0,0,1,69.92,0,11,11,0,0,0,8.1,2.67c1.43-.12,2.88-.17,4.34-.17a53.1,53.1,0,0,1,38.65,16.61,53.83,53.83,0,0,1,4.19,5,49.5,49.5,0,0,1,7.28,23.84C203.75,195.38,203.77,196.11,203.77,196.85Z" transform="translate(-5.16)"/><circle class="cls-4" cx="115.91" cy="171.83" r="8.61"/><circle class="cls-4" cx="92.24" cy="171.83" r="8.61"/><path class="cls-1" d="M151.75,200.74c0,7.45-17.43,22.11-40.84,22.11S67,208.19,67,200.74a4.73,4.73,0,0,1,.59-2.25c3.36,6.38,22.33,18.16,43.33,18.16s36.89-11.78,40.25-18.16A4.73,4.73,0,0,1,151.75,200.74Z" transform="translate(-5.16)"/><path class="cls-1" d="M374.92,201.19A49,49,0,0,1,367.34,189c-6.71-15.52-4.27-32.73,7.38-42.55a27.65,27.65,0,0,1,4.23-3,46.19,46.19,0,0,0-.93,4.88c-1.82,13.63,2.22,29,12.08,41.85.63.83,1.29,1.65,2,2.45.51.62,1,1.21,1.57,1.79a62.76,62.76,0,0,0,12.2,10.43A56.37,56.37,0,0,0,425.48,213,31.45,31.45,0,0,1,422,214.9a32.75,32.75,0,0,1-14.92,2.86c-10.71-.38-21.94-5.48-30.55-14.74C376,202.43,375.45,201.82,374.92,201.19Z" transform="translate(-5.16)"/><path class="cls-2" d="M566.06,164.72c0,.95,0,1.9-.09,2.84-.09,1.52-.26,3-.49,4.5a47,47,0,0,1-4.94,14.77c-.28.54-.58,1.07-.89,1.59a45.8,45.8,0,0,1-3.16,4.77,47.09,47.09,0,0,1-3.21,3.85l-.52.55a48.46,48.46,0,0,1-6.8,6c-.63.46-1.28.92-1.94,1.35s-1.59,1-2.4,1.49c-.51.3-1,.59-1.53.86.61-.4,1.22-.82,1.81-1.25l.36-.27.56-.42.81-.64a50,50,0,0,0,9-9.29,48.87,48.87,0,0,0,3.86-6.09c.21-.41.43-.82.63-1.23h0a47.36,47.36,0,0,0,4.8-18.07c0-.23,0-.47,0-.71a46.08,46.08,0,0,0-.94-7.48,46.82,46.82,0,0,0-2-6.85c-.44-1.17-.91-2.31-1.44-3.44A48.45,48.45,0,0,0,548,137.87a51.69,51.69,0,0,0-36.41-15.19h-.45a52.23,52.23,0,0,0-6.66.42c-.66.07-1.31.17-1.95.28A51.57,51.57,0,0,0,467,108.44a52.29,52.29,0,0,0-20.81,4.73c-.68.31-1.34.64-2,1a50.85,50.85,0,0,0-12.71,9.24c-.65-.11-1.3-.21-1.95-.28-.32,0-.65-.08-1-.11l-.39,0-2-.17q-1.62-.09-3.27-.09h-.45a52.86,52.86,0,0,0-13,1.72,51.63,51.63,0,0,0-12.14,4.9c-.78.44-1.55.89-2.31,1.37a50.58,50.58,0,0,0-9,7.2,48.57,48.57,0,0,0-11,17.09q-.46,1.26-.87,2.55s0,0,0,0a46.36,46.36,0,0,0-2.05,11.76c0,.24,0,.48,0,.71a46.5,46.5,0,0,0,1.19,8.05c.15.64.32,1.29.5,1.92s.37,1.28.58,1.92l-.41-.8-.09-.17c-.15-.3-.3-.6-.44-.92-.05-.1-.1-.21-.14-.31-.15-.3-.29-.61-.42-.92-.05-.1-.09-.2-.14-.31l-.17-.41c0-.07-.07-.14-.1-.22l-.3-.74c-.15-.38-.3-.77-.44-1.15l-.26-.72c-.08-.21-.14-.42-.22-.62l-.15-.47c-.11-.29-.19-.59-.28-.88-.05-.14-.09-.27-.13-.41-.09-.29-.17-.59-.25-.89,0-.14-.08-.28-.11-.42s-.15-.53-.21-.81-.15-.57-.21-.85v0a2.09,2.09,0,0,1-.08-.34l-.06-.25c-.05-.22-.1-.44-.14-.66h0c0-.15-.06-.31-.09-.48s-.11-.54-.16-.82l-.09-.52c-.05-.3-.1-.59-.14-.89l-.06-.43c0-.29-.08-.57-.11-.86s-.06-.45-.08-.67,0-.4,0-.59-.05-.47-.07-.7l-.06-.82c0-.11,0-.22,0-.33s0-.22,0-.32h0v-.26c0-.2,0-.4,0-.6a50.3,50.3,0,0,1,1.53-9.81c.07-.28.15-.56.22-.84a.24.24,0,0,0,0-.08c.15-.45.31-.89.48-1.33.42-1.11.87-2.2,1.38-3.28.07-.17.15-.33.23-.5a46.94,46.94,0,0,1,3.5-6.12c.57-.86,1.18-1.69,1.81-2.51a48.83,48.83,0,0,1,4.08-4.68,51.72,51.72,0,0,1,36.86-15.19c1.19,0,2.36,0,3.53.12a50,50,0,0,1,5.08.58c.21-.22.44-.44.66-.65a51.73,51.73,0,0,1,36-14.31c1,0,2,0,3,.09s2-.09,2.95-.09A51.68,51.68,0,0,1,505.94,116c.23.21.45.43.67.65a50.28,50.28,0,0,1,5.08-.58c1.17-.08,2.34-.12,3.52-.12a51.73,51.73,0,0,1,36.87,15.19,49.61,49.61,0,0,1,6.5,8.11,47.43,47.43,0,0,1,4.5,9A46.64,46.64,0,0,1,566,162.56C566,163.27,566.06,164,566.06,164.72Z" transform="translate(-5.16)"/><path class="cls-1" d="M569.08,171.68a38.77,38.77,0,0,1-38.81,38.82,38.14,38.14,0,0,1-5.7-.42,51.5,51.5,0,0,0,4.26-2.9,49.81,49.81,0,0,0,19.62-36.81c.07-1,.09-1.94.09-2.91,0-.74,0-1.48,0-2.2a49.56,49.56,0,0,0-13.66-32.13,40.07,40.07,0,0,1,4.27.74A38.87,38.87,0,0,1,569,169.41C569.07,170.17,569.08,170.91,569.08,171.68Z" transform="translate(-5.16)"/><path class="cls-3" d="M562.26,170.25c0,1,0,1.94-.09,2.91a49.92,49.92,0,0,1-1.69,10.36s0,0,0,0a48.76,48.76,0,0,1-1.8,5.31c-.3.75-.62,1.5-1,2.24-.27.58-.56,1.16-.85,1.74a48.34,48.34,0,0,1-4.09,6.66c-.69,1-1.43,1.91-2.2,2.82a50.3,50.3,0,0,1-8,7.63c-.52.38-1,.77-1.57,1.14l-.33.23-.83.42-.9.43a53.09,53.09,0,0,1-22.58,5h-1c-.82,0-1.63,0-2.45-.1l-.64,0c-1.07-.08-2.14-.19-3.19-.34l-.78-.11-.79-.13c-.61-.09-1.21-.21-1.8-.33l-.66-.13-.87-.2-.65-.16a4.77,4.77,0,0,1-.51-.13l-.52-.13-.14,0-.71-.2-1.15-.34-.78-.25-.87-.29-.75-.27-1-.36-1.58-.64-.1-.05c-.28-.12-.56-.23-.83-.36l-.83-.37c-.27-.14-.55-.26-.81-.4l-.81-.4-.1,0a10.89,10.89,0,0,0-6.38-1.14,9.16,9.16,0,0,0-1.54.32c-.11,0-.22.06-.33.09l-.08,0-1.05.28c-.83.21-1.68.41-2.53.58l-.93.17-.16,0-.81.14-.45.06-1,.15-1.2.15c-.33.05-.68.09-1,.11l-1.4.12-1.22.06c-.38,0-.76,0-1.15,0s-.88,0-1.31,0a51.8,51.8,0,0,1-6.14-.35c-1.62-.18-3.21-.44-4.78-.77-.32-.07-.63-.13-.94-.21l-.94-.22c-.63-.15-1.25-.32-1.87-.49l-.22-.06a12.31,12.31,0,0,0-1.32-.26h-.06a11,11,0,0,0-6.3,1.14h0l-.69.34-.63.31-.95.45-.5.21c-.41.19-.82.36-1.23.53h0l-1.23.49L441,214c-.63.23-1.27.45-1.91.65l-1.42.44c-.77.23-1.54.44-2.33.63l-.76.18c-1,.23-2.07.44-3.11.6l-.77.13-.76.11c-.63.08-1.25.16-1.87.22l-.63.06-.72.06-.67,0c-.8.06-1.61.09-2.42.1h-1a53.3,53.3,0,0,1-33.35-11.71l-.91-.76c-.81-.68-1.6-1.38-2.37-2.12-.53-.48-1-1-1.55-1.51l-1.09-1.16c-.27-.29-.53-.59-.79-.88a.48.48,0,0,1-.09-.11,0,0,0,0,1,0,0c-.94-1.07-1.85-2.19-2.7-3.35-.19-.25-.37-.51-.56-.77l-.77-1.11c-.22-.32-.43-.65-.64-1l-.36-.58c-.16-.24-.31-.49-.47-.74s-.39-.67-.59-1-.42-.74-.62-1.12-.43-.8-.63-1.2l-.14-.27c-.14-.27-.27-.54-.4-.81,0-.06-.05-.12-.08-.17-.15-.31-.3-.62-.43-.94l0,0c-.05-.1-.09-.2-.13-.3-.14-.3-.28-.61-.4-.93a2.22,2.22,0,0,1-.14-.32c-.07-.14-.12-.28-.18-.42l-.08-.22c-.11-.26-.21-.51-.3-.76s-.3-.78-.44-1.18l-.25-.73-.21-.64a4.42,4.42,0,0,1-.15-.48c-.11-.3-.19-.6-.28-.9l-.12-.41c-.09-.31-.17-.61-.25-.92,0-.14-.08-.28-.11-.42l-.21-.83c-.07-.29-.14-.58-.2-.87,0-.13-.06-.26-.08-.38-.07-.31-.13-.62-.2-.93h0l0-.16-.06-.34c-.06-.27-.1-.55-.15-.84s-.07-.36-.09-.54-.05-.35-.08-.53v0c0-.11,0-.22-.05-.34s0-.29-.07-.44-.07-.59-.1-.89-.06-.45-.08-.68,0-.4-.05-.6-.05-.48-.07-.71l-.06-.85c0-.11,0-.22,0-.33s0-.22,0-.33h0a8.61,8.61,0,0,1,0-.88,52.77,52.77,0,0,1,1.73-11c0-.12.07-.23.1-.35l.06-.21c.06-.21.11-.43.18-.64.35-1.22.75-2.41,1.19-3.59l.16-.44c.38-1,.78-2,1.21-2.9a10.52,10.52,0,0,1,1-1.75c.39-.54.78-1.08,1.2-1.6.68-.88,1.39-1.74,2.13-2.57a52.29,52.29,0,0,1,5.24-5.18c.49-.42,1-.84,1.5-1.24a53.39,53.39,0,0,1,33.24-11.65c1.16,0,2.32,0,3.47.12a11,11,0,0,0,7.83-2.65,53.29,53.29,0,0,1,69.92,0,11,11,0,0,0,8.1,2.67c1.43-.12,2.88-.18,4.34-.18a53.1,53.1,0,0,1,38.65,16.61,53.71,53.71,0,0,1,4.19,5A49.51,49.51,0,0,1,562.21,168C562.25,168.77,562.26,169.51,562.26,170.25Z" transform="translate(-5.16)"/><circle class="cls-4" cx="474.4" cy="145.22" r="8.61"/><circle class="cls-4" cx="450.73" cy="145.22" r="8.61"/><path class="cls-1" d="M510.24,174.13c0,7.46-17.43,22.11-40.84,22.11s-43.92-14.65-43.92-22.11a4.79,4.79,0,0,1,.59-2.25c3.36,6.39,22.33,18.17,43.33,18.17s36.89-11.78,40.26-18.17A4.89,4.89,0,0,1,510.24,174.13Z" transform="translate(-5.16)"/></g></g></svg>