<svg xmlns="http://www.w3.org/2000/svg" viewBox="0 0 401.61 506.65"><defs><style>.cls-1{fill:#575756;}.cls-2{fill:#dcdb00;}.cls-3{fill:#c5d322;}.cls-4{fill:#5a5a59;}.cls-5{fill:#c6c6c6;}.cls-6{fill:#634092;}.cls-7{fill:#6b4a98;}.cls-8{fill:#9d9d9c;}</style></defs><g id="Layer_2" data-name="Layer 2"><g id="Layer_1-2" data-name="Layer 1"><path class="cls-1" d="M206.71,246.77c-14.2,50.28.29,103,21.86,149,9.56,21.44,23.25,42.17,26.14,66.43,1.76,15.14-.2,34.52-14.32,43.43a13.25,13.25,0,0,1-9.31,1.71l0-1c8.3-1.51,11.86-10.62,13-18.06,2.83-25.65-11.19-47.46-22.37-69.9-5.21-10.6-10.17-21.41-14.43-32.56-14.91-38.73-22.26-83-8.57-123.11a104.74,104.74,0,0,1,7-16.3l.93.37Z" transform="translate(-0.78 -0.92)"/><path class="cls-2" d="M117.57,264.81c23.6-23.6,48.91-40.37,69.27-47.37-1.56,22-20.74,55.35-51.28,85.89-23.45,23.45-48.58,40.2-68.94,47.42C67.84,328.94,87,295.43,117.57,264.81Z" transform="translate(-0.78 -0.92)"/><path class="cls-2" d="M160.37,298.37c8.64-32.24,22.17-59.42,36.3-75.66,9.63,19.8,9.71,58.3-1.46,100-8.59,32-22,59.11-36,75.54C149.36,378.77,149.16,340.19,160.37,298.37Z" transform="translate(-0.78 -0.92)"/><path class="cls-2" d="M214.21,306c-8.64-32.24-10.51-62.54-6.39-83.67,18.23,12.33,37.56,45.63,48.74,87.35,8.58,32,10.53,62.18,6.6,83.41C244.88,381.16,225.42,347.86,214.21,306Z" transform="translate(-0.78 -0.92)"/><path class="cls-2" d="M264.67,285.74c-23.61-23.6-40.37-48.91-47.37-69.26,21.95,1.56,55.35,20.74,85.88,51.27,23.46,23.46,40.21,48.59,47.42,68.95C328.79,335.48,295.29,316.36,264.67,285.74Z" transform="translate(-0.78 -0.92)"/><path class="cls-2" d="M298.22,243c-32.24-8.64-59.41-22.18-75.65-36.3,19.79-9.63,58.3-9.72,100,1.46,32,8.58,59.11,22,75.54,36C378.62,254,340.05,254.15,298.22,243Z" transform="translate(-0.78 -0.92)"/><path class="cls-3" d="M305.59,216.53c-33.37,0-63.12-6-82.47-15.48,16.63-14.43,53.8-24.47,97-24.47,33.17,0,62.78,5.92,82.28,15.21C386.11,206.35,348.9,216.53,305.59,216.53Z" transform="translate(-0.78 -0.92)"/><path class="cls-3" d="M299.06,162.54c-28.9,16.69-57.69,26.34-79.16,27.83,7.19-20.8,34.35-48.09,71.75-69.69,28.73-16.58,57.34-26.26,78.87-28C363.7,113.47,336.56,140.89,299.06,162.54Z" transform="translate(-0.78 -0.92)"/><path class="cls-3" d="M266.41,119.06c-16.69,28.9-36.8,51.65-54.64,63.68-4.18-21.62,5.7-58.83,27.29-96.23,16.59-28.73,36.53-51.41,54.32-63.65C297.85,44.24,288.06,81.55,266.41,119.06Z" transform="translate(-0.78 -0.92)"/><path class="cls-3" d="M216.39,97.72c0,33.38-6,63.13-15.48,82.47-14.43-16.63-24.48-53.8-24.48-97,0-33.17,5.93-62.79,15.22-82.29C206.21,17.21,216.39,54.42,216.39,97.72Z" transform="translate(-0.78 -0.92)"/><path class="cls-3" d="M162.4,104.26c16.69,28.9,26.33,57.69,27.83,79.16-20.81-7.19-48.1-34.36-69.69-71.76C104,82.94,94.28,54.33,92.58,32.8,113.33,39.62,140.75,66.75,162.4,104.26Z" transform="translate(-0.78 -0.92)"/><path class="cls-3" d="M118.91,136.91c28.91,16.69,51.65,36.79,63.68,54.64-21.61,4.18-58.83-5.7-96.23-27.3C57.64,147.67,35,127.73,22.71,109.93,44.1,105.47,81.41,115.26,118.91,136.91Z" transform="translate(-0.78 -0.92)"/><path class="cls-3" d="M97.58,186.93c33.37,0,63.12,6,82.47,15.48-16.63,14.43-53.8,24.48-97,24.48-33.17,0-62.78-5.93-82.28-15.22C17.06,197.11,54.27,186.93,97.58,186.93Z" transform="translate(-0.78 -0.92)"/><path class="cls-3" d="M104.11,240.92c28.91-16.69,57.69-26.34,79.16-27.83-7.18,20.81-34.35,48.09-71.75,69.69-28.73,16.58-57.34,26.26-78.87,28C39.47,290,66.61,262.57,104.11,240.92Z" transform="translate(-0.78 -0.92)"/><path class="cls-3" d="M136.76,284.4c16.69-28.9,36.8-51.65,54.64-63.68,4.18,21.62-5.7,58.83-27.29,96.23-16.59,28.73-36.53,51.41-54.32,63.65C105.32,359.22,115.11,321.91,136.76,284.4Z" transform="translate(-0.78 -0.92)"/><path class="cls-3" d="M186.78,305.74c0-33.38,6.05-63.13,15.48-82.47,14.43,16.63,24.48,53.8,24.48,97,0,33.18-5.93,62.79-15.22,82.29C197,386.25,186.78,349.05,186.78,305.74Z" transform="translate(-0.78 -0.92)"/><path class="cls-3" d="M240.77,299.21c-16.69-28.91-26.33-57.7-27.83-79.17,20.81,7.19,48.1,34.36,69.69,71.76,16.59,28.72,26.26,57.33,28,78.87C289.84,363.84,262.42,336.71,240.77,299.21Z" transform="translate(-0.78 -0.92)"/><path class="cls-3" d="M284.26,266.55c-28.91-16.69-51.65-36.79-63.68-54.64,21.61-4.18,58.83,5.71,96.23,27.3,28.72,16.58,51.41,36.52,63.65,54.32C359.07,298,321.76,288.21,284.26,266.55Z" transform="translate(-0.78 -0.92)"/><path class="cls-2" d="M305.88,189.11c-32.24,8.64-62.54,10.5-83.67,6.39,12.33-18.24,45.64-37.57,87.35-48.74,32-8.59,62.18-10.53,83.42-6.6C381,158.44,347.71,177.9,305.88,189.11Z" transform="translate(-0.78 -0.92)"/><path class="cls-2" d="M285.6,138.65C262,162.25,236.69,179,216.34,186c1.55-22,20.73-55.35,51.27-85.89,23.45-23.45,48.58-40.2,68.94-47.42C335.33,74.52,316.22,108,285.6,138.65Z" transform="translate(-0.78 -0.92)"/><path class="cls-2" d="M242.8,105.1c-8.64,32.24-22.17,59.41-36.3,75.65-9.63-19.8-9.71-58.3,1.46-100,8.59-32,22-59.11,36-75.54C253.81,24.69,254,63.27,242.8,105.1Z" transform="translate(-0.78 -0.92)"/><path class="cls-2" d="M189,97.43c8.64,32.24,10.51,62.55,6.4,83.67-18.24-12.33-37.57-45.63-48.75-87.34-8.58-32-10.52-62.18-6.6-83.42C158.29,22.3,177.75,55.6,189,97.43Z" transform="translate(-0.78 -0.92)"/><path class="cls-2" d="M138.51,117.72c23.6,23.6,40.36,48.91,47.37,69.26-22-1.56-55.35-20.74-85.89-51.27C76.53,112.25,59.78,87.12,52.57,66.77,74.38,68,107.88,87.1,138.51,117.72Z" transform="translate(-0.78 -0.92)"/><path class="cls-2" d="M105,160.51c32.24,8.64,59.42,22.18,75.66,36.3-19.8,9.63-58.31,9.72-100-1.46-32-8.58-59.11-22-75.54-36C24.55,149.51,63.12,149.31,105,160.51Z" transform="translate(-0.78 -0.92)"/><path class="cls-2" d="M97.29,214.35c32.24-8.63,62.54-10.5,83.67-6.39-12.33,18.24-45.64,37.57-87.35,48.74-32,8.59-62.18,10.53-83.42,6.6C22.15,245,55.46,225.56,97.29,214.35Z" transform="translate(-0.78 -0.92)"/><circle class="cls-4" cx="200.86" cy="200.14" r="38.33"/><path class="cls-5" d="M79.92,208.85l-1.52-1.46Z" transform="translate(-0.78 -0.92)"/><path class="cls-6" d="M179.86,134.1c9.71,16.83,13.14,34.85,10.6,49.32-17.34-1.17-36.86-14.89-49.43-36.66-9.66-16.72-13.14-34.62-10.77-49.09C147.61,98.6,167.25,112.27,179.86,134.1Z" transform="translate(-0.78 -0.92)"/><path class="cls-7" d="M149,154c16.83,9.72,28.81,23.61,33.84,37.42-15.6,7.65-39.36,5.53-61.13-7C104.93,174.75,93,161,87.78,147.27,103.27,139.4,127.12,141.42,149,154Z" transform="translate(-0.78 -0.92)"/><path class="cls-6" d="M132.15,186.73c19.43,0,36.75,6,48,15.48-9.68,14.43-31.32,24.48-56.46,24.48-19.31,0-36.55-5.93-47.9-15.22C85.28,196.91,106.94,186.73,132.15,186.73Z" transform="translate(-0.78 -0.92)"/><path class="cls-7" d="M134,223.46c16.83-9.72,34.85-13.15,49.32-10.6-1.17,17.33-14.88,36.86-36.66,49.43-16.72,9.65-34.61,13.14-49.09,10.77C98.45,255.71,112.12,236.06,134,223.46Z" transform="translate(-0.78 -0.92)"/><path class="cls-6" d="M153.88,254.36c9.71-16.82,23.61-28.8,37.41-33.83,7.65,15.59,5.54,39.36-7,61.13-9.66,16.72-23.41,28.69-37.13,33.87C139.26,300,141.27,276.2,153.88,254.36Z" transform="translate(-0.78 -0.92)"/><path class="cls-7" d="M186.59,271.16c0-19.43,6-36.75,15.48-48,14.42,9.68,24.47,31.32,24.47,56.46,0,19.31-5.92,36.55-15.22,47.9C196.76,318,186.59,296.37,186.59,271.16Z" transform="translate(-0.78 -0.92)"/><path class="cls-6" d="M223.31,269.36c-9.71-16.83-13.14-34.85-10.6-49.32,17.34,1.17,36.86,14.89,49.43,36.66,9.66,16.72,13.14,34.62,10.77,49.09C255.56,304.86,235.92,291.19,223.31,269.36Z" transform="translate(-0.78 -0.92)"/><path class="cls-7" d="M254.22,249.44c-16.83-9.72-28.81-23.61-33.84-37.41,15.6-7.66,39.36-5.54,61.13,7,16.73,9.65,28.69,23.41,33.88,37.13C299.9,264.06,276.05,262,254.22,249.44Z" transform="translate(-0.78 -0.92)"/><path class="cls-6" d="M271,216.73c-19.43,0-36.75-6-48-15.48,9.68-14.43,31.32-24.48,56.46-24.48,19.31,0,36.55,5.93,47.9,15.22C317.89,206.55,296.23,216.73,271,216.73Z" transform="translate(-0.78 -0.92)"/><path class="cls-7" d="M269.22,180c-16.83,9.72-34.85,13.15-49.32,10.6,1.17-17.33,14.88-36.86,36.66-49.43,16.72-9.65,34.61-13.14,49.09-10.77C304.72,147.75,291.05,167.4,269.22,180Z" transform="translate(-0.78 -0.92)"/><path class="cls-6" d="M249.29,149.1c-9.71,16.82-23.6,28.8-37.41,33.84-7.65-15.6-5.54-39.37,7-61.14,9.66-16.72,23.41-28.69,37.13-33.87C263.91,103.42,261.9,127.27,249.29,149.1Z" transform="translate(-0.78 -0.92)"/><path class="cls-7" d="M216.58,132.3c0,19.43-6,36.75-15.48,48-14.42-9.68-24.47-31.32-24.47-56.46,0-19.31,5.92-36.55,15.22-47.9C206.41,85.43,216.58,107.09,216.58,132.3Z" transform="translate(-0.78 -0.92)"/><circle class="cls-8" cx="185.95" cy="190.43" r="3.18"/><circle class="cls-8" cx="183.67" cy="195.43" r="3.18"/><circle class="cls-8" cx="183.05" cy="200.9" r="3.18"/><circle class="cls-8" cx="184.14" cy="206.29" r="3.18"/><circle class="cls-8" cx="186.85" cy="211.07" r="3.18"/><circle class="cls-8" cx="190.91" cy="214.79" r="3.18"/><circle class="cls-8" cx="195.91" cy="217.07" r="3.18"/><circle class="cls-8" cx="201.38" cy="217.69" r="3.18"/><circle class="cls-8" cx="206.77" cy="216.59" r="3.18"/><circle class="cls-8" cx="211.55" cy="213.88" r="3.18"/><circle class="cls-8" cx="215.27" cy="209.82" r="3.18"/><circle class="cls-8" cx="217.54" cy="204.82" r="3.18"/><circle class="cls-8" cx="218.17" cy="199.36" r="3.18"/><circle class="cls-8" cx="217.07" cy="193.97" r="3.18"/><circle class="cls-8" cx="214.36" cy="189.18" r="3.18"/><circle class="cls-8" cx="210.3" cy="185.47" r="3.18"/><circle class="cls-8" cx="205.3" cy="183.19" r="3.18"/><circle class="cls-8" cx="199.84" cy="182.57" r="3.18"/><circle class="cls-8" cx="194.45" cy="183.67" r="3.18"/><circle class="cls-8" cx="189.66" cy="186.37" r="3.18"/><circle class="cls-8" cx="192.24" cy="196.32" r="1.66"/><circle class="cls-8" cx="191.47" cy="199.09" r="1.66"/><circle class="cls-8" cx="191.6" cy="201.96" r="1.66"/><circle class="cls-8" cx="192.61" cy="204.66" r="1.66"/><circle class="cls-8" cx="194.4" cy="206.91" r="1.66"/><circle class="cls-8" cx="196.8" cy="208.49" r="1.66"/><circle class="cls-8" cx="199.57" cy="209.26" r="1.66"/><circle class="cls-8" cx="202.44" cy="209.13" r="1.66"/><circle class="cls-8" cx="205.13" cy="208.13" r="1.66"/><circle class="cls-8" cx="207.38" cy="206.34" r="1.66"/><circle class="cls-8" cx="208.97" cy="203.94" r="1.66"/><circle class="cls-8" cx="209.74" cy="201.17" r="1.66"/><circle class="cls-8" cx="209.61" cy="198.29" r="1.66"/><circle class="cls-8" cx="208.61" cy="195.6" r="1.66"/><circle class="cls-8" cx="206.81" cy="193.35" r="1.66"/><circle class="cls-8" cx="204.42" cy="191.76" r="1.66"/><circle class="cls-8" cx="201.64" cy="190.99" r="1.66"/><circle class="cls-8" cx="198.77" cy="191.12" r="1.66"/><circle class="cls-8" cx="196.08" cy="192.13" r="1.66"/><circle class="cls-8" cx="193.83" cy="193.92" r="1.66"/></g></g></svg>