<svg xmlns="http://www.w3.org/2000/svg" viewBox="0 0 210.16 103.52"><defs><style>.cls-1,.cls-8{opacity:0.08;}.cls-12,.cls-2,.cls-3,.cls-7{fill:none;}.cls-2{stroke:#000;stroke-width:0.4px;}.cls-10,.cls-11,.cls-12,.cls-2,.cls-3,.cls-4,.cls-5,.cls-6,.cls-7,.cls-9{stroke-miterlimit:10;}.cls-3{stroke:#171717;stroke-width:2.46px;}.cls-11,.cls-4,.cls-6,.cls-9{fill:#fbfafa;}.cls-4,.cls-9{stroke:#706f6f;}.cls-4,.cls-5,.cls-6,.cls-7{stroke-width:0.03px;}.cls-10,.cls-5{fill:#232323;}.cls-10,.cls-11,.cls-12,.cls-5,.cls-6,.cls-7{stroke:#1d1d1b;}.cls-8{fill:#1d1d1b;}.cls-10,.cls-11,.cls-12,.cls-9{stroke-width:0.03px;}</style></defs><g id="Layer_2" data-name="Layer 2"><g id="Layer_1-2" data-name="Layer 1"><g class="cls-1"><polygon class="cls-2" points="26.35 2.04 17.71 2.04 13.4 8.96 17.71 15.87 26.35 15.87 30.66 8.96 26.35 2.04"/><polygon class="cls-2" points="26.35 15.87 17.71 15.87 13.4 22.78 17.71 29.69 26.35 29.69 30.66 22.78 26.35 15.87"/><polygon class="cls-2" points="39.34 8.96 30.7 8.96 26.38 15.87 30.7 22.78 39.34 22.78 43.65 15.87 39.34 8.96"/><polygon class="cls-2" points="39.34 22.78 30.7 22.78 26.38 29.69 30.7 36.6 39.34 36.6 43.65 29.69 39.34 22.78"/><polyline class="cls-2" points="30.66 36.6 26.35 29.69 17.71 29.69 13.4 36.6"/><polygon class="cls-2" points="52.24 2.04 43.61 2.04 39.29 8.96 43.61 15.87 52.24 15.87 56.56 8.96 52.24 2.04"/><polygon class="cls-2" points="52.24 15.87 43.61 15.87 39.29 22.78 43.61 29.69 52.24 29.69 56.56 22.78 52.24 15.87"/><polygon class="cls-2" points="65.15 8.96 56.52 8.96 52.2 15.87 56.52 22.78 65.15 22.78 69.47 15.87 65.15 8.96"/><polygon class="cls-2" points="65.15 22.78 56.52 22.78 52.2 29.69 56.52 36.6 65.15 36.6 69.47 29.69 65.15 22.78"/><polygon class="cls-2" points="77.98 2.04 69.34 2.04 65.03 8.96 69.34 15.87 77.98 15.87 82.29 8.96 77.98 2.04"/><polygon class="cls-2" points="77.98 15.87 69.34 15.87 65.03 22.78 69.34 29.69 77.98 29.69 82.29 22.78 77.98 15.87"/><polygon class="cls-2" points="90.73 8.96 82.09 8.96 77.78 15.87 82.09 22.78 90.73 22.78 95.04 15.87 90.73 8.96"/><polyline class="cls-2" points="56.56 36.6 52.24 29.69 43.61 29.69 39.29 36.6"/><polyline class="cls-2" points="82.29 36.6 77.98 29.69 69.34 29.69 65.03 36.6"/><polygon class="cls-2" points="90.73 22.78 82.09 22.78 77.78 29.69 82.09 36.6 90.73 36.6 95.04 29.69 90.73 22.78"/><polygon class="cls-2" points="26.35 43.52 17.71 43.52 13.4 50.43 17.71 57.34 26.35 57.34 30.66 50.43 26.35 43.52"/><polygon class="cls-2" points="26.35 57.34 17.71 57.34 13.4 64.25 17.71 71.17 26.35 71.17 30.66 64.25 26.35 57.34"/><polygon class="cls-2" points="26.35 29.69 17.71 29.69 13.4 36.6 17.71 43.52 26.35 43.52 30.66 36.6 26.35 29.69"/><polygon class="cls-2" points="39.34 50.43 30.7 50.43 26.38 57.34 30.7 64.25 39.34 64.25 43.65 57.34 39.34 50.43"/><polygon class="cls-2" points="39.34 64.25 30.7 64.25 26.38 71.17 30.7 78.08 39.34 78.08 43.65 71.17 39.34 64.25"/><polygon class="cls-2" points="39.34 36.6 30.7 36.6 26.38 43.52 30.7 50.43 39.34 50.43 43.65 43.52 39.34 36.6"/><polygon class="cls-2" points="52.24 43.52 43.61 43.52 39.29 50.43 43.61 57.34 52.24 57.34 56.56 50.43 52.24 43.52"/><polygon class="cls-2" points="52.24 57.34 43.61 57.34 39.29 64.25 43.61 71.17 52.24 71.17 56.56 64.25 52.24 57.34"/><polygon class="cls-2" points="52.24 29.69 43.61 29.69 39.29 36.6 43.61 43.52 52.24 43.52 56.56 36.6 52.24 29.69"/><polygon class="cls-2" points="65.15 50.43 56.52 50.43 52.2 57.34 56.52 64.25 65.15 64.25 69.47 57.34 65.15 50.43"/><polygon class="cls-2" points="65.15 64.25 56.52 64.25 52.2 71.17 56.52 78.08 65.15 78.08 69.47 71.17 65.15 64.25"/><polygon class="cls-2" points="65.15 36.6 56.52 36.6 52.2 43.52 56.52 50.43 65.15 50.43 69.47 43.52 65.15 36.6"/><polygon class="cls-2" points="77.98 43.52 69.34 43.52 65.03 50.43 69.34 57.34 77.98 57.34 82.29 50.43 77.98 43.52"/><polygon class="cls-2" points="77.98 57.34 69.34 57.34 65.03 64.25 69.34 71.17 77.98 71.17 82.29 64.25 77.98 57.34"/><polygon class="cls-2" points="77.98 29.69 69.34 29.69 65.03 36.6 69.34 43.52 77.98 43.52 82.29 36.6 77.98 29.69"/><polygon class="cls-2" points="90.73 36.6 82.09 36.6 77.78 43.52 82.09 50.43 90.73 50.43 95.04 43.52 90.73 36.6"/><polygon class="cls-2" points="90.73 50.43 82.09 50.43 77.78 57.34 82.09 64.25 90.73 64.25 95.04 57.34 90.73 50.43"/><polygon class="cls-2" points="26.35 84.99 17.71 84.99 13.4 91.9 17.71 98.81 26.35 98.81 30.66 91.9 26.35 84.99"/><polygon class="cls-2" points="26.35 71.17 17.71 71.17 13.4 78.08 17.71 84.99 26.35 84.99 30.66 78.08 26.35 71.17"/><polygon class="cls-2" points="39.34 78.08 30.7 78.08 26.38 84.99 30.7 91.9 39.34 91.9 43.65 84.99 39.34 78.08"/><polygon class="cls-2" points="52.24 84.99 43.61 84.99 39.29 91.9 43.61 98.81 52.24 98.81 56.56 91.9 52.24 84.99"/><polygon class="cls-2" points="52.24 71.17 43.61 71.17 39.29 78.08 43.61 84.99 52.24 84.99 56.56 78.08 52.24 71.17"/><polygon class="cls-2" points="65.15 78.08 56.52 78.08 52.2 84.99 56.52 91.9 65.15 91.9 69.47 84.99 65.15 78.08"/><polygon class="cls-2" points="77.98 84.99 69.34 84.99 65.03 91.9 69.34 98.81 77.98 98.81 82.29 91.9 77.98 84.99"/><polygon class="cls-2" points="77.98 71.17 69.34 71.17 65.03 78.08 69.34 84.99 77.98 84.99 82.29 78.08 77.98 71.17"/><polygon class="cls-2" points="90.73 78.08 82.09 78.08 77.78 84.99 82.09 91.9 90.73 91.9 95.04 84.99 90.73 78.08"/><polygon class="cls-2" points="90.73 64.25 82.09 64.25 77.78 71.17 82.09 78.08 90.73 78.08 95.04 71.17 90.73 64.25"/><polygon class="cls-2" points="13.6 8.96 4.96 8.96 0.65 15.87 4.96 22.78 13.6 22.78 17.92 15.87 13.6 8.96"/><polygon class="cls-2" points="13.6 22.78 4.96 22.78 0.65 29.69 4.96 36.6 13.6 36.6 17.92 29.69 13.6 22.78"/><polygon class="cls-2" points="103.71 2.04 95.08 2.04 90.76 8.96 95.08 15.87 103.71 15.87 108.03 8.96 103.71 2.04"/><polygon class="cls-2" points="103.71 15.87 95.08 15.87 90.76 22.78 95.08 29.69 103.71 29.69 108.03 22.78 103.71 15.87"/><polyline class="cls-2" points="108.03 36.6 103.71 29.69 95.08 29.69 90.76 36.6"/><polygon class="cls-2" points="116.63 8.96 108 8.96 103.68 15.87 108 22.78 116.63 22.78 120.95 15.87 116.63 8.96"/><polygon class="cls-2" points="129.54 2.04 120.91 2.04 116.59 8.96 120.91 15.87 129.54 15.87 133.86 8.96 129.54 2.04"/><polygon class="cls-2" points="129.54 15.87 120.91 15.87 116.59 22.78 120.91 29.69 129.54 29.69 133.86 22.78 129.54 15.87"/><polygon class="cls-2" points="142.37 8.96 133.73 8.96 129.42 15.87 133.73 22.78 142.37 22.78 146.68 15.87 142.37 8.96"/><polygon class="cls-2" points="155.12 2.04 146.48 2.04 142.17 8.96 146.48 15.87 155.12 15.87 159.43 8.96 155.12 2.04"/><polygon class="cls-2" points="168.1 8.96 159.47 8.96 155.15 15.87 159.47 22.78 168.1 22.78 172.42 15.87 168.1 8.96"/><polygon class="cls-2" points="116.63 22.78 108 22.78 103.68 29.69 108 36.6 116.63 36.6 120.95 29.69 116.63 22.78"/><polyline class="cls-2" points="133.86 36.6 129.54 29.69 120.91 29.69 116.59 36.6"/><polygon class="cls-2" points="142.37 22.78 133.73 22.78 129.42 29.69 133.73 36.6 142.37 36.6 146.68 29.69 142.37 22.78"/><polyline class="cls-2" points="159.43 36.6 155.12 29.69 146.48 29.69 142.17 36.6"/><polygon class="cls-2" points="155.12 15.87 146.48 15.87 142.17 22.78 146.48 29.69 155.12 29.69 159.43 22.78 155.12 15.87"/><polygon class="cls-2" points="168.1 22.78 159.47 22.78 155.15 29.69 159.47 36.6 168.1 36.6 172.42 29.69 168.1 22.78"/><polygon class="cls-2" points="181.01 2.04 172.38 2.04 168.06 8.96 172.38 15.87 181.01 15.87 185.33 8.96 181.01 2.04"/><polygon class="cls-2" points="193.92 8.96 185.28 8.96 180.97 15.87 185.28 22.78 193.92 22.78 198.24 15.87 193.92 8.96"/><polygon class="cls-2" points="209.51 6.46 209.51 11.45 206.75 15.87 198.11 15.87 193.79 8.95 198.11 2.04 206.75 2.04 209.51 6.46"/><polyline class="cls-2" points="185.33 36.6 181.01 29.69 172.38 29.69 168.06 36.6"/><polygon class="cls-2" points="181.01 15.87 172.38 15.87 168.06 22.78 172.38 29.69 181.01 29.69 185.33 22.78 181.01 15.87"/><polygon class="cls-2" points="193.92 22.78 185.28 22.78 180.97 29.69 185.28 36.6 193.92 36.6 198.24 29.69 193.92 22.78"/><polyline class="cls-2" points="193.79 36.6 198.11 29.69 206.75 29.69 209.51 34.11"/><polygon class="cls-2" points="209.51 20.28 209.51 25.27 206.75 29.69 198.11 29.69 193.79 22.78 198.11 15.87 206.75 15.87 209.51 20.28"/><polygon class="cls-2" points="13.6 50.43 4.96 50.43 0.65 57.34 4.96 64.25 13.6 64.25 17.92 57.34 13.6 50.43"/><polygon class="cls-2" points="13.6 64.25 4.96 64.25 0.65 71.17 4.96 78.08 13.6 78.08 17.92 71.17 13.6 64.25"/><polygon class="cls-2" points="13.6 36.6 4.96 36.6 0.65 43.52 4.96 50.43 13.6 50.43 17.92 43.52 13.6 36.6"/><polygon class="cls-2" points="103.71 43.52 95.08 43.52 90.76 50.43 95.08 57.34 103.71 57.34 108.03 50.43 103.71 43.52"/><polygon class="cls-2" points="103.71 57.34 95.08 57.34 90.76 64.25 95.08 71.17 103.71 71.17 108.03 64.25 103.71 57.34"/><polygon class="cls-2" points="103.71 29.69 95.08 29.69 90.76 36.6 95.08 43.52 103.71 43.52 108.03 36.6 103.71 29.69"/><polygon class="cls-2" points="13.6 78.08 4.96 78.08 0.65 84.99 4.96 91.9 13.6 91.9 17.92 84.99 13.6 78.08"/><polygon class="cls-2" points="103.71 84.99 95.08 84.99 90.76 91.9 95.08 98.81 103.71 98.81 108.03 91.9 103.71 84.99"/><polygon class="cls-2" points="103.71 71.17 95.08 71.17 90.76 78.08 95.08 84.99 103.71 84.99 108.03 78.08 103.71 71.17"/><polygon class="cls-2" points="116.63 36.6 108 36.6 103.68 43.52 108 50.43 116.63 50.43 120.95 43.52 116.63 36.6"/><polygon class="cls-2" points="116.63 50.43 108 50.43 103.68 57.34 108 64.25 116.63 64.25 120.95 57.34 116.63 50.43"/><polygon class="cls-2" points="129.54 43.52 120.91 43.52 116.59 50.43 120.91 57.34 129.54 57.34 133.86 50.43 129.54 43.52"/><polygon class="cls-2" points="129.54 57.34 120.91 57.34 116.59 64.25 120.91 71.17 129.54 71.17 133.86 64.25 129.54 57.34"/><polygon class="cls-2" points="129.54 29.69 120.91 29.69 116.59 36.6 120.91 43.52 129.54 43.52 133.86 36.6 129.54 29.69"/><polygon class="cls-2" points="142.37 36.6 133.73 36.6 129.42 43.52 133.73 50.43 142.37 50.43 146.68 43.52 142.37 36.6"/><polygon class="cls-2" points="142.37 50.43 133.73 50.43 129.42 57.34 133.73 64.25 142.37 64.25 146.68 57.34 142.37 50.43"/><polygon class="cls-2" points="155.12 29.69 146.48 29.69 142.17 36.6 146.48 43.52 155.12 43.52 159.43 36.6 155.12 29.69"/><polygon class="cls-2" points="155.12 43.52 146.48 43.52 142.17 50.43 146.48 57.34 155.12 57.34 159.43 50.43 155.12 43.52"/><polygon class="cls-2" points="168.1 36.6 159.47 36.6 155.15 43.52 159.47 50.43 168.1 50.43 172.42 43.52 168.1 36.6"/><polygon class="cls-2" points="168.1 50.43 159.47 50.43 155.15 57.34 159.47 64.25 168.1 64.25 172.42 57.34 168.1 50.43"/><polygon class="cls-2" points="181.01 29.69 172.38 29.69 168.06 36.6 172.38 43.52 181.01 43.52 185.33 36.6 181.01 29.69"/><polygon class="cls-2" points="181.01 43.52 172.38 43.52 168.06 50.43 172.38 57.34 181.01 57.34 185.33 50.43 181.01 43.52"/><polygon class="cls-2" points="193.92 36.6 185.28 36.6 180.97 43.52 185.28 50.43 193.92 50.43 198.24 43.52 193.92 36.6"/><polygon class="cls-2" points="193.92 50.43 185.28 50.43 180.97 57.34 185.28 64.25 193.92 64.25 198.24 57.34 193.92 50.43"/><polygon class="cls-2" points="209.51 34.11 209.51 39.1 206.75 43.52 198.11 43.52 193.79 36.6 198.09 29.73 198.11 29.69 206.75 29.69 206.77 29.73 209.51 34.11"/><polygon class="cls-2" points="209.51 47.93 209.51 52.92 206.75 57.34 198.11 57.34 193.79 50.43 198.11 43.52 206.75 43.52 209.51 47.93"/><polygon class="cls-2" points="116.63 78.08 108 78.08 103.68 84.99 108 91.9 116.63 91.9 120.95 84.99 116.63 78.08"/><polygon class="cls-2" points="116.63 64.25 108 64.25 103.68 71.17 108 78.08 116.63 78.08 120.95 71.17 116.63 64.25"/><polygon class="cls-2" points="129.54 84.99 120.91 84.99 116.59 91.9 120.91 98.81 129.54 98.81 133.86 91.9 129.54 84.99"/><polygon class="cls-2" points="129.54 71.17 120.91 71.17 116.59 78.08 120.91 84.99 129.54 84.99 133.86 78.08 129.54 71.17"/><polygon class="cls-2" points="142.37 78.08 133.73 78.08 129.42 84.99 133.73 91.9 142.37 91.9 146.68 84.99 142.37 78.08"/><polygon class="cls-2" points="142.37 64.25 133.73 64.25 129.42 71.17 133.73 78.08 142.37 78.08 146.68 71.17 142.37 64.25"/><polygon class="cls-2" points="155.12 71.17 146.48 71.17 142.17 78.08 146.48 84.99 155.12 84.99 159.43 78.08 155.12 71.17"/><polygon class="cls-2" points="155.12 84.99 146.48 84.99 142.17 91.9 146.48 98.81 155.12 98.81 159.43 91.9 155.12 84.99"/><polygon class="cls-2" points="155.12 57.34 146.48 57.34 142.17 64.25 146.48 71.17 155.12 71.17 159.43 64.25 155.12 57.34"/><polygon class="cls-2" points="168.1 78.08 159.47 78.08 155.15 84.99 159.47 91.9 168.1 91.9 172.42 84.99 168.1 78.08"/><polygon class="cls-2" points="168.1 64.25 159.47 64.25 155.15 71.17 159.47 78.08 168.1 78.08 172.42 71.17 168.1 64.25"/><polygon class="cls-2" points="181.01 71.17 172.38 71.17 168.06 78.08 172.38 84.99 181.01 84.99 185.33 78.08 181.01 71.17"/><polygon class="cls-2" points="181.01 84.99 172.38 84.99 168.06 91.9 172.38 98.81 181.01 98.81 185.33 91.9 181.01 84.99"/><polygon class="cls-2" points="181.01 57.34 172.38 57.34 168.06 64.25 172.38 71.17 181.01 71.17 185.33 64.25 181.01 57.34"/><polygon class="cls-2" points="193.92 78.08 185.28 78.08 180.97 84.99 185.28 91.9 193.92 91.9 198.24 84.99 193.92 78.08"/><polygon class="cls-2" points="193.92 64.25 185.28 64.25 180.97 71.17 185.28 78.08 193.92 78.08 198.24 71.17 193.92 64.25"/><polygon class="cls-2" points="209.51 75.58 209.51 80.57 206.75 84.99 198.11 84.99 193.79 78.08 198.11 71.16 206.75 71.16 209.51 75.58"/><polygon class="cls-2" points="209.51 89.41 209.51 94.39 206.75 98.81 198.11 98.81 193.79 91.9 198.11 84.99 206.75 84.99 209.51 89.41"/><polygon class="cls-2" points="209.51 61.76 209.51 66.75 206.75 71.16 198.11 71.16 193.79 64.25 198.11 57.34 206.75 57.34 209.51 61.76"/></g><path class="cls-3" d="M1.23,98V7.1A5.85,5.85,0,0,1,7.06,1.23h196a5.85,5.85,0,0,1,5.84,5.87V99.63"/><path class="cls-4" d="M188.3,85.72l-1.38,2.4h-1.39a9.72,9.72,0,0,1,2.57-2.74h0Z"/><path class="cls-5" d="M188.3,90.52l-1.38,2.4h-2.77l-.08-.13a9.7,9.7,0,0,1,1.46-4.67h1.39Z"/><polygon class="cls-4" points="191.06 85.72 188.29 85.72 186.91 88.12 188.29 90.52 191.06 90.52 192.45 88.12 191.06 85.72"/><polygon class="cls-4" points="191.06 90.52 188.29 90.52 186.91 92.92 188.29 95.32 191.06 95.32 192.45 92.92 191.06 90.52"/><path class="cls-4" d="M192.25,83.66l-1.19,2.06h-2.77l-.19-.34h0a9.61,9.61,0,0,1,4.11-1.7Z"/><path class="cls-5" d="M196.57,85.72l-1.39,2.4h-2.77L191,85.72l1.19-2h0a9.83,9.83,0,0,1,1.55-.12,10.73,10.73,0,0,1,1.51.11l.07,0Z"/><polygon class="cls-4" points="195.18 88.12 192.41 88.12 191.02 90.52 192.41 92.92 195.18 92.92 196.57 90.52 195.18 88.12"/><path class="cls-4" d="M199.48,85.37l-.21.35H196.5l-1.19-2.07.07,0A9.57,9.57,0,0,1,199.48,85.37Z"/><polygon class="cls-4" points="199.27 85.72 196.5 85.72 195.12 88.12 196.5 90.52 199.27 90.52 200.66 88.12 199.27 85.72"/><path class="cls-4" d="M202.06,88.12h-1.39l-1.38-2.4.2-.35A9.77,9.77,0,0,1,202.06,88.12Z"/><path class="cls-5" d="M203.52,92.79l-.08.13h-2.77l-1.38-2.4,1.38-2.4h1.39A9.7,9.7,0,0,1,203.52,92.79Z"/><path class="cls-4" d="M188.3,100.12l-.48.84h0a9.75,9.75,0,0,1-2.68-3.23h1.79Z"/><path class="cls-4" d="M188.3,95.32l-1.38,2.4h-1.79a9.62,9.62,0,0,1-1.07-4.45v-.2l.09-.15h2.77Z"/><path class="cls-4" d="M192.45,102.52l-.21.37h0a9.65,9.65,0,0,1-4.38-1.92h0l.48-.83h2.77Z"/><polygon class="cls-5" points="191.06 95.32 188.29 95.32 186.91 97.72 188.29 100.12 191.06 100.12 192.45 97.72 191.06 95.32"/><polygon class="cls-4" points="195.18 97.72 192.41 97.72 191.02 100.12 192.41 102.52 195.18 102.52 196.57 100.12 195.18 97.72"/><path class="cls-5" d="M195.39,102.88h-.06a9.67,9.67,0,0,1-1.53.12,9.86,9.86,0,0,1-1.56-.12h0l.21-.36h2.77Z"/><polygon class="cls-4" points="195.18 92.92 192.41 92.92 191.02 95.32 192.41 97.72 195.18 97.72 196.57 95.32 195.18 92.92"/><polygon class="cls-5" points="199.27 95.32 196.5 95.32 195.12 97.72 196.5 100.12 199.27 100.12 200.66 97.72 199.27 95.32"/><path class="cls-4" d="M199.76,101a9.7,9.7,0,0,1-4.37,1.91h-.06l-.21-.37,1.38-2.4h2.77Z"/><polygon class="cls-4" points="199.27 90.52 196.5 90.52 195.12 92.92 196.5 95.32 199.27 95.32 200.66 92.92 199.27 90.52"/><path class="cls-6" d="M202.46,97.72a9.69,9.69,0,0,1-2.69,3.24l-.48-.84,1.38-2.4Z"/><path class="cls-4" d="M203.53,93.27a9.62,9.62,0,0,1-1.07,4.45h-1.79l-1.38-2.4,1.38-2.4h2.77l.09.15Z"/><path class="cls-7" d="M203.53,93.27a9.7,9.7,0,0,1-3.76,7.69h0a9.7,9.7,0,0,1-4.37,1.91h-.06a9.67,9.67,0,0,1-1.53.12,9.86,9.86,0,0,1-1.56-.12h0a9.65,9.65,0,0,1-4.38-1.92h0a9.75,9.75,0,0,1-2.68-3.23,9.62,9.62,0,0,1-1.07-4.45v-.2c0-.1,0-.19,0-.28a9.69,9.69,0,0,1,4-7.41h0a9.61,9.61,0,0,1,4.11-1.7h0a9.83,9.83,0,0,1,1.55-.12,10.73,10.73,0,0,1,1.51.11l.07,0a9.57,9.57,0,0,1,4.1,1.7h0a9.74,9.74,0,0,1,4,7.42,2.62,2.62,0,0,1,0,.28Z"/><path class="cls-8" d="M199.68,85.53a5.17,5.17,0,0,1,.51.42,9.6,9.6,0,0,1,1.1,1.11l0,0a9.7,9.7,0,0,1,2,4.33h0a9.76,9.76,0,0,1-.11,4.2,9.63,9.63,0,0,1-2.12,4.06l-.14.15-.16,0,0,.15a9.75,9.75,0,0,1-7.91,2.93l.08-.39h0l-.08.39a9.72,9.72,0,0,1-4.21-1.42l.42-.14a9.83,9.83,0,0,0,3.37.72,9.52,9.52,0,0,0,2.44-.22l.11,0a6.29,6.29,0,0,0,.62-.17,9.67,9.67,0,0,0,4.27-2.64l.24-.26a9.71,9.71,0,0,0,2.38-7.1h0A9.76,9.76,0,0,0,201,87.19s0,0,0,0A9.24,9.24,0,0,0,199.68,85.53Z"/><path class="cls-9" d="M11,83.27,9.39,86.08H7.76a11.77,11.77,0,0,1,3-3.21h0Z"/><path class="cls-10" d="M11,88.89,9.39,91.7H6.14l-.09-.16a11.44,11.44,0,0,1,1.71-5.46H9.39Z"/><polygon class="cls-9" points="14.23 83.27 10.99 83.27 9.37 86.08 10.99 88.89 14.23 88.89 15.86 86.08 14.23 83.27"/><polygon class="cls-9" points="14.23 88.89 10.99 88.89 9.37 91.69 10.99 94.5 14.23 94.5 15.86 91.69 14.23 88.89"/><path class="cls-9" d="M15.63,80.86l-1.4,2.41H11l-.23-.4h0a11.31,11.31,0,0,1,4.81-2Z"/><path class="cls-10" d="M20.67,83.27l-1.62,2.81H15.81l-1.62-2.81,1.39-2.4h.05a11.82,11.82,0,0,1,1.8-.14,11.43,11.43,0,0,1,1.77.13l.09,0Z"/><polygon class="cls-9" points="19.05 86.08 15.81 86.08 14.19 88.89 15.81 91.69 19.05 91.69 20.67 88.89 19.05 86.08"/><path class="cls-9" d="M24.08,82.86l-.24.41H20.6l-1.4-2.42.09,0A11.32,11.32,0,0,1,24.08,82.86Z"/><polygon class="cls-9" points="23.84 83.27 20.6 83.27 18.98 86.08 20.6 88.89 23.84 88.89 25.46 86.08 23.84 83.27"/><path class="cls-9" d="M27.1,86.08H25.48l-1.63-2.81.24-.4A11.38,11.38,0,0,1,27.1,86.08Z"/><path class="cls-10" d="M28.81,91.54l-.09.16H25.48l-1.63-2.81,1.63-2.81H27.1A11.33,11.33,0,0,1,28.81,91.54Z"/><path class="cls-9" d="M11,100.12l-.57,1h0a11.52,11.52,0,0,1-3.14-3.79h2.1Z"/><path class="cls-9" d="M11,94.5,9.39,97.31H7.29A11.37,11.37,0,0,1,6,92.11v-.24l.1-.17H9.39Z"/><path class="cls-9" d="M15.86,102.93l-.25.43h0a11.25,11.25,0,0,1-5.13-2.25h0l.56-1h3.24Z"/><polygon class="cls-10" points="14.23 94.5 10.99 94.5 9.37 97.31 10.99 100.12 14.23 100.12 15.86 97.31 14.23 94.5"/><polygon class="cls-9" points="19.05 97.31 15.81 97.31 14.19 100.12 15.81 102.93 19.05 102.93 20.67 100.12 19.05 97.31"/><path class="cls-10" d="M19.3,103.35h-.07a11.92,11.92,0,0,1-1.8.14,12.08,12.08,0,0,1-1.82-.14h0l.24-.42h3.24Z"/><polygon class="cls-9" points="19.05 91.69 15.81 91.69 14.19 94.5 15.81 97.31 19.05 97.31 20.67 94.5 19.05 91.69"/><polygon class="cls-10" points="23.84 94.5 20.6 94.5 18.98 97.31 20.6 100.12 23.84 100.12 25.46 97.31 23.84 94.5"/><path class="cls-9" d="M24.41,101.11a11.25,11.25,0,0,1-5.11,2.24h-.07l-.25-.43,1.62-2.81h3.24Z"/><polygon class="cls-9" points="23.84 88.89 20.6 88.89 18.98 91.69 20.6 94.5 23.84 94.5 25.46 91.69 23.84 88.89"/><path class="cls-11" d="M27.57,97.31a11.33,11.33,0,0,1-3.15,3.79l-.57-1,1.63-2.81Z"/><path class="cls-9" d="M28.82,92.11a11.37,11.37,0,0,1-1.25,5.2H25.48L23.85,94.5l1.63-2.8h3.24l.1.17Z"/><path class="cls-12" d="M28.82,92.11a11.33,11.33,0,0,1-4.4,9h0a11.25,11.25,0,0,1-5.11,2.24h-.07a11.92,11.92,0,0,1-1.8.14,12.08,12.08,0,0,1-1.82-.14h0a11.25,11.25,0,0,1-5.13-2.25h0a11.52,11.52,0,0,1-3.14-3.79A11.37,11.37,0,0,1,6,92.11v-.24c0-.11,0-.22,0-.33a11.44,11.44,0,0,1,1.71-5.46,11.77,11.77,0,0,1,3-3.21h0a11.31,11.31,0,0,1,4.81-2h.05a11.82,11.82,0,0,1,1.8-.14,11.43,11.43,0,0,1,1.77.13l.09,0a11.32,11.32,0,0,1,4.79,2h0a11.35,11.35,0,0,1,4.72,8.67c0,.11,0,.22,0,.33Z"/><path class="cls-8" d="M24.32,83.05c.2.15.4.31.6.49a11.2,11.2,0,0,1,1.27,1.31l0,0a11.3,11.3,0,0,1,2.38,5.06v0A11.36,11.36,0,0,1,26,99.61l-.16.18-.19.06,0,.18a11.39,11.39,0,0,1-9.25,3.42l.09-.45h0l-.09.46a11.3,11.3,0,0,1-4.93-1.66l.49-.17a11.29,11.29,0,0,0,3.94.86,12,12,0,0,0,2.86-.26l.13,0c.24-.06.49-.12.73-.2a11.24,11.24,0,0,0,5-3.09l.28-.31a11.37,11.37,0,0,0,2.79-8.3h0A11.48,11.48,0,0,0,25.88,85s0,0,0,0A11.61,11.61,0,0,0,24.32,83.05Z"/></g></g></svg>