<svg xmlns="http://www.w3.org/2000/svg" viewBox="0 0 443.75 499.13"><defs><style>.cls-1{fill:#cca01f;}.cls-2{opacity:0.08;}.cls-3{fill:#daab1f;}.cls-4{opacity:0.2;}.cls-5{fill:#cc2929;}.cls-6{opacity:0.1;}.cls-7{opacity:0.03;}</style></defs><g id="Layer_2" data-name="Layer 2"><g id="Layer_1-2" data-name="Layer 1"><path class="cls-1" d="M155,224.63q-7.62,3.92-15.27,7.73A1120.35,1120.35,0,0,0,44.32,51q7-4.57,14-9.25A1136.31,1136.31,0,0,1,155,224.63Z"/><path class="cls-2" d="M58.32,41.74A1135.67,1135.67,0,0,1,155,224.62l-5.35,2.74A1130.26,1130.26,0,0,0,53.42,45Q55.88,43.38,58.32,41.74Z"/><path class="cls-1" d="M136,214.15q-8.11,2.25-16.25,4.44A1213.63,1213.63,0,0,0,56.82,25.34q7.71-3.27,15.41-6.59A1229.79,1229.79,0,0,1,136,214.15Z"/><path class="cls-2" d="M72.23,18.75A1230,1230,0,0,1,136,214.14l-5.7,1.58A1224.52,1224.52,0,0,0,66.83,21.08Z"/><path class="cls-1" d="M330.26,271q-8.13,2.25-16.26,4.44A1212.61,1212.61,0,0,0,251.09,82.17q7.72-3.27,15.41-6.59A1230.83,1230.83,0,0,1,330.26,271Z"/><path class="cls-2" d="M266.5,75.58A1230,1230,0,0,1,330.25,271l-5.69,1.58A1224.52,1224.52,0,0,0,261.11,77.91Z"/><path class="cls-1" d="M104.19,233.16,87.67,230.4A1275.08,1275.08,0,0,0,104.75,31.11q8.37.08,16.74.18A1291,1291,0,0,1,104.19,233.16Z"/><path class="cls-2" d="M121.49,31.29a1291,1291,0,0,1-17.3,201.87l-5.79-1a1285.54,1285.54,0,0,0,17.22-201Z"/><path class="cls-1" d="M98.87,215.75l-16.7-1.23a1266.92,1266.92,0,0,0-1-198.76l16.68-1.4A1283.42,1283.42,0,0,1,98.87,215.75Z"/><path class="cls-2" d="M97.88,14.37a1284.5,1284.5,0,0,1,1,201.38L93,215.32A1278.85,1278.85,0,0,0,92,14.86Z"/><path class="cls-1" d="M308,229.06l-16.7-1.23a1266.92,1266.92,0,0,0-1-198.76L307,27.67A1284.63,1284.63,0,0,1,308,229.06Z"/><path class="cls-2" d="M307,27.67a1284.63,1284.63,0,0,1,1,201.39l-5.86-.43a1277.77,1277.77,0,0,0-1-200.47Z"/><path class="cls-1" d="M333.48,234.53l-16.7-1.23a1266.92,1266.92,0,0,0-1-198.76l16.69-1.4A1284.64,1284.64,0,0,1,333.48,234.53Z"/><path class="cls-2" d="M332.49,33.15a1284.5,1284.5,0,0,1,1,201.38l-5.85-.43a1278.85,1278.85,0,0,0-1-200.46Z"/><path class="cls-1" d="M154.75,226.44l-16.7-1.23a1267,1267,0,0,0-1-198.77l16.68-1.39A1283.41,1283.41,0,0,1,154.75,226.44Z"/><path class="cls-2" d="M153.75,25.05a1283.29,1283.29,0,0,1,1,201.38l-5.86-.43a1277.64,1277.64,0,0,0-1-200.46Z"/><path class="cls-1" d="M173.75,235.63l-16.7-1.23a1266.92,1266.92,0,0,0-1-198.76l16.69-1.4A1283.41,1283.41,0,0,1,173.75,235.63Z"/><path class="cls-2" d="M172.76,34.24a1283.29,1283.29,0,0,1,1,201.38l-5.85-.43a1277.64,1277.64,0,0,0-1-200.46Z"/><path class="cls-1" d="M282.55,245.52l-16.7-1.23a1267,1267,0,0,0-1-198.77l16.69-1.39A1284.62,1284.62,0,0,1,282.55,245.52Z"/><path class="cls-2" d="M281.56,44.13a1284.5,1284.5,0,0,1,1,201.38l-5.85-.43a1278.86,1278.86,0,0,0-1-200.46Z"/><path class="cls-1" d="M135.74,244.48,119,243.25a1266.92,1266.92,0,0,0-1-198.76l16.69-1.4A1284.64,1284.64,0,0,1,135.74,244.48Z"/><path class="cls-2" d="M134.75,43.1a1284.5,1284.5,0,0,1,1,201.38l-5.85-.43a1278.85,1278.85,0,0,0-1-200.46Z"/><path class="cls-1" d="M362.52,238.33l-16.7-1.23a1267,1267,0,0,0-1-198.77l16.69-1.39A1284.62,1284.62,0,0,1,362.52,238.33Z"/><path class="cls-2" d="M361.53,36.94a1284.5,1284.5,0,0,1,1,201.38l-5.85-.43a1278.86,1278.86,0,0,0-1-200.46Z"/><path class="cls-1" d="M350.35,257.41l-16.7-1.23a1266.92,1266.92,0,0,0-1-198.76L349.36,56A1283.42,1283.42,0,0,1,350.35,257.41Z"/><path class="cls-2" d="M349.36,56a1283.28,1283.28,0,0,1,1,201.38L344.5,257a1277.64,1277.64,0,0,0-1-200.46Z"/><path class="cls-1" d="M219,231.9l-16.7-1.23a1266.92,1266.92,0,0,0-1-198.76L218,30.51A1283.41,1283.41,0,0,1,219,231.9Z"/><path class="cls-2" d="M218,30.51a1283.42,1283.42,0,0,1,1,201.39l-5.86-.44a1277.65,1277.65,0,0,0-1-200.46Z"/><path class="cls-1" d="M257.05,234.91l-16.7-1.22a1267,1267,0,0,0-1-198.77l16.69-1.39A1283.29,1283.29,0,0,1,257.05,234.91Z"/><path class="cls-2" d="M256.06,33.53a1283.29,1283.29,0,0,1,1,201.38l-5.85-.43a1278.85,1278.85,0,0,0-1-200.46Z"/><path class="cls-1" d="M170.66,241.43q-8.1-2.13-16.21-4.21A1264.71,1264.71,0,0,0,188.8,38.85q8.34.85,16.68,1.75A1282,1282,0,0,1,170.66,241.43Z"/><path class="cls-2" d="M205.47,40.6a1280.57,1280.57,0,0,1-34.81,200.83L165,239.94A1275.49,1275.49,0,0,0,199.63,40Z"/><path class="cls-1" d="M178.46,262.31q-8.1-2.12-16.21-4.21A1264.78,1264.78,0,0,0,196.6,59.74q8.34.85,16.67,1.74A1280.57,1280.57,0,0,1,178.46,262.31Z"/><path class="cls-2" d="M213.27,61.49a1280.65,1280.65,0,0,1-34.81,200.82l-5.68-1.48a1275.69,1275.69,0,0,0,34.65-200Z"/><path class="cls-1" d="M203.09,231.78q-8.1-2.11-16.21-4.21A1264.78,1264.78,0,0,0,221.23,29.21q8.34.86,16.68,1.74A1281.74,1281.74,0,0,1,203.09,231.78Z"/><path class="cls-2" d="M237.91,31a1281.74,1281.74,0,0,1-34.82,200.83l-5.68-1.49a1275.29,1275.29,0,0,0,34.65-200Z"/><path class="cls-1" d="M259.94,240.17q-8.12-2.11-16.21-4.21A1264.78,1264.78,0,0,0,278.08,37.6l16.67,1.74A1281.73,1281.73,0,0,1,259.94,240.17Z"/><path class="cls-2" d="M294.75,39.34a1282.9,1282.9,0,0,1-34.81,200.83l-5.69-1.49a1274.13,1274.13,0,0,0,34.65-200Z"/><path class="cls-1" d="M216.62,250.87q-8.1-2.12-16.21-4.21A1264.8,1264.8,0,0,0,234.77,48.3L251.44,50A1281.74,1281.74,0,0,1,216.62,250.87Z"/><path class="cls-2" d="M251.44,50a1281.74,1281.74,0,0,1-34.82,200.83l-5.68-1.49a1275.29,1275.29,0,0,0,34.65-200Z"/><path class="cls-1" d="M198.69,282.32q-8.1-2.11-16.21-4.21A1264.78,1264.78,0,0,0,216.83,79.75q8.34.85,16.68,1.74A1281.74,1281.74,0,0,1,198.69,282.32Z"/><path class="cls-2" d="M233.51,81.5a1281.82,1281.82,0,0,1-34.82,200.82L193,280.83A1275.36,1275.36,0,0,0,227.66,80.88Z"/><path class="cls-1" d="M157.79,209q-8.1-2.13-16.21-4.22A1264.38,1264.38,0,0,0,175.93,6.46q8.34.86,16.67,1.75A1280.77,1280.77,0,0,1,157.79,209Z"/><path class="cls-2" d="M192.6,8.21A1280.65,1280.65,0,0,1,157.79,209l-5.68-1.48a1275.69,1275.69,0,0,0,34.65-200Z"/><path class="cls-1" d="M217.58,198.57q-7.58-3.6-15.17-7.12A1197.93,1197.93,0,0,0,271.75,0q8.06,2.51,16.1,5.07A1213.5,1213.5,0,0,1,217.58,198.57Z"/><path class="cls-2" d="M287.85,5.08a1213.27,1213.27,0,0,1-70.27,193.48l-5.31-2.51A1208.46,1208.46,0,0,0,282.21,3.28Z"/><path class="cls-3" d="M442.25,77.94a427.51,427.51,0,0,0-72.83,103l-21.77.84a332.45,332.45,0,0,1,84.56-114.7Z"/><path class="cls-2" d="M442.25,78.39a427.5,427.5,0,0,0-72.84,103l-9.85.38c8.24-17.58,21.1-37.42,37.56-59.06,14.78-19.42,28.68-35.83,42-47.7Z"/><path class="cls-3" d="M443.75,57a428,428,0,0,0-86.59,91.71l-21.67-2.23A332.43,332.43,0,0,1,435.33,44.82Z"/><path class="cls-2" d="M443.69,57.46a426.85,426.85,0,0,0-86.6,91.72l-9.81-1c10.63-16.25,26.16-34.08,45.5-53.19,17.36-17.15,33.43-31.44,48.28-41.33C441.94,54.92,442.81,56.2,443.69,57.46Z"/><path class="cls-3" d="M413.91,69.69A654.63,654.63,0,0,0,302.35,227.41L269,228.69A509.13,509.13,0,0,1,398.52,53Z"/><path class="cls-2" d="M413.91,70.38A654.61,654.61,0,0,0,302.34,228.11l-15.09.58c12.63-26.92,32.32-57.31,57.53-90.45,22.64-29.75,43.93-54.88,64.32-73.06C410.7,66.91,412.3,68.65,413.91,70.38Z"/><path class="cls-3" d="M300.85,83.72A655.16,655.16,0,0,0,189.29,241.44L156,242.73A509,509,0,0,1,285.46,67.05Z"/><path class="cls-2" d="M300.85,84.42A655,655,0,0,0,189.28,242.14l-15.08.59c12.62-26.93,32.31-57.32,57.52-90.46,22.64-29.75,43.93-54.88,64.32-73.06C297.65,80.94,299.24,82.69,300.85,84.42Z"/><path class="cls-3" d="M355.05,83.72A655.16,655.16,0,0,0,243.49,241.44l-33.34,1.29A509,509,0,0,1,339.66,67.05Z"/><path class="cls-2" d="M355.05,84.42A655,655,0,0,0,243.48,242.14l-15.08.59c12.62-26.93,32.31-57.32,57.53-90.46,22.63-29.75,43.92-54.88,64.31-73.06C351.85,80.94,353.44,82.69,355.05,84.42Z"/><path class="cls-3" d="M1.5,94.39A428.47,428.47,0,0,1,39.17,139.6a427.59,427.59,0,0,1,35.16,57.77l21.77.84a332.77,332.77,0,0,0-39.07-66A332.48,332.48,0,0,0,11.54,83.51Q6.52,89,1.5,94.39Z"/><path class="cls-2" d="M1.5,94.85a428.47,428.47,0,0,1,37.68,45.21,428,428,0,0,1,35.16,57.77l9.85.38c-8.24-17.58-21.1-37.42-37.56-59.06-14.78-19.42-28.68-35.83-42-47.7Z"/><path class="cls-3" d="M0,80.52A427.17,427.17,0,0,1,43.66,120a428.46,428.46,0,0,1,42.93,52.25L108.26,170a332.51,332.51,0,0,0-47.95-59.81A333,333,0,0,0,8.42,68.33Z"/><path class="cls-2" d="M.06,81a427.19,427.19,0,0,1,43.67,39.46,427.7,427.7,0,0,1,42.93,52.25l9.81-1C85.84,155.43,70.31,137.59,51,118.48,33.61,101.33,17.54,87,2.69,77.16Z"/><path class="cls-3" d="M177,142.71a428.2,428.2,0,0,1,43.65,39.46,427.69,427.69,0,0,1,42.94,52.25l21.67-2.23a332.6,332.6,0,0,0-48-59.8,332.17,332.17,0,0,0-51.89-41.87Q181.21,136.63,177,142.71Z"/><path class="cls-2" d="M177.06,143.16a429.41,429.41,0,0,1,43.66,39.46,428.8,428.8,0,0,1,42.94,52.25l9.8-1c-10.63-16.25-26.15-34.09-45.49-53.2-17.36-17.14-33.43-31.44-48.28-41.32Z"/><path class="cls-3" d="M15,66.44a655.85,655.85,0,0,1,57.71,69.24,656.27,656.27,0,0,1,53.85,88.48l33.34,1.29a509.21,509.21,0,0,0-59.84-101A509.6,509.6,0,0,0,30.39,49.77Z"/><path class="cls-2" d="M15,67.14a653.62,653.62,0,0,1,57.71,69.24,655.18,655.18,0,0,1,53.86,88.48l15.08.59C129,198.52,109.34,168.13,84.13,135,61.49,105.24,40.2,80.11,19.81,61.93,18.2,63.66,16.61,65.4,15,67.14Z"/><path class="cls-3" d="M67.24,85.53a656,656,0,0,1,57.7,69.24,655.8,655.8,0,0,1,53.86,88.48l33.34,1.28a509.38,509.38,0,0,0-59.84-101A508.57,508.57,0,0,0,82.63,68.86Z"/><path class="cls-2" d="M67.24,86.22A657.25,657.25,0,0,1,125,155.47,655.44,655.44,0,0,1,178.8,244l15.09.58c-12.62-26.92-32.32-57.31-57.53-90.46C113.72,124.33,92.43,99.19,72.05,81,70.44,82.75,68.85,84.49,67.24,86.22Z"/><path class="cls-4" d="M89.59,139.13h-54l54,333,9,13.5,9,13.5c7-7.12,46-45,108-45,10,0,64.35,1,108,45l18-27,54-333h-54c-14.52,60.37-64,99.2-126,99C153.35,237.93,103.46,199.91,89.59,139.13Z"/><path class="cls-5" d="M89.59,132.63h-54l54,333,9,13.5,9,13.5c7-7.12,46-45,108-45,10,0,64.35,1,108,45l18-27,54-333h-54c-14.52,60.37-64,99.2-126,99C153.35,231.43,103.46,193.41,89.59,132.63Z"/><path class="cls-6" d="M395.59,132.63l-54,333-18,27c-18-18-23.54-18.44-36-27l81-333Z"/><path class="cls-6" d="M35.59,132.63l54,333,18,27c18-18,23.53-18.44,36-27l-81-333Z"/><path class="cls-7" d="M395.59,132.63l-3.54,21.86H341.59c-14.51,60.37-64,99.2-126,99-62.24-.2-112.13-38.22-126-99H39.13l-3.54-21.86h54c13.87,60.79,63.76,98.8,126,99,62,.2,111.49-38.62,126-99Z"/></g></g></svg>