<svg xmlns="http://www.w3.org/2000/svg" width="299.566" height="142.108" viewBox="0 0 299.566 142.108"><g transform="translate(-1349.992 -3329)"><path d="M289.053,31.1l-21.4-21.119L249.535,28.341a46.677,46.677,0,0,0-6.289-2.553L243.066,0,213,.2l.173,25.78a47.4,47.4,0,0,0-6.261,2.644L188.561,10.52l-21.12,21.4,18.351,18.107a46.677,46.677,0,0,0-2.553,6.289l-25.781.173.2,30.073L183.44,86.4a48.165,48.165,0,0,0,2.644,6.247L167.971,111l21.405,21.12,18.113-18.358a48.537,48.537,0,0,0,6.282,2.56l.173,25.781,30.08-.2-.18-25.787a46.215,46.215,0,0,0,6.262-2.63l18.35,18.106,21.12-21.4L271.225,92.084a46.083,46.083,0,0,0,2.553-6.3l25.788-.165-.209-30.073-25.78.173a47.337,47.337,0,0,0-2.637-6.255Zm-36.61,17.542c.242.253.47.506.691.766.264.288.52.583.763.879.114.14.228.281.335.429q.353.432.663.865c.25.331.485.662.721,1.007q.771,1.14,1.437,2.3c.172.31.343.62.5.93.208.4.415.8.609,1.22.007.007.015.014.008.021.193.4.38.824.559,1.241.18.444.36.888.518,1.325.144.367.274.748.4,1.122.007.035.029.071.036.12.231.72.441,1.433.623,2.16.036.134.065.261.094.388.08.318.153.642.219.96.1.473.19.947.257,1.42.14.84.244,1.674.313,2.515.008.049.008.106.016.156.023.374.047.735.064,1.1.017.424.026.841.029,1.266s0,.841-.013,1.266c-.018.36-.037.721-.049,1.089a1.484,1.484,0,0,0-.013.17c-.058.728-.131,1.457-.225,2.179-.149,1.062-.347,2.117-.6,3.172-.069.3-.145.588-.228.886-.11.41-.221.821-.352,1.225a33.552,33.552,0,0,1-2.059,5.077c-.189.362-.377.724-.587,1.093-.168.312-.342.617-.531.909-.2.34-.406.667-.623,1-.105.163-.21.326-.322.483-.175.263-.35.525-.539.774-.533.753-1.115,1.485-1.732,2.2-.218.263-.449.526-.681.775-.288.32-.59.64-.892.947s-.618.612-.934.9c-.246.235-.492.456-.745.684-.056.042-.1.092-.162.135-.154.143-.323.285-.492.428l-.232.192c-.148.121-.295.242-.45.357-.521.413-1.041.8-1.576,1.17-.169.128-.345.25-.528.364a32.284,32.284,0,0,1-3.656,2.125c-.31.157-.62.3-.93.444-.212.1-.43.194-.642.28q-1.332.582-2.694,1.023a.6.6,0,0,1-.113.043c-.183.058-.367.115-.557.166-.53.166-1.073.319-1.61.449-.24.073-.487.124-.727.182-.035.007-.064.008-.085.015-.494.116-1,.219-1.5.3a33.005,33.005,0,0,1-8,.421c-.424-.025-.849-.065-1.266-.112a1.268,1.268,0,0,0-.142-.013c-.361-.047-.736-.094-1.111-.155-.474-.06-.949-.149-1.423-.238-.318-.061-.644-.13-.963-.206-.127-.027-.255-.054-.389-.089-.73-.172-1.445-.372-2.168-.593a32.467,32.467,0,0,1-5.077-2.06c-.312-.153-.624-.321-.937-.488q-1.17-.651-2.321-1.406c-.348-.231-.682-.462-1.016-.708q-.438-.3-.874-.651a5.021,5.021,0,0,1-.427-.337c-.306-.231-.6-.484-.9-.743-.263-.218-.519-.442-.775-.681-.32-.288-.641-.59-.947-.892s-.612-.618-.9-.934c-.242-.253-.47-.506-.691-.766-.264-.288-.52-.584-.755-.886a4.818,4.818,0,0,1-.343-.422q-.353-.432-.663-.866c-.25-.33-.485-.661-.721-1.006-.279-.415-.557-.831-.815-1.253-.164-.261-.314-.521-.464-.782-.058-.1-.108-.19-.158-.267-.172-.311-.343-.62-.5-.93-.208-.4-.409-.811-.609-1.22v-.014c-.194-.416-.388-.832-.56-1.255s-.345-.846-.5-1.269l-.411-1.164a.4.4,0,0,1-.036-.12c-.267-.812-.492-1.623-.7-2.442-.1-.417-.2-.826-.277-1.243-.007-.007-.007-.007-.007-.021-.081-.4-.147-.805-.214-1.222s-.132-.834-.185-1.25-.1-.841-.128-1.265a32.614,32.614,0,0,1,.314-8.007c.074-.5.17-1.012.279-1.508a.427.427,0,0,1,.014-.085c.055-.241.1-.489.172-.729.116-.546.268-1.084.427-1.616.049-.191.1-.375.159-.559a.549.549,0,0,1,.042-.114c.284-.914.61-1.814.986-2.708.084-.212.174-.432.272-.645.139-.312.278-.624.432-.936a32.07,32.07,0,0,1,2.075-3.684q.21-.34.441-.661a.63.63,0,0,1,.035-.063c.273-.391.56-.782.848-1.173.042-.057.091-.121.14-.185.133-.163.259-.334.393-.5l.189-.235c.14-.17.281-.341.421-.5.042-.056.091-.106.133-.163.225-.256.442-.505.674-.754.288-.32.59-.641.892-.947s.618-.612.934-.9c.253-.242.506-.47.766-.691.289-.264.584-.52.886-.756.148-.135.31-.256.464-.385.085-.057.162-.121.232-.178.345-.264.69-.528,1.042-.771.07-.057.148-.107.211-.156.2-.143.387-.265.584-.393.331-.222.655-.436.993-.636.289-.193.592-.372.9-.544.367-.214.726-.408,1.085-.6a33.45,33.45,0,0,1,5.049-2.127c.4-.137.812-.253,1.221-.369.3-.087.586-.166.882-.239,1.052-.269,2.1-.481,3.164-.644.72-.1,1.448-.186,2.176-.254a1.276,1.276,0,0,0,.17-.016c.367-.016.728-.04,1.088-.064.424-.017.842-.026,1.266-.029s.841,0,1.266.012c.367.012.728.031,1.1.05.05.006.106.006.156.013.842.058,1.677.151,2.512.273,0,0,.007-.007.007.007.418.061.821.122,1.225.2.014,0,.014,0,.021.007.411.082.828.171,1.246.26.822.192,1.636.406,2.451.662a.4.4,0,0,1,.121.035q.6.188,1.169.4c.433.146.858.313,1.276.487s.851.347,1.263.543h.014c.411.195.822.39,1.227.592.312.154.624.321.937.489.078.049.17.1.269.154.263.147.526.293.788.454.426.252.845.525,1.264.8.348.231.682.462,1.016.707q.438.3.874.652c.15.1.292.217.434.329.3.239.6.491.889.751.263.218.519.442.775.681.32.288.64.589.947.892s.612.618.9.934" transform="translate(1349.992 3329)" fill="#454545"/><path d="M218.322,39.885l41.493,40.94a33.552,33.552,0,0,1-2.059,5.077l-14.107.087-8.81.06-16.091,16.308a32.467,32.467,0,0,1-5.077-2.06l-.237-35.368-.059-8.811-.1-14.106a33.509,33.509,0,0,1,5.049-2.127" transform="translate(1349.992 3329)" fill="#1286bc"/><path d="M141.92,86.089V56.019H116.13a46.715,46.715,0,0,0-2.6-6.27l18.23-18.24L110.5,10.249,92.27,28.479a47.4,47.4,0,0,0-6.28-2.6V.1H55.92v25.78a46.717,46.717,0,0,0-6.27,2.6L31.42,10.249,10.15,31.509l18.23,18.24a48.016,48.016,0,0,0-2.59,6.27H0v30.07H25.79a48.6,48.6,0,0,0,2.59,6.27l-18.23,18.23,21.27,21.27,18.23-18.24a46.011,46.011,0,0,0,6.27,2.61v25.78H85.99v-25.78a46.138,46.138,0,0,0,6.28-2.61l18.23,18.24,21.26-21.27-18.23-18.23a47.264,47.264,0,0,0,2.6-6.27Zm-38.2-13.74c-.01.35-.03.69-.06,1.03-.02.39-.05.78-.09,1.16-.02.18-.04.36-.07.54q-.06.555-.15,1.08c-.06.41-.13.81-.21,1.22q-.27,1.35-.63,2.64c-.1.34-.2.68-.31,1.01-.14.43-.28.86-.44,1.29,0,.01,0,.02-.01.02-.15.42-.32.85-.49,1.27-.19.44-.38.88-.58,1.3-.16.36-.34.72-.52,1.07-.02.03-.03.07-.06.11-.35.67-.71,1.32-1.1,1.96-.07.12-.14.23-.21.34-.17.28-.35.56-.53.83-.27.4-.54.8-.83,1.18-.5.69-1.02,1.35-1.57,1.99-.03.04-.07.08-.1.12-.25.28-.49.55-.74.82-.29.31-.58.61-.88.91s-.6.59-.91.88c-.27.24-.54.48-.81.73a1.266,1.266,0,0,0-.13.11c-.56.47-1.13.93-1.71,1.37-.86.64-1.75,1.24-2.68,1.8-.26.16-.52.31-.79.46-.37.21-.74.42-1.12.61a33.493,33.493,0,0,1-5.06,2.1c-.39.12-.78.24-1.19.35-.34.1-.68.19-1.02.26-.38.1-.76.18-1.15.26-.19.04-.38.08-.57.11-.31.06-.62.12-.93.16-.91.15-1.84.25-2.78.31-.34.03-.69.05-1.03.06-.43.02-.87.03-1.3.03s-.87-.01-1.3-.03c-.34-.01-.67-.03-1.01-.05-.07-.01-.14-.01-.21-.02-.21-.01-.43-.03-.65-.05l-.3-.03c-.19-.02-.38-.04-.57-.07-.66-.08-1.3-.18-1.94-.3q-.315-.045-.63-.12a32.239,32.239,0,0,1-4.08-1.11c-.33-.11-.65-.23-.97-.35-.22-.08-.44-.17-.65-.26-.9-.36-1.77-.76-2.62-1.2a.536.536,0,0,1-.11-.05c-.17-.09-.34-.18-.51-.28-.49-.26-.98-.54-1.45-.83-.22-.12-.43-.26-.64-.39-.03-.02-.05-.04-.07-.05-.43-.27-.86-.56-1.27-.86a32.99,32.99,0,0,1-5.92-5.4c-.28-.32-.55-.65-.81-.98a1.063,1.063,0,0,0-.09-.11c-.22-.29-.45-.59-.67-.9-.29-.38-.56-.78-.83-1.18-.18-.27-.36-.55-.53-.83-.07-.11-.14-.22-.21-.34-.39-.64-.75-1.29-1.1-1.96a32.493,32.493,0,0,1-2.1-5.06c-.11-.33-.21-.67-.31-1.01q-.36-1.29-.63-2.64c-.08-.41-.15-.81-.21-1.22q-.09-.525-.15-1.08a4.954,4.954,0,0,1-.06-.54c-.05-.38-.08-.77-.1-1.16-.03-.34-.05-.68-.06-1.03-.02-.43-.03-.87-.03-1.3s.01-.87.03-1.3c.01-.35.03-.69.06-1.03.02-.39.05-.78.1-1.16a4.954,4.954,0,0,1,.06-.54q.06-.555.15-1.08c.06-.41.13-.81.21-1.22.1-.49.2-.98.32-1.46.07-.3.15-.59.23-.88.03-.11.06-.21.08-.3.1-.34.2-.68.31-1.01.14-.43.29-.86.44-1.29l.01-.01c.16-.43.32-.86.5-1.28s.36-.84.55-1.25l.54-1.11a.388.388,0,0,1,.06-.11c.39-.76.81-1.49,1.25-2.21.23-.36.45-.72.69-1.07,0-.01,0-.01.01-.02.23-.34.47-.67.72-1.01s.5-.68.76-1.01.53-.66.81-.98a32.623,32.623,0,0,1,5.92-5.4c.41-.3.84-.59,1.27-.86a.423.423,0,0,1,.07-.05c.21-.13.42-.27.64-.39.47-.3.96-.57,1.45-.83.17-.1.34-.19.51-.28a.536.536,0,0,1,.11-.05c.85-.44,1.72-.84,2.62-1.2.21-.09.43-.18.65-.26.32-.12.64-.24.97-.35a32.241,32.241,0,0,1,4.08-1.11q.39-.09.78-.15a.637.637,0,0,1,.07-.02c.47-.08.95-.15,1.43-.22l.23-.03c.21-.02.42-.05.63-.07l.3-.03c.22-.02.44-.04.65-.05.07-.01.14-.01.21-.02.34-.02.67-.04,1.01-.05.43-.02.87-.03,1.3-.03s.87.01,1.3.03c.35.01.69.03,1.03.06.39.02.78.05,1.16.1.2.01.4.04.6.06.1.02.2.03.29.04.43.06.86.12,1.28.2.09.01.18.03.26.04.24.04.46.09.69.14.39.08.77.16,1.15.26.34.07.68.16,1.02.26.41.11.8.23,1.19.35a33.492,33.492,0,0,1,5.06,2.1c.38.19.75.4,1.12.61.27.15.53.3.79.46.93.56,1.82,1.16,2.68,1.8.58.44,1.15.9,1.71,1.37a1.266,1.266,0,0,0,.13.11c.27.25.54.49.81.73.31.29.61.58.91.88s.59.6.88.91c.25.27.49.54.74.82.03.04.07.08.1.12.55.64,1.07,1.3,1.57,1.98,0,0,.01,0,0,.01.25.34.49.67.72,1.01.01.01.01.01.01.02.23.35.46.71.69,1.07.44.72.86,1.45,1.25,2.21a.388.388,0,0,1,.06.11q.285.555.54,1.11c.2.41.38.83.55,1.25s.35.85.5,1.28l.01.01c.15.43.3.86.44,1.29.11.33.21.67.31,1.01.02.09.05.19.08.3.08.29.16.58.23.88.12.48.22.97.32,1.46.08.41.15.81.21,1.22q.09.525.15,1.08c.03.18.05.36.07.54.04.38.07.77.09,1.16.03.34.05.68.06,1.03.02.43.03.87.03,1.3s-.01.87-.03,1.3" transform="translate(1349.992 3329)" fill="#454545"/><path d="M85.99,41.909V100.2a33.493,33.493,0,0,1-5.06,2.1l-9.97-9.98-6.23-6.23H41.82a32.493,32.493,0,0,1-2.1-5.06l25.01-25.01,6.23-6.23,9.97-9.98a33.492,33.492,0,0,1,5.06,2.1" transform="translate(1349.992 3329)" fill="#1286bc"/><rect width="299.566" height="142.108" transform="translate(1349.992 3329)" fill="none"/></g></svg>