<svg xmlns="http://www.w3.org/2000/svg" xmlns:xlink="http://www.w3.org/1999/xlink" viewBox="0 0 285.55 160.37"><defs><style>.cls-1,.cls-5{fill:#9e6d67;}.cls-1,.cls-10,.cls-7{stroke:#9e6d67;}.cls-1,.cls-10,.cls-13,.cls-3,.cls-4,.cls-6,.cls-7,.cls-9{stroke-miterlimit:10;}.cls-1,.cls-7{stroke-width:0.25px;}.cls-2{fill:#855c56;}.cls-10,.cls-13,.cls-3,.cls-4,.cls-6,.cls-7,.cls-9{fill:none;}.cls-13,.cls-3,.cls-4,.cls-6,.cls-9{stroke:#593e3a;}.cls-3{stroke-width:0.61px;}.cls-6{stroke-width:0.5px;}.cls-8{fill:url(#New_Gradient_Swatch_copy_3);}.cls-9{stroke-width:1.21px;}.cls-10{stroke-width:0.5px;}.cls-11{fill:url(#New_Gradient_Swatch_copy_3-2);}.cls-12{fill:url(#New_Gradient_Swatch_copy_3-3);}.cls-13{stroke-width:1.46px;}</style><linearGradient id="New_Gradient_Swatch_copy_3" x1="190.98" y1="90.33" x2="291.6" y2="90.33" gradientUnits="userSpaceOnUse"><stop offset="0" stop-color="#ab6c63"/><stop offset="0.29" stop-color="#a56961"/><stop offset="0.69" stop-color="#93615a"/><stop offset="1" stop-color="#805853"/></linearGradient><linearGradient id="New_Gradient_Swatch_copy_3-2" x1="32.9" y1="98.24" x2="126.91" y2="98.24" xlink:href="#New_Gradient_Swatch_copy_3"/><linearGradient id="New_Gradient_Swatch_copy_3-3" x1="138.04" y1="101.33" x2="198.11" y2="149.03" xlink:href="#New_Gradient_Swatch_copy_3"/></defs><g id="Layer_2" data-name="Layer 2"><g id="Layer_1-2" data-name="Layer 1"><path class="cls-1" d="M124.2,67.17,113.35,93.82c-.34-.58-.67-1.16-1-1.74-.72-1.27-1.43-2.54-2.14-3.82a30.17,30.17,0,0,0,1.38-7.35,30,30,0,0,0,3.11-11.54c1.7-2.82,2.67-6.29,3.52-10.42C120.06,62.5,121.92,65.33,124.2,67.17Z" transform="translate(-6.05 -4.03)"/><path class="cls-2" d="M138.53,83.87c-.29.56-.6,1.12-.92,1.68-.2,3.06-1.44,6.26-2.86,9.5-1.14,3.07-2.48,6.19-3.86,9.24-.36.85-.73,1.7-1.11,2.54-.19.42-.38.84-.58,1.25s-.26.57-.4.85l-.07.14c-.1.2-.19.4-.3.59s-.29.58-.45.87c-.42.8-.86,1.59-1.34,2.35-.24.38-.48.76-.73,1.13-2-2.91-3.93-5.69-4.93-7.31-2.61-4.25-5.17-8.55-7.63-12.88L124.2,67.17l.07,0a23.36,23.36,0,0,0,7.16,8.87c1.3,2.48,3.71,4.89,6.67,7.36Z" transform="translate(-6.05 -4.03)"/><path class="cls-3" d="M119.38,85.84h6" transform="translate(-6.05 -4.03)"/><path class="cls-3" d="M128.83,87l4.83-.14" transform="translate(-6.05 -4.03)"/><path class="cls-3" d="M120.48,94.6a17.43,17.43,0,0,0,6.76.59c2.24-.39,4.44-1.9,4.94-4.12" transform="translate(-6.05 -4.03)"/><path class="cls-4" d="M121,87.75h.3" transform="translate(-6.05 -4.03)"/><path class="cls-5" d="M174.5,87.86a2.83,2.83,0,0,1,.31-.74c-2.78-2.79-4.05-4.48-3.75-5.81a11.11,11.11,0,0,1-2.71-4.4l.15-.16a11.29,11.29,0,0,0,8.15-5.83c2.5-.94,4.33-2.31,5.1-4.33a7.48,7.48,0,0,0,4.64-5.76c2.29-1,3.57-3,4.23-5.85A10.81,10.81,0,0,0,194,49.15a26.2,26.2,0,0,0,2.44-6.46,49.24,49.24,0,0,0,1.36-6.92,43.64,43.64,0,0,0,3,6.65c.51,1,1.05,1.9,1.6,2.77Z" transform="translate(-6.05 -4.03)"/><path class="cls-2" d="M218.51,63.68c-.62.71-1.28,1.39-1.95,2.05-1.86,2.78-3.94,5.33-5.69,8.45a24.54,24.54,0,0,0-6.05,7.66,24.63,24.63,0,0,0-6.27,7.35,36.26,36.26,0,0,0-6.18,7.32,54.2,54.2,0,0,0-6.1,7.3l-2.87,3.3c-.89-1.67-1.9-3.37-3.16-5.37a64.22,64.22,0,0,1-2.94-7.61c-1.87-2.09-3.24-4.48-2.8-6.27l27.92-42.67a20.52,20.52,0,0,0,2.28,3.05,16.73,16.73,0,0,0,4.86,5.68,14.86,14.86,0,0,0,5.61,5.68A13.49,13.49,0,0,0,218.51,63.68Z" transform="translate(-6.05 -4.03)"/><path class="cls-6" d="M195.51,62.35h4.87" transform="translate(-6.05 -4.03)"/><path class="cls-6" d="M203.26,63.32l4-.12" transform="translate(-6.05 -4.03)"/><path class="cls-6" d="M196.41,69.53A14.28,14.28,0,0,0,202,70,4.88,4.88,0,0,0,206,66.63" transform="translate(-6.05 -4.03)"/><path class="cls-5" d="M264.41,25.34c0,.11,0,.22,0,.32L191,123.43c-.77-1.41-1.44-2.78-2-4.06-2-3-3.67-5.69-5.37-7.74-.7-1.6-1.41-3.07-2.23-4.57.87-1,1.82-2.11,2.88-3.31a53.72,53.72,0,0,1,6.12-7.33,35.94,35.94,0,0,1,6.21-7.35,24.67,24.67,0,0,1,6.29-7.38A24.46,24.46,0,0,1,208.94,74c1.75-3.14,3.83-5.7,5.71-8.48.67-.67,1.33-1.35,1.95-2.06a49.18,49.18,0,0,0,4.49-6,38.28,38.28,0,0,0,5.81-7.12,26,26,0,0,0,5.83-8.07A17.27,17.27,0,0,0,239,34.4a34.17,34.17,0,0,0,8.64-10,13.56,13.56,0,0,0,4.45-5.26,18.16,18.16,0,0,0,4.35-4.91,46.32,46.32,0,0,0,4.16-4.78c1.39-1.65,2.77-3.35,4.15-5.06-.24,3.56-.42,7.12-.43,10.39A50.9,50.9,0,0,0,264.41,25.34Z" transform="translate(-6.05 -4.03)"/><path class="cls-7" d="M264.41,25.34c0,.11,0,.22,0,.32L191,123.43c-.77-1.41-1.44-2.78-2-4.06-2-3-3.67-5.69-5.37-7.74-.7-1.6-1.41-3.07-2.23-4.57.87-1,1.82-2.11,2.88-3.31a53.72,53.72,0,0,1,6.12-7.33,35.94,35.94,0,0,1,6.21-7.35,24.67,24.67,0,0,1,6.29-7.38A24.46,24.46,0,0,1,208.94,74c1.75-3.14,3.83-5.7,5.71-8.48.67-.67,1.33-1.35,1.95-2.06a49.18,49.18,0,0,0,4.49-6,38.28,38.28,0,0,0,5.81-7.12,26,26,0,0,0,5.83-8.07A17.27,17.27,0,0,0,239,34.4a34.17,34.17,0,0,0,8.64-10,13.56,13.56,0,0,0,4.45-5.26,18.16,18.16,0,0,0,4.35-4.91,46.32,46.32,0,0,0,4.16-4.78c1.39-1.65,2.77-3.35,4.15-5.06-.24,3.56-.42,7.12-.43,10.39A50.9,50.9,0,0,0,264.41,25.34Z" transform="translate(-6.05 -4.03)"/><path class="cls-8" d="M291.6,152.3c-34.22-16.93-18.35-8-32.13-4.39-8.39,2.2-22.21-1.68-29.77,2.56A35,35,0,0,1,216.15,155c-1.2-1.88-2.28-3.59-3.2-5-2-3.22-3.69-5.89-5.24-8.55-1.77-2.71-3.41,5-4.41,2.51-2.26-2.9-3.87-5.61-4.2-7.26-.81-1.06-1.52-2-2.16-3a44.49,44.49,0,0,1-3.64-6.29c-.28-.45-.55-.88-.82-1.33s-.66-1.1-1-1.65l-.54-1,73.39-97.77a34,34,0,0,0,.29,11.08,32.23,32.23,0,0,0,.81,10.63,50.69,50.69,0,0,0-.27,10.34c.14,3.68.48,7.22,2.09,9.23-.84,5.08-.41,8.63,2.65,11.83-2.09,3.85-1.54,7.37.91,11.21-.5,3.77-.25,7,1.18,9.45-.44,4.25,6.55,7.74,8.52,11.77a26.43,26.43,0,0,0,1.85,9c.38,4.34,1.33,7.77,3.87,10-.23,5.72,1.18,10.26,4.09,15.49A25.81,25.81,0,0,0,291.6,152.3Z" transform="translate(-6.05 -4.03)"/><path class="cls-9" d="M229.22,68.4h11.83" transform="translate(-6.05 -4.03)"/><path class="cls-9" d="M248,70.75l9.62-.29" transform="translate(-6.05 -4.03)"/><path class="cls-9" d="M231.4,85.83c4.43,1,9,2,13.45,1.18s8.86-3.79,9.85-8.21" transform="translate(-6.05 -4.03)"/><path class="cls-5" d="M94.11,44.46,32.9,142.14c-8.65-.32-16.91-.8-26-.9,1.13-.77,2.24-1.57,3.34-2.38q2.25-1.68,4.4-3.49a13,13,0,0,0,3.92-3.56c2-.81,3.5-2,3.77-4,2-.36,3.31-1.13,3.65-2.64a3.75,3.75,0,0,0,3.47-3.45,3.4,3.4,0,0,0,3.73-2.63c1.58,0,2.68-1,3.59-2.69a31.26,31.26,0,0,0,6.53-5.45c1-1,2.06-2.12,2.79-3a9.4,9.4,0,0,0,2.48-3.07c1.78-1.47,2.75-2.58,2.44-3.4,2.23-1.44,3.17-2.58,2.69-3.79a13.28,13.28,0,0,0,4-4.29c1.81-1.88,2.81-3.7,1.91-5.58C63.77,85.6,65.73,82.4,65.22,77c4.14-1.13,5.82-4.48,5.45-8.61,3.38-2.69,4.72-6.17,3.2-8.61a17.8,17.8,0,0,0,3.76-6.6,21.44,21.44,0,0,0,.49-7.89c2-.89,2.59-4.52,2.79-9.26a50.6,50.6,0,0,0,.37-9.88,78.26,78.26,0,0,0-1.25-11q1.89,5.27,3.9,10.49a74.11,74.11,0,0,0,4.32,9.71C89.49,39.45,90.94,42.84,94.11,44.46Z" transform="translate(-6.05 -4.03)"/><path class="cls-10" d="M94.11,44.46,32.9,142.14c-8.65-.32-16.91-.8-26-.9,1.13-.77,2.24-1.57,3.34-2.38q2.25-1.68,4.4-3.49a13,13,0,0,0,3.92-3.56c2-.81,3.5-2,3.77-4,2-.36,3.31-1.13,3.65-2.64a3.75,3.75,0,0,0,3.47-3.45,3.4,3.4,0,0,0,3.73-2.63c1.58,0,2.68-1,3.59-2.69a31.26,31.26,0,0,0,6.53-5.45c1-1,2.06-2.12,2.79-3a9.4,9.4,0,0,0,2.48-3.07c1.78-1.47,2.75-2.58,2.44-3.4,2.23-1.44,3.17-2.58,2.69-3.79a13.28,13.28,0,0,0,4-4.29c1.81-1.88,2.81-3.7,1.91-5.58C63.77,85.6,65.73,82.4,65.22,77c4.14-1.13,5.82-4.48,5.45-8.61,3.38-2.69,4.72-6.17,3.2-8.61a17.8,17.8,0,0,0,3.76-6.6,21.44,21.44,0,0,0,.49-7.89c2-.89,2.59-4.52,2.79-9.26a50.6,50.6,0,0,0,.37-9.88,78.26,78.26,0,0,0-1.25-11q1.89,5.27,3.9,10.49a74.11,74.11,0,0,0,4.32,9.71C89.49,39.45,90.94,42.84,94.11,44.46Z" transform="translate(-6.05 -4.03)"/><path class="cls-11" d="M126.91,113c-.38.43-.78.85-1.2,1.25a20.43,20.43,0,0,1-3.18,2.53c-.35,8.35-3.69,14.34-7.75,20.53a58.88,58.88,0,0,1-4.9,8.27,52.23,52.23,0,0,1-6,6.43c-1.21-.56-2.5-1.1-3.84-1.63-1.43-5.55-3.17-17.47-5.72-16.84-.5,4.38-2.63-7.14-6.73-5.22,0,4-2.18,6.65-6,7.88a10.6,10.6,0,0,1-5.11,7.53c-6.25-1.26-11.45-1.93-13.73-1.79a295.42,295.42,0,0,1-29.89.19L94.11,44.46l.14.08a14.33,14.33,0,0,0,1,6.7,15.53,15.53,0,0,0,4.22,5.39,8.89,8.89,0,0,0,.37,5,31.61,31.61,0,0,0,2.47,5.2c.68,1.55,1.43,3.16,2.23,4.8s1.68,3.28,2.56,4.93c.42.79.84,1.58,1.27,2.36.52,1,1,1.95,1.58,2.92L111.2,84c.71,1.28,1.42,2.55,2.14,3.82.33.58.66,1.16,1,1.74,2.46,4.33,5,8.63,7.63,12.88,1,1.62,2.9,4.4,4.93,7.31l-.32.48a.61.61,0,0,1-.07.1l-.38.52c-.12.17-.26.35-.39.52C126.13,111.92,126.53,112.47,126.91,113Z" transform="translate(-6.05 -4.03)"/><path class="cls-4" d="M76.43,95.1h9.78" transform="translate(-6.05 -4.03)"/><path class="cls-4" d="M92,97.05l8-.24" transform="translate(-6.05 -4.03)"/><path class="cls-4" d="M78.23,109.52c3.66.81,7.44,1.63,11.13,1s7.32-3.14,8.13-6.79" transform="translate(-6.05 -4.03)"/><path class="cls-5" d="M157.48,51.61l-39.36,99.08a10.25,10.25,0,0,0-5.71.68c-18.08,7.66-38.14,14.49-57.66,12.4.65-.29,1.29-.6,1.91-.93,4-2,7.48-8.58,9.93-12.08a18.06,18.06,0,0,0,5-4.07c2-1.61,3.42-3.37,3.53-5.51.49-.27,1-.56,1.39-.85a10.6,10.6,0,0,0,5.11-7.53c3.82-1.23,6-3.89,6-7.88,4.1-1.92,6.23,9.6,6.73,5.22,2.55-.63,4.29,11.29,5.72,16.84,1.34.53,2.63,1.07,3.84,1.63a52.23,52.23,0,0,0,6-6.43,58.88,58.88,0,0,0,4.9-8.27c4.06-6.19,7.4-12.18,7.75-20.53a20.43,20.43,0,0,0,3.18-2.53c.42-.4.82-.82,1.2-1.25-.38-.54-.78-1.09-1.17-1.65.13-.17.27-.35.39-.52l.38-.52a.61.61,0,0,0,.07-.1c.1-.16.21-.32.32-.48.25-.37.49-.75.73-1.13.48-.76.92-1.55,1.34-2.35q.24-.43.45-.87l.3-.59s.05-.09.07-.14c.14-.28.27-.56.4-.85s.39-.83.58-1.25c.38-.84.74-1.69,1.11-2.54,1.38-3,2.72-6.17,3.86-9.24,1.42-3.24,2.66-6.44,2.86-9.5.32-.56.63-1.12.92-1.68A36.62,36.62,0,0,0,143.36,64c2.1-3.63,3.4-8,4.61-12.42s2.32-8.84,3.34-13.3C153.31,42.8,155.34,47.3,157.48,51.61Z" transform="translate(-6.05 -4.03)"/><path class="cls-10" d="M157.48,51.61l-39.36,99.08a10.25,10.25,0,0,0-5.71.68c-18.08,7.66-38.14,14.49-57.66,12.4.65-.29,1.29-.6,1.91-.93,4-2,7.48-8.58,9.93-12.08a18.06,18.06,0,0,0,5-4.07c2-1.61,3.42-3.37,3.53-5.51.49-.27,1-.56,1.39-.85a10.6,10.6,0,0,0,5.11-7.53c3.82-1.23,6-3.89,6-7.88,4.1-1.92,6.23,9.6,6.73,5.22,2.55-.63,4.29,11.29,5.72,16.84,1.34.53,2.63,1.07,3.84,1.63a52.23,52.23,0,0,0,6-6.43,58.88,58.88,0,0,0,4.9-8.27c4.06-6.19,7.4-12.18,7.75-20.53a20.43,20.43,0,0,0,3.18-2.53c.42-.4.82-.82,1.2-1.25-.38-.54-.78-1.09-1.17-1.65.13-.17.27-.35.39-.52l.38-.52a.61.61,0,0,0,.07-.1c.1-.16.21-.32.32-.48.25-.37.49-.75.73-1.13.48-.76.92-1.55,1.34-2.35q.24-.43.45-.87l.3-.59s.05-.09.07-.14c.14-.28.27-.56.4-.85s.39-.83.58-1.25c.38-.84.74-1.69,1.11-2.54,1.38-3,2.72-6.17,3.86-9.24,1.42-3.24,2.66-6.44,2.86-9.5.32-.56.63-1.12.92-1.68A36.62,36.62,0,0,0,143.36,64c2.1-3.63,3.4-8,4.61-12.42s2.32-8.84,3.34-13.3C153.31,42.8,155.34,47.3,157.48,51.61Z" transform="translate(-6.05 -4.03)"/><path class="cls-12" d="M203.86,144.28c-3.64-.79-4.62.45-8.25,1.17q-1.2.24-2.37.57c-7.24,2-13.78,6.09-20.14,10.15-9,5.78-18.11-2.44-27.17,3.34s-18.16-7.33-27.81-8.82l39.36-99.08c1.14,2.31,2.32,4.56,3.53,6.73,1.48,3.75,3.05,7.32,4.75,10.81s3.57,7,5.64,8.41c1.3,5.37,2.82,8.7,5.37,9a13.77,13.77,0,0,0,.49,4.24A10.66,10.66,0,0,0,179.88,95c-.29,1.28.93,2.91,3.62,5.6a2.5,2.5,0,0,0-.3.72c-.43,1.73.89,4,2.7,6.05a61.22,61.22,0,0,0,2.84,7.34c1.21,1.93,2.19,3.58,3,5.19.79,1.44,1.47,2.85,2.15,4.39,1.63,2,3.24,4.55,5.16,7.44.56,1.23,1.2,2.55,1.94,3.9l.52,1c.29.53.6,1.06.92,1.59l.79,1.28C204.17,141.35,202.31,142,203.86,144.28Z" transform="translate(-6.05 -4.03)"/><path class="cls-13" d="M141.89,104.27h14.33" transform="translate(-6.05 -4.03)"/><path class="cls-13" d="M164.66,107.11l11.64-.34" transform="translate(-6.05 -4.03)"/><path class="cls-13" d="M144.53,125.38c5.36,1.19,10.88,2.38,16.29,1.43s10.72-4.59,11.92-10" transform="translate(-6.05 -4.03)"/></g></g></svg>