<svg xmlns="http://www.w3.org/2000/svg" viewBox="0 0 328.18 311.25"><defs><style>.cls-1{fill:#010101;opacity:0.11;}.cls-2{fill:#98c334;}.cls-3{fill:#eeeded;}.cls-3,.cls-4{opacity:0.93;}.cls-4{fill:#dadada;}.cls-5,.cls-7{fill:none;stroke:#b3b2b2;stroke-linecap:round;stroke-miterlimit:10;}.cls-5{stroke-width:1.6px;}.cls-6{fill:#8fc02f;}.cls-7{stroke-width:1.23px;}</style></defs><g id="Layer_2" data-name="Layer 2"><g id="Layer_1-2" data-name="Layer 1"><path class="cls-1" d="M246.17,32.54a83.92,83.92,0,0,1-80.8,134.05,85.13,85.13,0,0,1-9.32-2.18A83.93,83.93,0,0,1,171.48.4c2.68-.26,5.37-.4,8.05-.4A83.79,83.79,0,0,1,246.17,32.54Z"/><path class="cls-2" d="M252.35,32.54a83.92,83.92,0,0,1-80.8,134.05,85,85,0,0,1-9.31-2.18A83.93,83.93,0,0,1,177.67.4c2.67-.26,5.37-.4,8-.4A83.78,83.78,0,0,1,252.35,32.54Z"/><path class="cls-3" d="M197.94.67a67.42,67.42,0,0,1-95.79,77.89q.13-2.32.42-4.65A67.43,67.43,0,0,0,193.71.17C195.12.3,196.54.47,197.94.67Z"/><path class="cls-4" d="M202.73,1.59c3.85,28.17-5.16,52.46-28.51,70.53-22.4,17.35-46.82,21.06-71.94,11.13.11-1.63.25-3.25.45-4.87A70.7,70.7,0,0,0,198.29,1.06C199.77,1.2,201.26,1.37,202.73,1.59Z"/><path class="cls-3" d="M176.12,167.4a67.4,67.4,0,0,1,93.74-80.24c-.06,1.56-.17,3.07-.31,4.62a67.44,67.44,0,0,0-89.18,76C179,167.7,177.53,167.57,176.12,167.4Z"/><path class="cls-4" d="M177.73,167.41a66,66,0,0,1,92-78.23c.09-1.5.17-2.77.18-4.21-27.29-8.41-53.82-9-76,11.26a68,68,0,0,0-14.44,19c-11.36,22.28-5.81,45.83-4.17,52"/><line class="cls-5" x1="98.98" y1="134.51" x2="0.8" y2="219.1"/><line class="cls-5" x1="123.56" y1="161.85" x2="25.38" y2="246.44"/><line class="cls-5" x1="114.75" y1="145.4" x2="42.72" y2="207.46"/><path class="cls-1" d="M140,289.49a64.69,64.69,0,0,1,55-107.39,66.09,66.09,0,0,1,7.28,1.18,64.7,64.7,0,0,1-3.1,126.94c-2,.34-4.11.59-6.16.73A64.55,64.55,0,0,1,140,289.49Z"/><path class="cls-6" d="M146.79,289.49a64.69,64.69,0,0,1,55-107.39,66.09,66.09,0,0,1,7.28,1.18,64.7,64.7,0,0,1-3.1,126.94c-2,.34-4.11.59-6.16.73A64.55,64.55,0,0,1,146.79,289.49Z"/><path class="cls-3" d="M190.33,311.09a52,52,0,0,1,69.49-65c0,1.2,0,2.4-.07,3.6a52,52,0,0,0-66.14,61.57C192.51,311.22,191.41,311.17,190.33,311.09Z"/><path class="cls-4" d="M186.6,310.64c-4.47-21.45,1.16-40.61,18.15-55.76,16.29-14.53,34.87-18.7,54.71-12.4,0,1.26,0,2.51-.07,3.77A54.5,54.5,0,0,0,190,310.81C188.89,310.78,187.74,310.73,186.6,310.64Z"/><path class="cls-3" d="M198.19,181.73a51.94,51.94,0,0,1-67.79,66.7c0-1.2,0-2.37,0-3.57a52,52,0,0,0,64.51-63.21C196,181.65,197.11,181.67,198.19,181.73Z"/><path class="cls-4" d="M197,181.8a50.87,50.87,0,0,1-66.57,65.07c0,1.16,0,2.14.09,3.25,21.43,5,41.86,4.06,57.8-12.72A52.19,52.19,0,0,0,198.37,222c7.54-17.74,2-35.56.43-40.18"/><line class="cls-7" x1="256.6" y1="206.6" x2="327.57" y2="136.31"/><line class="cls-7" x1="236.24" y1="186.89" x2="307.21" y2="116.6"/><line class="cls-7" x1="243.89" y1="199.07" x2="295.96" y2="147.5"/></g></g></svg>