<svg xmlns="http://www.w3.org/2000/svg" xmlns:xlink="http://www.w3.org/1999/xlink" viewBox="0 0 573.34 498.08"><defs><style>.cls-1{fill:#4a9e3e;}.cls-2{fill:#009641;}.cls-3{fill:url(#linear-gradient);}.cls-4{fill:url(#linear-gradient-2);}.cls-5{fill:url(#linear-gradient-3);}.cls-6{fill:url(#linear-gradient-4);}.cls-7{fill:url(#linear-gradient-5);}.cls-8{fill:url(#linear-gradient-6);}.cls-9{fill:url(#linear-gradient-7);}.cls-10{fill:url(#linear-gradient-8);}.cls-11{fill:url(#linear-gradient-9);}.cls-12{fill:url(#linear-gradient-10);}.cls-13{fill:url(#linear-gradient-11);}.cls-14{fill:url(#linear-gradient-12);}.cls-15{fill:url(#linear-gradient-13);}.cls-16{fill:url(#linear-gradient-14);}.cls-17{fill:url(#linear-gradient-15);}.cls-18{fill:url(#linear-gradient-16);}.cls-19{fill:url(#linear-gradient-17);}.cls-20{fill:url(#linear-gradient-18);}.cls-21{fill:url(#linear-gradient-19);}.cls-22{fill:url(#linear-gradient-20);}.cls-23{fill:url(#linear-gradient-21);}.cls-24{fill:url(#linear-gradient-22);}.cls-25{fill:url(#linear-gradient-23);}.cls-26{fill:url(#linear-gradient-24);}.cls-27{fill:url(#linear-gradient-25);}.cls-28{fill:url(#linear-gradient-26);}.cls-29{fill:url(#linear-gradient-27);}.cls-30{fill:url(#linear-gradient-28);}.cls-31{fill:url(#linear-gradient-29);}.cls-32{fill:url(#linear-gradient-30);}.cls-33{fill:url(#linear-gradient-31);}.cls-34{fill:#008037;}.cls-35{fill:#009942;}.cls-36,.cls-44{fill:#8c5a2d;}.cls-37{fill:url(#linear-gradient-32);}.cls-38{fill:#a17744;}.cls-39{fill:#2c9658;}.cls-40{fill:url(#linear-gradient-33);}.cls-41{fill:url(#linear-gradient-34);}.cls-42{fill:none;}.cls-43{opacity:0.58;}.cls-44{opacity:0.54;}</style><linearGradient id="linear-gradient" x1="103.04" y1="148.39" x2="103.76" y2="147.54" gradientUnits="userSpaceOnUse"><stop offset="0" stop-color="#008037"/><stop offset="0.12" stop-color="#008338"/><stop offset="1" stop-color="#009641"/></linearGradient><linearGradient id="linear-gradient-2" x1="115.07" y1="183.11" x2="123.41" y2="173.36" xlink:href="#linear-gradient"/><linearGradient id="linear-gradient-3" x1="139.01" y1="217.31" x2="143.43" y2="212.14" xlink:href="#linear-gradient"/><linearGradient id="linear-gradient-4" x1="141.98" y1="225.79" x2="143.15" y2="224.42" xlink:href="#linear-gradient"/><linearGradient id="linear-gradient-5" x1="162.21" y1="258.14" x2="163.31" y2="256.85" xlink:href="#linear-gradient"/><linearGradient id="linear-gradient-6" x1="274.32" y1="281.47" x2="276.79" y2="278.59" xlink:href="#linear-gradient"/><linearGradient id="linear-gradient-7" x1="273.88" y1="272.82" x2="274.95" y2="271.58" xlink:href="#linear-gradient"/><linearGradient id="linear-gradient-8" x1="276.57" y1="285.2" x2="276.86" y2="284.86" xlink:href="#linear-gradient"/><linearGradient id="linear-gradient-9" x1="274.62" y1="274.92" x2="274.76" y2="274.75" xlink:href="#linear-gradient"/><linearGradient id="linear-gradient-10" x1="276.91" y1="286.97" x2="277.47" y2="286.31" xlink:href="#linear-gradient"/><linearGradient id="linear-gradient-11" x1="277.61" y1="288.53" x2="277.9" y2="288.19" xlink:href="#linear-gradient"/><linearGradient id="linear-gradient-12" x1="278.09" y1="290.31" x2="278.62" y2="289.7" xlink:href="#linear-gradient"/><linearGradient id="linear-gradient-13" x1="279.13" y1="292.37" x2="279.37" y2="292.09" xlink:href="#linear-gradient"/><linearGradient id="linear-gradient-14" x1="280.68" y1="295.63" x2="280.83" y2="295.45" xlink:href="#linear-gradient"/><linearGradient id="linear-gradient-15" x1="325.59" y1="93.84" x2="328.05" y2="90.97" xlink:href="#linear-gradient"/><linearGradient id="linear-gradient-16" x1="358.74" y1="61.67" x2="363.29" y2="56.36" xlink:href="#linear-gradient"/><linearGradient id="linear-gradient-17" x1="390.47" y1="88.61" x2="393.21" y2="85.41" xlink:href="#linear-gradient"/><linearGradient id="linear-gradient-18" x1="103.09" y1="148.25" x2="103.71" y2="147.67" gradientUnits="userSpaceOnUse"><stop offset="0" stop-color="#008037"/><stop offset="1" stop-color="#009641"/></linearGradient><linearGradient id="linear-gradient-19" x1="114.08" y1="183.04" x2="124.22" y2="173.49" xlink:href="#linear-gradient-18"/><linearGradient id="linear-gradient-20" x1="138.65" y1="217.12" x2="143.72" y2="212.35" xlink:href="#linear-gradient-18"/><linearGradient id="linear-gradient-21" x1="141.91" y1="225.71" x2="143.19" y2="224.51" xlink:href="#linear-gradient-18"/><linearGradient id="linear-gradient-22" x1="162.12" y1="258.09" x2="163.38" y2="256.9" xlink:href="#linear-gradient-18"/><linearGradient id="linear-gradient-23" x1="276.56" y1="285.18" x2="276.87" y2="284.89" xlink:href="#linear-gradient-18"/><linearGradient id="linear-gradient-24" x1="274.61" y1="274.91" x2="274.77" y2="274.76" xlink:href="#linear-gradient-18"/><linearGradient id="linear-gradient-25" x1="274.18" y1="281.31" x2="276.9" y2="278.75" xlink:href="#linear-gradient-18"/><linearGradient id="linear-gradient-26" x1="273.8" y1="272.78" x2="275.02" y2="271.63" xlink:href="#linear-gradient-18"/><linearGradient id="linear-gradient-27" x1="276.89" y1="286.92" x2="277.48" y2="286.36" xlink:href="#linear-gradient-18"/><linearGradient id="linear-gradient-28" x1="277.6" y1="288.5" x2="277.91" y2="288.21" xlink:href="#linear-gradient-18"/><linearGradient id="linear-gradient-29" x1="278.08" y1="290.26" x2="278.62" y2="289.75" xlink:href="#linear-gradient-18"/><linearGradient id="linear-gradient-30" x1="279.13" y1="292.34" x2="279.37" y2="292.12" xlink:href="#linear-gradient-18"/><linearGradient id="linear-gradient-31" x1="280.68" y1="295.61" x2="280.83" y2="295.47" xlink:href="#linear-gradient-18"/><linearGradient id="linear-gradient-32" x1="254.05" y1="397.33" x2="313.36" y2="398.25" gradientUnits="userSpaceOnUse"><stop offset="0" stop-color="#8c5a2d"/><stop offset="0.03" stop-color="#8b592d"/><stop offset="0.39" stop-color="#7b4f28"/><stop offset="0.67" stop-color="#754b26"/></linearGradient><linearGradient id="linear-gradient-33" x1="253.15" y1="286.44" x2="410.91" y2="102.09" xlink:href="#linear-gradient"/><linearGradient id="linear-gradient-34" x1="72.83" y1="318.05" x2="189.43" y2="208.21" xlink:href="#linear-gradient-18"/></defs><g id="Layer_2" data-name="Layer 2"><g id="Layer_1-2" data-name="Layer 1"><path class="cls-1" d="M327.25,89.24a37.84,37.84,0,0,0-.71,6.16C326,95.22,326.68,91.81,327.25,89.24Z"/><path class="cls-1" d="M367.35,58.32c-.77,0-1.54-.07-2.32-.07a38.78,38.78,0,0,0-10.29,1.39,43.76,43.76,0,0,1,12.37-1.94Z"/><path class="cls-2" d="M278,288.93c.16.44.32.88.49,1.32.1.27.21.54.31.8C278.48,290.35,278.22,289.65,278,288.93Z"/><path class="cls-2" d="M278,288.93c.16.44.32.88.49,1.32.1.27.21.54.31.8C278.48,290.35,278.22,289.65,278,288.93Z"/><path class="cls-2" d="M573.3,193.27A38.55,38.55,0,0,0,524.94,156a73.62,73.62,0,0,0,.48-8.45,74.94,74.94,0,0,0-101.59-70,24.25,24.25,0,0,0-31.66-8.14,36.8,36.8,0,0,0-4.42-3.75l-.27-.76h0a75,75,0,0,0-97-44.08,24.25,24.25,0,0,0-31.66-8.14,38.53,38.53,0,0,0-65.63,26,75,75,0,0,0-99,86.66h0c.52,2.36,1.16,4.67,1.9,6.94h0a32.8,32.8,0,0,0-6,8.31h0a33.08,33.08,0,0,0-3.56,13.8,64.37,64.37,0,0,0-22.21-3.93c-1.92,0-3.83.08-5.71.25a64.36,64.36,0,0,0-33.2,115.36A20.81,20.81,0,0,0,41.62,300h0c0,.67,0,1.35,0,2a55.54,55.54,0,0,0,87.92,45.14c2,.8,4.08,1.54,6.17,2.22a99.12,99.12,0,0,0,92.57-17.08c1.14.23,2.29.43,3.45.58a50.36,50.36,0,0,0,6.54.43h.94c1.36,0,2.7-.11,4-.24.38,0,.76-.08,1.13-.12a49.44,49.44,0,0,0,6.24-1.18,48.34,48.34,0,0,0,4.66-1.43q1.77-.64,3.48-1.41a50.12,50.12,0,0,0,19.47-15.62c.16-.21.32-.43.47-.65a49.08,49.08,0,0,0,5.8-10.48,64.68,64.68,0,0,0,10.75,12.74l.06.05a65.31,65.31,0,0,0,7.28,5.76c1.68,1.14,3.42,2.21,5.21,3.19a61.51,61.51,0,0,0,5.53,2.71,64.28,64.28,0,0,0,25.57,5.26c.87,0,1.73,0,2.59-.05a64.38,64.38,0,0,0,35.09-12.06,115.7,115.7,0,0,0,114.94-17.3,58.08,58.08,0,0,0,65.73-77.91A38.45,38.45,0,0,0,573.3,193.27ZM102.14,145.85q1.22,2.15,2.56,4.19C103.8,148.67,102.94,147.28,102.14,145.85Zm14.54,38.06a26.11,26.11,0,0,0,.22,3.33,24.54,24.54,0,0,1-.23-3.34,24.07,24.07,0,0,1,5.4-15.24h0A24.07,24.07,0,0,0,116.68,183.91Zm24.22,26.58c0-.79,0-1.57,0-2.35h0a24.54,24.54,0,0,1-3.34-.23,26.11,26.11,0,0,0,3.33.22h0c0,.78,0,1.57,0,2.36a65.22,65.22,0,0,0,.85,10.52A64.22,64.22,0,0,1,140.9,210.49Zm1.23,12.57c.27,1.35.58,2.7.93,4Q142.54,225.1,142.13,223.06Zm11.45,25.88h0a7.17,7.17,0,0,1,3.39-.21A7.53,7.53,0,0,0,153.58,248.94Zm9.31,10.12a15.61,15.61,0,0,0-.21-3.21,15.09,15.09,0,0,1,.22,3.22Zm42.68,16.1a64.45,64.45,0,0,1-18.69-2.75,64.67,64.67,0,0,0,18.68,2.74h0Zm18.93-2.83c1.19-.37,2.38-.77,3.55-1.2C226.88,271.57,225.7,272,224.5,272.33Zm5.05-1.77-.34.13,1.15-.47Zm13.7-7.51c-.33.24-.67.48-1,.7-1,.71-2,1.38-3.09,2,1-.64,2.08-1.31,3.09-2l1-.71h0q2.7,1.06,5.45,2C246.86,264.44,245.05,263.77,243.25,263.05Zm31.28,10.41-.09-1-.09-1.31,0-.55c-1.36-.14-2.72-.29-4.06-.48q-3-.4-6-1,3,.56,6,1c1.35.18,2.7.34,4.06.47h0l0,.56c0,.5.07,1,.11,1.5l.06.71c0,.13,0,.25,0,.37A2.7,2.7,0,0,1,274.53,273.46Zm1.84,10.32c-.09-.35-.18-.69-.26-1s-.18-.7-.26-1.06c-.12-.52-.23-1.05-.34-1.58-.2-1-.37-2-.52-3-.05-.32-.1-.65-.14-1,0-.11,0-.21,0-.32,0,.11,0,.22.05.33,0,.33.09.65.14,1q.44,2.85,1.12,5.6c.08.35.17.69.26,1,0,.08,0,.17.07.26A2.76,2.76,0,0,1,276.37,283.78Zm1,3.44c-.12-.36-.23-.71-.34-1.08-.06-.19-.11-.39-.17-.58l.35,1.13.09.28c.08.24.15.48.23.72C277.49,287.54,277.43,287.38,277.38,287.22Zm.19.56.24.68.15.46Zm1.68,4.46-.21-.53c.14.35.28.69.43,1C279.39,292.57,279.32,292.41,279.25,292.24Zm1.46,3.22c0-.1-.09-.19-.13-.29.11.25.23.49.36.74C280.86,295.76,280.78,295.61,280.71,295.46ZM326.54,95.4c-.5-.18.14-3.59.71-6.16A37.84,37.84,0,0,0,326.54,95.4ZM365,58.25a38.78,38.78,0,0,0-10.29,1.39,43.76,43.76,0,0,1,12.37-1.94l.24.62C366.58,58.27,365.81,58.25,365,58.25Zm27.06,32.58a73.7,73.7,0,0,0-.4-7.76l.2.05A53.71,53.71,0,0,1,392.09,90.83Zm45,60.26q.53-1.29,1-2.61Q437.66,149.82,437.12,151.09Z"/><path class="cls-1" d="M392.09,90.83a73.7,73.7,0,0,0-.4-7.76l.2.05A53.71,53.71,0,0,1,392.09,90.83Z"/><path class="cls-3" d="M104.7,150c-.9-1.37-1.76-2.76-2.56-4.19Q103.36,148,104.7,150Z"/><path class="cls-4" d="M116.68,183.91a26.11,26.11,0,0,0,.22,3.33,24.54,24.54,0,0,1-.23-3.34,24.07,24.07,0,0,1,5.4-15.24h0A24.07,24.07,0,0,0,116.68,183.91Z"/><path class="cls-5" d="M140.91,210.5a65.22,65.22,0,0,0,.85,10.52,64.22,64.22,0,0,1-.86-10.53c0-.79,0-1.57,0-2.35h0C140.92,208.92,140.91,209.71,140.91,210.5Z"/><path class="cls-6" d="M143.06,227.08q-.52-2-.93-4C142.4,224.41,142.71,225.76,143.06,227.08Z"/><path class="cls-7" d="M162.9,259.07h0a15.61,15.61,0,0,0-.21-3.21A15.09,15.09,0,0,1,162.9,259.07Z"/><path class="cls-8" d="M276.45,284.05a2.76,2.76,0,0,1-.08-.27c-.09-.35-.18-.69-.26-1s-.18-.7-.26-1.06c-.12-.52-.23-1.05-.34-1.58-.2-1-.37-2-.52-3-.05-.32-.1-.65-.14-1,0-.11,0-.21,0-.32,0,.11,0,.22.05.33,0,.33.09.65.14,1q.44,2.85,1.12,5.6c.08.35.17.69.26,1C276.4,283.87,276.42,284,276.45,284.05Z"/><path class="cls-9" d="M274.57,273.74a2.7,2.7,0,0,1,0-.28l-.09-1-.09-1.31,0-.55h0l0,.56c0,.5.07,1,.11,1.5l.06.71C274.54,273.5,274.55,273.62,274.57,273.74Z"/><path class="cls-10" d="M276.57,284.49l.3,1.07a2.29,2.29,0,0,0-.08-.28C276.71,285,276.64,284.75,276.57,284.49Z"/><path class="cls-11" d="M274.67,274.61c0,.15,0,.29.05.44l0-.22C274.68,274.76,274.68,274.68,274.67,274.61Z"/><path class="cls-12" d="M277.54,287.69c-.05-.15-.11-.31-.16-.47-.12-.36-.23-.71-.34-1.08-.06-.19-.11-.39-.17-.58l.35,1.13.09.28C277.39,287.21,277.46,287.45,277.54,287.69Z"/><path class="cls-13" d="M278,288.92l-.39-1.14.24.68Z"/><path class="cls-14" d="M278.77,291.05c-.1-.26-.21-.53-.31-.8-.17-.44-.33-.88-.49-1.32C278.22,289.65,278.48,290.35,278.77,291.05Z"/><path class="cls-15" d="M279.47,292.74c-.08-.17-.15-.33-.22-.5l-.21-.53C279.18,292.06,279.32,292.4,279.47,292.74Z"/><path class="cls-16" d="M280.94,295.91c-.08-.15-.16-.3-.23-.45s-.09-.19-.13-.29C280.69,295.42,280.81,295.66,280.94,295.91Z"/><path class="cls-17" d="M327.25,89.24a37.84,37.84,0,0,0-.71,6.16C326,95.22,326.68,91.81,327.25,89.24Z"/><path class="cls-18" d="M367.35,58.32c-.77,0-1.54-.07-2.32-.07a38.78,38.78,0,0,0-10.29,1.39,43.76,43.76,0,0,1,12.37-1.94Z"/><path class="cls-19" d="M392.09,90.83a73.7,73.7,0,0,0-.4-7.76l.2.05A53.71,53.71,0,0,1,392.09,90.83Z"/><path class="cls-20" d="M104.7,150c-.9-1.37-1.76-2.76-2.56-4.19Q103.36,148,104.7,150Z"/><path class="cls-21" d="M116.68,183.91a26.11,26.11,0,0,0,.22,3.33,24.54,24.54,0,0,1-.23-3.34,24.07,24.07,0,0,1,5.4-15.24h0A24.07,24.07,0,0,0,116.68,183.91Z"/><path class="cls-22" d="M140.91,210.5a65.22,65.22,0,0,0,.85,10.52,64.22,64.22,0,0,1-.86-10.53c0-.79,0-1.57,0-2.35h0C140.92,208.92,140.91,209.71,140.91,210.5Z"/><path class="cls-23" d="M143.06,227.08q-.52-2-.93-4C142.4,224.41,142.71,225.76,143.06,227.08Z"/><path class="cls-24" d="M162.9,259.07h0a15.61,15.61,0,0,0-.21-3.21A15.09,15.09,0,0,1,162.9,259.07Z"/><path class="cls-25" d="M276.57,284.49l.3,1.07a2.29,2.29,0,0,0-.08-.28C276.71,285,276.64,284.75,276.57,284.49Z"/><path class="cls-26" d="M274.67,274.61c0,.15,0,.29.05.44l0-.22C274.68,274.76,274.68,274.68,274.67,274.61Z"/><path class="cls-27" d="M276.45,284.05a2.76,2.76,0,0,1-.08-.27c-.09-.35-.18-.69-.26-1s-.18-.7-.26-1.06c-.12-.52-.23-1.05-.34-1.58-.2-1-.37-2-.52-3-.05-.32-.1-.65-.14-1,0-.11,0-.21,0-.32,0,.11,0,.22.05.33,0,.33.09.65.14,1q.44,2.85,1.12,5.6c.08.35.17.69.26,1C276.4,283.87,276.42,284,276.45,284.05Z"/><path class="cls-28" d="M274.57,273.74a2.7,2.7,0,0,1,0-.28l-.09-1-.09-1.31,0-.55h0l0,.56c0,.5.07,1,.11,1.5l.06.71C274.54,273.5,274.55,273.62,274.57,273.74Z"/><path class="cls-29" d="M277.54,287.69c-.05-.15-.11-.31-.16-.47-.12-.36-.23-.71-.34-1.08-.06-.19-.11-.39-.17-.58l.35,1.13.09.28C277.39,287.21,277.46,287.45,277.54,287.69Z"/><path class="cls-30" d="M278,288.92l-.39-1.14.24.68Z"/><path class="cls-31" d="M278.77,291.05c-.1-.26-.21-.53-.31-.8-.17-.44-.33-.88-.49-1.32C278.22,289.65,278.48,290.35,278.77,291.05Z"/><path class="cls-32" d="M279.47,292.74c-.08-.17-.15-.33-.22-.5l-.21-.53C279.18,292.06,279.32,292.4,279.47,292.74Z"/><path class="cls-33" d="M280.94,295.91c-.08-.15-.16-.3-.23-.45s-.09-.19-.13-.29C280.69,295.42,280.81,295.66,280.94,295.91Z"/><path class="cls-34" d="M335.48,489.8a17.81,17.81,0,0,1-2.48,3.47h0a15.06,15.06,0,0,1-1.33,1.32,18,18,0,0,1-2.67,2,17.58,17.58,0,0,1-3.05,1.49H313.08a18.18,18.18,0,0,1-2.31-33c.24-.13.47-.26.72-.37h0a17.94,17.94,0,0,1,6.23-1.79c.22,1,.47,1.93.76,2.87a46.1,46.1,0,0,0,8.54,16,43.27,43.27,0,0,0,4.68,4.89c.34.32.69.62,1.05.92C333.64,488.42,334.54,489.13,335.48,489.8Z"/><path class="cls-34" d="M332.76,487.68c-.43.08-.87.13-1.32.17s-.78,0-1.18,0a14.15,14.15,0,0,1-10.43-4.57h0l-.09-.1a14.18,14.18,0,0,1-1.25-17.39,46.1,46.1,0,0,0,8.54,16,43.27,43.27,0,0,0,4.68,4.89C332.05,487.08,332.4,487.38,332.76,487.68Z"/><path class="cls-34" d="M343.09,494.19a11.87,11.87,0,0,1-1.28,1A14.12,14.12,0,0,1,334,497.5c-.38,0-.76,0-1.14-.05a13.8,13.8,0,0,1-3.86-.86,14.18,14.18,0,0,1-9.06-11.53h0a16.22,16.22,0,0,1-.1-1.72v-.1a14,14,0,0,1,2.61-8.08,44.79,44.79,0,0,0,4.59,6.72,43.27,43.27,0,0,0,4.68,4.89c.34.32.69.62,1.05.92.88.74,1.78,1.45,2.72,2.12A43.14,43.14,0,0,0,343.09,494.19Z"/><path class="cls-35" d="M347.88,497.65l-1.14-.09a8.09,8.09,0,0,0,.3-3.7c-.76-4.87-5.75-8.55-11.8-9.08a10.84,10.84,0,0,0-2.13-2.38h0c0-5.85-6.13-10.58-13.68-10.58a17.28,17.28,0,0,0-4.5.59,14.62,14.62,0,0,0-4.13-.59c-.25,0-.5,0-.74,0,0-.09-.05-.18-.08-.27-.2-.65-.37-1.32-.51-2a14.64,14.64,0,0,1,8.09,0,17.36,17.36,0,0,1,4.51-.59c7.55,0,13.68,4.74,13.68,10.59h0a11,11,0,0,1,2.13,2.37c6,.54,11,4.22,11.79,9.09A8.48,8.48,0,0,1,347.88,497.65Z"/><path class="cls-34" d="M348.74,497.56l-1.57-.17a52.12,52.12,0,0,1-8-1.63c-.91-.26-1.81-.55-2.69-.85a47.41,47.41,0,0,1-7.34-3.28c-.91-.5-1.78-1-2.63-1.59l-1-.68A38.81,38.81,0,0,1,321,485.7a34.79,34.79,0,0,1-4.43-5,30.53,30.53,0,0,1-3.81-7,19.84,19.84,0,0,1-.65-1.88c.24,0,.49,0,.74,0a14.62,14.62,0,0,1,4.13.59,17.28,17.28,0,0,1,4.5-.59c7.55,0,13.68,4.73,13.68,10.58h0a10.84,10.84,0,0,1,2.13,2.38c6.05.53,11,4.21,11.8,9.08A8.09,8.09,0,0,1,348.74,497.56Z"/><path class="cls-34" d="M349,496.36a7.09,7.09,0,0,1-.28,1.19,4.76,4.76,0,0,1-.19.53H335.06l-1.24-.41-.5-.19a4.05,4.05,0,0,1-.55-.2c-1-.37-2-.77-3-1.22-1.15-.51-2.26-1.07-3.34-1.67-.9-.5-1.77-1-2.62-1.59-.3-.19-.6-.38-.89-.59l-.13-.09a37.69,37.69,0,0,1-4.51-3.66,34.19,34.19,0,0,1-4.43-5,30.15,30.15,0,0,1-3.81-7c-.28-.7-.53-1.42-.74-2.14s-.36-1.33-.51-2l.62-.16a12.93,12.93,0,0,1,2.61-.35h.22a4.43,4.43,0,0,1,.52,0,14.27,14.27,0,0,1,3.37.4c.26.05.51.12.76.19a17.33,17.33,0,0,1,3.81-.57c.23,0,.46,0,.69,0,7.55,0,13.68,4.73,13.68,10.58h0a10.84,10.84,0,0,1,2.13,2.38c6.05.53,11,4.21,11.8,9.08A7.82,7.82,0,0,1,349,496.36Z"/><path class="cls-35" d="M224.5,494l1.14-.09a8.09,8.09,0,0,1-.3-3.7c.76-4.87,5.75-8.55,11.8-9.08a10.84,10.84,0,0,1,2.13-2.38h0c0-5.85,6.13-10.58,13.68-10.58a17.28,17.28,0,0,1,4.5.59,14.62,14.62,0,0,1,4.13-.59c.25,0,.5,0,.74,0,0-.09.05-.18.08-.27.2-.65.37-1.32.51-2a14.64,14.64,0,0,0-8.09,0,17.36,17.36,0,0,0-4.51-.59c-7.55,0-13.68,4.74-13.68,10.59h0a11,11,0,0,0-2.13,2.37c-6,.54-11,4.22-11.79,9.09A8.48,8.48,0,0,0,224.5,494Z"/><path class="cls-34" d="M223.64,493.89l1.57-.17a52.12,52.12,0,0,0,8-1.63c.91-.26,1.81-.55,2.69-.85a47.41,47.41,0,0,0,7.34-3.28c.91-.5,1.78-1,2.63-1.59l1-.68a38.81,38.81,0,0,0,4.52-3.66,34.79,34.79,0,0,0,4.43-5,30.53,30.53,0,0,0,3.81-7,19.84,19.84,0,0,0,.65-1.88c-.24,0-.49,0-.74,0a14.62,14.62,0,0,0-4.13.59,17.28,17.28,0,0,0-4.5-.59c-7.55,0-13.68,4.73-13.68,10.58h0a10.84,10.84,0,0,0-2.13,2.38c-6,.53-11,4.21-11.8,9.08A8.09,8.09,0,0,0,223.64,493.89Z"/><path class="cls-34" d="M223.36,492.69a7.09,7.09,0,0,0,.28,1.19,4.76,4.76,0,0,0,.19.53h13.49l1.24-.41.5-.19a4.05,4.05,0,0,0,.55-.2c1-.37,2-.77,3-1.22,1.15-.51,2.26-1.07,3.34-1.67.9-.5,1.77-1,2.62-1.59.3-.19.6-.38.89-.59l.13-.09a37.69,37.69,0,0,0,4.51-3.66,34.19,34.19,0,0,0,4.43-5,30.15,30.15,0,0,0,3.81-7c.28-.7.53-1.42.74-2.14s.36-1.33.51-2l-.62-.16a12.93,12.93,0,0,0-2.61-.35h-.22a4.43,4.43,0,0,0-.52,0,14.27,14.27,0,0,0-3.37.4c-.26.05-.51.12-.76.19a17.33,17.33,0,0,0-3.81-.57c-.23,0-.46,0-.69,0-7.55,0-13.68,4.73-13.68,10.58h0a10.84,10.84,0,0,0-2.13,2.38c-6,.53-11,4.21-11.8,9.08A7.82,7.82,0,0,0,223.36,492.69Z"/><path class="cls-34" d="M357,497.86l-.13.22H333.22a6.44,6.44,0,0,1-.36-.63l-.09-.17a12.9,12.9,0,0,1-1.1-2.68,12.52,12.52,0,0,1-.39-1.86.29.29,0,0,1,0-.09h0l0-.23a13.59,13.59,0,0,1,.21-4.56c.07-.37.17-.74.27-1.09.34.32.69.62,1.05.92.88.74,1.78,1.45,2.72,2.12a43.14,43.14,0,0,0,7.61,4.39c.91.41,1.84.79,2.78,1.14s2.08.73,3.15,1c.48.14,1,.27,1.46.39,1.21.31,2.45.56,3.71.76C355.12,497.66,356.05,497.78,357,497.86Z"/><path class="cls-34" d="M327,481.87a11.89,11.89,0,0,1-5.72,1.46,10.32,10.32,0,0,1-1.48-.1h-.09a11.9,11.9,0,0,1-1.7-.34h0a11.9,11.9,0,0,1-7.16-17.11,11.35,11.35,0,0,1,.62-1h0a11.84,11.84,0,0,1,5.7-4.46c.15.9.32,1.79.53,2.67s.47,1.93.76,2.87a46.1,46.1,0,0,0,8.54,16Z"/><path class="cls-36" d="M343.09,494.19c.91.41,1.84.79,2.78,1.14h-1.68l-.49,0-.56,0-.5,0-.83-.07h0l-.46,0-.23,0-.19,0-.15,0c-1-.15-2.26-.35-3.67-.65l-1.09-.25-.24-.06-.85-.23h-.05l-.71-.2-.73-.23-.35-.11-.07,0h0c-.43-.14-.87-.29-1.31-.46l-.43-.16h0c-.23-.08-.45-.18-.68-.27l-.68-.29c-.22-.09-.43-.19-.65-.3-.48-.22-1-.47-1.46-.73q-.41-.21-.81-.45c-.29-.16-.57-.33-.85-.51s-.58-.35-.86-.54-.56-.37-.83-.57l-.82-.61-.45-.35,0,0c-.17-.14-.35-.27-.52-.42L322,487c-.54-.48-1.06-1-1.54-1.46-.17-.17-.33-.33-.48-.5h0c-.39-.4-.75-.81-1.11-1.22l-.33-.4-.45-.55h0l-.08-.12,0,0-.08-.1q-.32-.4-.6-.81l-.28-.39-.53-.78c-.14-.22-.28-.43-.41-.65s-.28-.45-.41-.67-.15-.25-.22-.37c-.17-.28-.32-.57-.47-.85l-.44-.85c-.16-.3-.3-.61-.44-.91s-.25-.54-.37-.81a2.72,2.72,0,0,1-.11-.25c-.11-.25-.21-.49-.3-.73-.25-.6-.47-1.19-.66-1.76-.09-.25-.17-.49-.25-.73l-.06-.2c-.09-.26-.16-.51-.23-.76-.25-.84-.46-1.64-.63-2.39-.05-.2-.1-.39-.13-.58s-.09-.43-.13-.63c-.13-.63-.23-1.21-.31-1.75,0-.22-.06-.43-.1-.64s-.08-.64-.11-.93,0-.34-.05-.5-.06-.6-.08-.85,0-.25,0-.36q-1.15-33.71-2.3-67.41a22.25,22.25,0,0,1,.69-13.3,20.68,20.68,0,0,1,5.72-7.82l.24-.21c7.1-6.13,28.11-24.62,56.87-49.53l16.51-11.69c.62,1.46,1.23,2.93,1.82,4.38l-69.89,61.17a10.56,10.56,0,0,0-3.61,8v66.56a45.64,45.64,0,0,0,.65,7.7c.15.9.32,1.79.53,2.67s.47,1.93.76,2.87a46.1,46.1,0,0,0,8.54,16,43.27,43.27,0,0,0,4.68,4.89c.34.32.69.62,1.05.92.88.74,1.78,1.45,2.72,2.12A43.14,43.14,0,0,0,343.09,494.19Z"/><path class="cls-36" d="M292.48,299.26a51,51,0,0,0-16.29-2.65h-6.43a11.93,11.93,0,0,0-11.93,11.92v148.9a46,46,0,0,1-24.32,40.65H202.16c.61,0,1.22,0,1.83,0,24.21-1,43.08-21.46,43.08-45.69V398.68a11.34,11.34,0,0,0-2.81-7.47l-41.8-47.75a.2.2,0,0,1,0-.26l9.41-8.24a.17.17,0,0,1,.25,0l7.07,8.07,20.45,23.36a4.22,4.22,0,0,0,6.34,0,4.1,4.1,0,0,0,1.07-2.82V303.45A11.93,11.93,0,0,1,259,291.53h6.43A50.89,50.89,0,0,1,292.48,299.26Z"/><path class="cls-37" d="M391.26,315.84l-1.21,1.06c-.59-1.45-1.2-2.92-1.82-4.38l-16.51,11.69C343,349.12,322,367.61,314.85,373.74l-.24.21a30.76,30.76,0,0,0-5.43,7.88c-1.79,3.54-1.23,6.22-1,13.24q1.16,33.71,2.3,67.41,0,.16,0,.36c0,.25.05.54.08.85s0,.32.05.5.07.6.11.93.07.42.1.64c.08.54.18,1.12.31,1.75,0,.2.08.41.13.63s.08.38.13.58.12.53.2.81c.12.51.27,1,.43,1.58.07.23.13.47.21.71l0,.05.06.2c.08.24.16.48.25.73.19.57.41,1.16.66,1.76.09.24.19.48.3.73a2.72,2.72,0,0,0,.11.25c.12.27.24.54.37.81s.28.61.44.91l.44.85c.15.28.3.57.47.85.07.12.14.25.22.37s.11.2.17.29l0,0a3.87,3.87,0,0,0,.21.34c.13.22.27.43.41.65l.53.78.28.39q.28.4.6.81l.08.1,0,0,.08.12h0l.45.55.33.4c.36.41.72.82,1.11,1.22h0c.15.17.31.33.48.5.48.49,1,1,1.54,1.46l.66.56c.17.15.35.28.52.42l0,0,.45.35.82.61c.27.2.55.38.83.57s.57.37.86.54.56.35.85.51.54.31.81.45c.49.26,1,.51,1.46.73.22.11.43.21.65.3l.45.19.23.1c.23.09.45.19.68.27l.43.17c.44.17.88.32,1.31.46l.07,0,.35.11.73.23.71.2h.05l.85.23.24.06,1.09.25c1.41.3,2.66.5,3.67.65l.15,0,.19,0,.23,0,.46,0h0l.83.07.5,0,.56,0,.49,0h1.68c1,.38,2.08.73,3.15,1,.48.14,1,.27,1.46.39,1.21.31,2.45.56,3.71.76.93.15,1.86.27,2.81.35a42.84,42.84,0,0,0,4.41.22H233.51a46,46,0,0,0,24.32-40.65V308.53a11.93,11.93,0,0,1,11.93-11.92h6.43a51,51,0,0,1,16.29,2.65,51.12,51.12,0,0,1,24.07,43.39v6.15a3.12,3.12,0,0,0,5.17,2.35l5.57-4.87,51.32-44.91a.17.17,0,0,1,.25,0l7.07,8.07,5.35,6.12A.19.19,0,0,1,391.26,315.84Z"/><path class="cls-38" d="M302.62,319.22a65.31,65.31,0,0,1-7.28-5.76l-.06,0a64.79,64.79,0,0,1-10.76-12.75,49.08,49.08,0,0,1-5.8,10.48q-.35-7.26-1-14.51,2.24,0,4.47,0l1.63,0c.7,0,1.41.07,2.11.12,4.85.3,9.72.85,14.56.79Q301.89,308.38,302.62,319.22Z"/><path class="cls-38" d="M360.86,297.41a36.53,36.53,0,0,0-4.43,3.8c-5.11,5.22-8,12.18-10.76,19l-.74,1.82c-9.19-1.08-18.39-2.11-27.64-2.33-.49,0-1,0-1.48,0,4.48-9.63,9.88-18.82,18-25.55,1.09-.91,2.23-1.77,3.39-2.56a61,61,0,0,1,21.31,4.81C359.28,296.68,360.07,297,360.86,297.41Z"/><path class="cls-39" d="M361,231.11a7.94,7.94,0,0,1-.85,2.79A6.81,6.81,0,0,1,358,236a14.49,14.49,0,0,1-13.76,1.42,2.68,2.68,0,0,1-1.51-1.22,9.73,9.73,0,0,1-.54-3.59,10.93,10.93,0,0,0,.54,4.15,2.68,2.68,0,0,0,1.51,1.22A14.49,14.49,0,0,0,358,236.54a6.81,6.81,0,0,0,2.06-2.08,7.94,7.94,0,0,0,.85-2.79,21.39,21.39,0,0,0,.29-3.75A22.65,22.65,0,0,1,361,231.11Z"/><path class="cls-2" d="M320.81,92A75,75,0,0,0,234,130.19,74.21,74.21,0,0,0,228.57,144a64.39,64.39,0,0,0-58.4-6.46,20.83,20.83,0,0,0-27.2-7,33.1,33.1,0,0,0-46.79.19c-.74-2.27-1.38-4.58-1.9-6.94h0a75,75,0,0,1,99-86.66,38.33,38.33,0,0,1,9.85-24.38A175.06,175.06,0,0,1,288.38,58C299.62,68.92,309.36,81.35,320.81,92Z"/><path class="cls-1" d="M367.39,56.81c-.77-.05-1.54-.07-2.32-.07a38.52,38.52,0,0,0-38.49,37.15q-2.83-1-5.77-1.86c-11.45-10.68-21.19-23.11-32.43-34A175.06,175.06,0,0,0,203.1,12.77a38.53,38.53,0,0,1,55.78-1.6,24.25,24.25,0,0,1,31.66,8.14A75,75,0,0,1,355.7,25Q361.16,41.06,367.39,56.81Z"/><path class="cls-1" d="M524.34,133.07c-1.77.7-3.48,1.5-5.13,2.35a87,87,0,0,0-29.64,25.22c-3.85,5.18-7.26,10.93-12.56,14.62-9.14,6.38-21.88,5-31.86,0-6.35-3.16-11.93-7.54-17.39-12.11.44-.4.87-.82,1.28-1.24l.1-.11c.45-.46.89-.94,1.31-1.42l.63-.73.61-.75c.2-.25.4-.51.59-.77s.2-.26.29-.39a4.73,4.73,0,0,0,.28-.39c.19-.26.38-.52.56-.79.36-.54.71-1.08,1-1.63s.66-1.12,1-1.69l.45-.87c.16-.29.3-.58.43-.87.31-.64.6-1.29.86-1.95q.54-1.28,1-2.61c.11-.31.21-.63.29-.95s.14-.44.2-.67.12-.43.17-.65l.15-.6c.09-.36.17-.73.25-1.09s.1-.46.14-.7.14-.77.2-1.16c0-.14.05-.28.07-.42s.05-.36.07-.53a.25.25,0,0,0,0-.08c.05-.33.09-.66.12-1s0-.53.08-.78c0,0,0-.07,0-.11s0-.18,0-.27,0-.43,0-.65c0-.37,0-.73.05-1.11s0-.8,0-1.2a38.55,38.55,0,0,0-48.36-37.25,75,75,0,0,0,.08-16.21,58,58,0,0,0,10.92,1.65c11.8.71,23.68-1,35.44.22,5.61.59,11.34,1.83,16.81.44a28.09,28.09,0,0,0,10.44-5.76,62.59,62.59,0,0,0,4.86-4.35A75,75,0,0,1,524.34,133.07Z"/><path class="cls-1" d="M470.2,73.76a62.59,62.59,0,0,1-4.86,4.35,28.09,28.09,0,0,1-10.44,5.76c-5.47,1.39-11.2.15-16.81-.44-11.76-1.22-23.64.49-35.44-.22a58,58,0,0,1-10.92-1.65c-6.81-1.75-13.1-5-17.34-10.45-2.6-3.36-4.24-7.35-5.82-11.3-.4-1-.79-2-1.18-3Q361.17,41.06,355.7,25a75.19,75.19,0,0,1,31.82,38.35h0l.27.76a36.8,36.8,0,0,1,4.42,3.75,24.25,24.25,0,0,1,31.66,8.14,75.16,75.16,0,0,1,46.33-2.29Z"/><path class="cls-40" d="M557.28,223.06A58.07,58.07,0,0,1,491.55,301a115.7,115.7,0,0,1-114.94,17.3,64.38,64.38,0,0,1-35.09,12.06c-.86,0-1.72.05-2.59.05a64.28,64.28,0,0,1-25.57-5.26,61.51,61.51,0,0,1-5.53-2.71c-1.79-1-3.53-2.05-5.21-3.19a65.31,65.31,0,0,1-7.28-5.76l-.06,0a64.79,64.79,0,0,1-10.76-12.75c-.75-1.17-1.46-2.36-2.14-3.58l-.23-.42q-.42-.77-.81-1.53l-.59-1.18c-.26-.53-.51-1.06-.75-1.6q-.19-.41-.36-.81c-.12-.27-.24-.54-.35-.81s-.33-.79-.48-1.19c-.29-.7-.55-1.41-.81-2.13-.2-.56-.39-1.13-.58-1.7-.12-.36-.23-.71-.34-1.08-.24-.78-.46-1.56-.67-2.36-.09-.35-.18-.69-.26-1s-.18-.7-.26-1.06c-.12-.52-.23-1.05-.34-1.58-.2-1-.37-2-.52-3,0-.32-.1-.65-.14-1-.13-.9-.23-1.8-.32-2.71l-.09-1-.09-1.31,0-.56a114.49,114.49,0,0,1-31.08-7.55,64.65,64.65,0,0,1-80.35-4,13,13,0,0,0-1.17-6.21c-2-4.06-5-4.79-8.15-3.92A64.34,64.34,0,0,1,140.94,209c0-.79,0-1.58,0-2.36h0a24.22,24.22,0,0,1-18.83-39.47,75.08,75.08,0,0,1-25.93-36.39,33.1,33.1,0,0,1,46.79-.19,20.83,20.83,0,0,1,27.2,7,64.39,64.39,0,0,1,58.4,6.46,75,75,0,0,1,72.16-54.72A75.1,75.1,0,0,1,320.81,92q2.94.82,5.77,1.86c-.76-.28,1.14-8.09,1.37-8.94a38.5,38.5,0,0,1,16.26-22.07c9.78-6.32,28.2-10.28,37.94-2,3,2.59,4.92,6.28,6.31,10a86.11,86.11,0,0,1,3.23,9.44c.67,2.8.44,6.06.44,9a73.62,73.62,0,0,1-.48,8.45A38.55,38.55,0,0,1,440,135c0,.4,0,.8,0,1.2s0,.74-.05,1.11c0,.22,0,.43,0,.65s0,.18,0,.27,0,.07,0,.11c0,.25-.05.52-.08.78s-.07.65-.12,1a.25.25,0,0,1,0,.08c0,.17-.05.35-.07.53s0,.28-.07.42c-.06.39-.12.78-.2,1.16s-.09.47-.14.7-.16.73-.25,1.09l-.15.6c0,.22-.11.43-.17.65s-.13.45-.2.67-.19.64-.29.95q-.44,1.32-1,2.61c-.26.66-.55,1.31-.86,1.95-.14.29-.28.58-.43.87l-.45.87c-.31.57-.63,1.13-1,1.69s-.68,1.09-1,1.63c-.18.27-.37.53-.56.79l-.28.39c-.09.13-.19.27-.29.39s-.39.52-.59.77l-.61.75-.63.73c-.42.48-.86,1-1.31,1.42l-.1.11c-.42.42-.84.83-1.28,1.24,5.46,4.57,11,8.95,17.39,12.11,10,5,22.72,6.35,31.86,0,5.3-3.69,8.71-9.44,12.56-14.62a87,87,0,0,1,29.64-25.22c1.65-.85,3.36-1.65,5.13-2.35a75.16,75.16,0,0,1,1.12,13,73.62,73.62,0,0,1-.48,8.45,38.53,38.53,0,0,1,32.3,68.55Z"/><path class="cls-2" d="M119,351.61a55.55,55.55,0,0,1-77.34-51.1c0-.68,0-1.36,0-2h0a20.81,20.81,0,0,1-16.18-33.91,64.36,64.36,0,0,1,33.2-115.36,64.38,64.38,0,0,0-15,111,20.81,20.81,0,0,0,16.18,33.91h0c0,.67,0,1.35,0,2a55.55,55.55,0,0,0,55.55,55.55C116.63,351.72,117.82,351.68,119,351.61Z"/><path class="cls-41" d="M284.53,300.66a49.08,49.08,0,0,1-5.8,10.48c-.15.22-.31.44-.47.65a50.12,50.12,0,0,1-19.47,15.62q-1.71.76-3.48,1.41a48.34,48.34,0,0,1-4.66,1.43,49.44,49.44,0,0,1-6.24,1.18c-.37,0-.75.09-1.13.12-1.33.13-2.67.21-4,.24h-.94a50.36,50.36,0,0,1-6.54-.43c-1.16-.15-2.31-.35-3.45-.58a99.42,99.42,0,0,1-92.57,17.08c-2.09-.68-4.14-1.42-6.17-2.22a55.45,55.45,0,0,1-10.58,6c-1.18.07-2.37.11-3.57.11a55.55,55.55,0,0,1-55.55-55.55c0-.68,0-1.36,0-2h0A20.81,20.81,0,0,1,43.7,260.23a64.38,64.38,0,0,1,15-111c1.88-.17,3.79-.25,5.71-.25a64.37,64.37,0,0,1,22.21,3.93,33.08,33.08,0,0,1,3.56-13.8h0a33.1,33.1,0,0,1,6-8.32,74.28,74.28,0,0,0,8.55,17.76,75.15,75.15,0,0,0,17.38,18.63A24.22,24.22,0,0,0,141,206.62h0c0,.78,0,1.57,0,2.36a64.34,64.34,0,0,0,12.67,38.44c3.1-.87,6.15-.14,8.15,3.92a13,13,0,0,1,1.17,6.21,64.6,64.6,0,0,0,80.35,4c2.13.85,4.29,1.64,6.48,2.35a114.46,114.46,0,0,0,24.6,5.2l0,.56c0,.5.07,1,.11,1.5l.06.71c0,.13,0,.25,0,.37,0,.37.07.73.12,1.09s.1.9.17,1.35.09.65.14,1q.43,2.85,1.12,5.6c.08.35.17.69.26,1,0,.08,0,.17.07.26.11.41.22.82.34,1.23s.28.94.43,1.41l.09.28c.16.5.32,1,.5,1.49,0,.16.1.31.16.47.16.44.32.88.49,1.32.64,1.68,1.34,3.32,2.12,4.92.23.49.48,1,.73,1.48s.53,1,.81,1.53l.23.42C283.07,298.3,283.78,299.49,284.53,300.66Z"/><path class="cls-42" d="M315.81,319.64c-.85,1.81-1.66,3.64-2.45,5.48-.5,1.17-1,2.35-1.49,3.52q-4.47,10.64-8.64,21.41.31-11.69-.2-23.37c2-.87,3.24-2.75,4.8-4.27a10.48,10.48,0,0,1,1.64-1.33A11.93,11.93,0,0,1,315.81,319.64Z"/><path class="cls-42" d="M320.81,92c.73.69,1.47,1.36,2.21,2,28.21,25.24,65.8,37.64,95.36,61.3,3.17,2.53,6.25,5.2,9.38,7.82"/><g class="cls-43"><rect class="cls-44" x="273.32" y="333.97" width="4.45" height="31.39"/><rect class="cls-44" x="283.23" y="371.79" width="4.45" height="31.39"/><rect class="cls-44" x="271.69" y="392.09" width="4.6" height="32.46"/><rect class="cls-44" x="269.56" y="442.66" width="4.55" height="32.1"/><rect class="cls-44" x="294.95" y="454.36" width="4.55" height="32.1"/><rect class="cls-44" x="280.5" y="461.47" width="4.55" height="32.1"/><rect class="cls-44" x="292.03" y="400.66" width="4.6" height="32.46"/><rect class="cls-44" x="292.91" y="331.26" width="4.45" height="31.39"/><rect class="cls-44" x="283.12" y="319.93" width="4.45" height="31.39"/></g></g></g></svg>