<svg xmlns="http://www.w3.org/2000/svg" viewBox="0 0 394.05 266.55"><defs><style>.cls-1{opacity:0.08;}.cls-2,.cls-3,.cls-5,.cls-7,.cls-8{fill:#1d1d1b;}.cls-12,.cls-13,.cls-3,.cls-7,.cls-8,.cls-9{stroke:#3c3c3b;stroke-miterlimit:10;opacity:0.57;}.cls-3{stroke-width:0.5px;}.cls-4{fill:#c6c6c6;}.cls-10,.cls-5{opacity:0.84;}.cls-6{opacity:0.6;}.cls-7{stroke-width:0.23px;}.cls-8{stroke-width:0.13px;}.cls-12,.cls-13,.cls-9{fill:none;}.cls-9{stroke-width:0.4px;}.cls-10{fill:#dededd;}.cls-11{fill:#706f6f;}.cls-12{stroke-width:0.18px;}.cls-13{stroke-width:0.11px;}</style></defs><g id="Layer_2" data-name="Layer 2"><g id="Layer_1-2" data-name="Layer 1"><g class="cls-1"><path class="cls-2" d="M258.92,263.62A130.36,130.36,0,1,0,130.43,131.41,130.35,130.35,0,0,0,258.92,263.62Zm2.85-199.18a68.84,68.84,0,1,1-69.83,67.85A68.83,68.83,0,0,1,261.77,64.44Z"/><rect class="cls-2" x="253.56" y="255.7" width="10.78" height="10.78" rx="0.49" transform="translate(514.13 525.86) rotate(-179.18)"/><rect class="cls-2" x="286.7" y="251.82" width="10.78" height="10.78" rx="0.59" transform="translate(638.29 435.03) rotate(165.82)"/><rect class="cls-2" x="317.71" y="239.49" width="10.78" height="10.78" rx="0.59" transform="translate(724.59 301.16) rotate(150.82)"/><rect class="cls-2" x="344.47" y="219.56" width="10.78" height="10.78" rx="0.59" transform="translate(757.54 142.45) rotate(135.82)"/><rect class="cls-2" x="365.16" y="193.38" width="10.78" height="10.78" rx="0.59" transform="matrix(-0.51, 0.86, -0.86, -0.51, 731.1, -17.62)"/><rect class="cls-2" x="378.37" y="162.73" width="10.78" height="10.78" rx="0.59" transform="matrix(-0.27, 0.96, -0.96, -0.27, 650.14, -155.27)"/><rect class="cls-2" x="383.2" y="129.71" width="10.78" height="10.78" rx="0.59" transform="translate(529.25 -251.51) rotate(90.82)"/><rect class="cls-2" x="379.32" y="96.57" width="10.78" height="10.78" rx="0.59" transform="translate(389.33 -296.01) rotate(75.82)"/><rect class="cls-2" x="366.99" y="65.56" width="10.78" height="10.78" rx="0.59" transform="translate(252.78 -288.77) rotate(60.82)"/><rect class="cls-2" x="347.06" y="38.8" width="10.78" height="10.78" rx="0.59" transform="translate(138.52 -239.37) rotate(45.82)"/><rect class="cls-2" x="320.88" y="18.11" width="10.78" height="10.78" rx="0.59" transform="translate(58.12 -163.85) rotate(30.82)"/><rect class="cls-2" x="290.24" y="4.9" width="10.78" height="10.78" rx="0.59" transform="matrix(0.96, 0.27, -0.27, 0.96, 14, -80.21)"/><rect class="cls-2" x="257.22" y="0.07" width="10.78" height="10.78" rx="0.59" transform="translate(0.11 -3.76) rotate(0.82)"/><rect class="cls-2" x="224.08" y="3.95" width="10.78" height="10.78" rx="0.59" transform="translate(4.7 56.49) rotate(-14.18)"/><rect class="cls-2" x="193.07" y="16.28" width="10.78" height="10.78" rx="0.59" transform="translate(14.62 99.51) rotate(-29.18)"/><rect class="cls-2" x="166.3" y="36.21" width="10.78" height="10.78" rx="0.59" transform="translate(19.57 131.42) rotate(-44.18)"/><rect class="cls-2" x="145.61" y="62.39" width="10.78" height="10.78" rx="0.59" transform="matrix(0.51, -0.86, 0.86, 0.51, 15.43, 162.73)"/><rect class="cls-2" x="132.4" y="93.03" width="10.78" height="10.78" rx="0.59" transform="translate(5.53 204.16) rotate(-74.18)"/><rect class="cls-2" x="127.57" y="126.05" width="10.78" height="10.78" rx="0.59" transform="translate(-0.37 262.51) rotate(-89.18)"/><rect class="cls-2" x="131.45" y="159.2" width="10.78" height="10.78" rx="0.59" transform="translate(10.79 337.58) rotate(-104.18)"/><rect class="cls-2" x="143.78" y="190.2" width="10.78" height="10.78" rx="0.59" transform="translate(51.13 421.2) rotate(-119.18)"/><rect class="cls-2" x="163.71" y="216.97" width="10.78" height="10.78" rx="0.59" transform="translate(127.49 498.59) rotate(-134.18)"/><rect class="cls-2" x="189.89" y="237.66" width="10.78" height="10.78" rx="0.59" transform="translate(238.46 551.83) rotate(-149.18)"/><rect class="cls-2" x="220.54" y="250.87" width="10.78" height="10.78" rx="0.59" transform="translate(373.44 564.41) rotate(-164.18)"/><circle class="cls-3" cx="260.78" cy="133.27" r="107.11"/><circle class="cls-3" cx="260.78" cy="133.27" r="115.48"/><path class="cls-2" d="M260.24,170.82a37.55,37.55,0,0,1,.52-75.09h.56a37.55,37.55,0,0,1-.52,75.09Z"/><path class="cls-4" d="M260.76,127h.11a6.27,6.27,0,0,1,6.16,6.34,6.27,6.27,0,0,1-6.23,6.17h-.11a6.23,6.23,0,0,1-6.16-6.34,6.26,6.26,0,0,1,6.23-6.16m0-62.59a68.84,68.84,0,0,0-1,137.68h1a68.84,68.84,0,0,0,1-137.68Z"/><circle class="cls-5" cx="260.78" cy="133.27" r="32.59"/><g class="cls-6"><circle class="cls-2" cx="260.05" cy="183.75" r="6.1"/><circle class="cls-2" cx="295.96" cy="169.48" r="6.1"/><circle class="cls-2" cx="311.26" cy="134" r="6.1"/><circle class="cls-2" cx="296.98" cy="98.09" r="6.1"/><circle class="cls-2" cx="261.5" cy="82.79" r="6.1"/><circle class="cls-2" cx="225.59" cy="97.07" r="6.1"/><circle class="cls-2" cx="210.3" cy="132.55" r="6.1"/><circle class="cls-2" cx="224.57" cy="168.46" r="6.1"/></g><path class="cls-2" d="M50.43,262.28A59.88,59.88,0,1,0,2.26,192.62,59.88,59.88,0,0,0,50.43,262.28Zm16.43-90a31.62,31.62,0,1,1-36.8,25.44A31.63,31.63,0,0,1,66.86,172.26Z"/><rect class="cls-2" x="48.16" y="258.66" width="4.95" height="4.95" rx="0.23" transform="matrix(-0.98, -0.18, 0.18, -0.98, 53.56, 527.13)"/><rect class="cls-2" x="63.47" y="259.42" width="4.95" height="4.95" rx="0.27" transform="translate(152.94 517.58) rotate(175.34)"/><rect class="cls-2" x="78.45" y="256.19" width="4.95" height="4.95" rx="0.27" transform="translate(244.16 475.04) rotate(160.34)"/><rect class="cls-2" x="92.09" y="249.2" width="4.95" height="4.95" rx="0.27" transform="translate(315.48 404.91) rotate(145.34)"/><rect class="cls-2" x="103.46" y="238.91" width="4.95" height="4.95" rx="0.27" transform="translate(358.49 316.91) rotate(130.34)"/><rect class="cls-2" x="111.77" y="226.03" width="4.95" height="4.95" rx="0.27" transform="translate(369.66 223.06) rotate(115.34)"/><rect class="cls-2" x="116.47" y="211.44" width="4.95" height="4.95" rx="0.27" transform="translate(350.74 135.31) rotate(100.34)"/><rect class="cls-2" x="117.23" y="196.13" width="4.95" height="4.95" rx="0.27" transform="translate(307.93 63.17) rotate(85.34)"/><rect class="cls-2" x="114" y="181.14" width="4.95" height="4.95" rx="0.27" transform="translate(250.21 12.16) rotate(70.34)"/><rect class="cls-2" x="107" y="167.5" width="4.95" height="4.95" rx="0.27" transform="translate(187.04 -16.74) rotate(55.34)"/><rect class="cls-2" x="96.71" y="156.14" width="4.95" height="4.95" rx="0.27" transform="translate(126.27 -26.49) rotate(40.34)"/><rect class="cls-2" x="83.83" y="147.82" width="4.95" height="4.95" rx="0.27" transform="translate(72.64 -22.48) rotate(25.34)"/><rect class="cls-2" x="69.24" y="143.13" width="4.95" height="4.95" rx="0.27" transform="translate(27.31 -10.51) rotate(10.34)"/><rect class="cls-2" x="53.93" y="142.37" width="4.95" height="4.95" rx="0.27" transform="translate(-11.58 5.06) rotate(-4.66)"/><rect class="cls-2" x="38.95" y="145.6" width="4.95" height="4.95" rx="0.27" transform="translate(-47.4 22.56) rotate(-19.66)"/><rect class="cls-2" x="25.31" y="152.59" width="4.95" height="4.95" rx="0.27" transform="translate(-83.25 43.31) rotate(-34.66)"/><rect class="cls-2" x="13.94" y="162.88" width="4.95" height="4.95" rx="0.27" transform="translate(-120.24 70.83) rotate(-49.66)"/><rect class="cls-2" x="5.63" y="175.76" width="4.95" height="4.95" rx="0.27" transform="translate(-156.45 109.27) rotate(-64.66)"/><rect class="cls-2" x="0.93" y="190.35" width="4.95" height="4.95" rx="0.27" transform="translate(-186.9 161.56) rotate(-79.66)"/><rect class="cls-2" x="0.17" y="205.66" width="4.95" height="4.95" rx="0.27" transform="translate(-204.59 227.68) rotate(-94.66)"/><rect class="cls-2" x="3.4" y="220.65" width="4.95" height="4.95" rx="0.27" transform="translate(-202.27 303.72) rotate(-109.66)"/><rect class="cls-2" x="10.4" y="234.29" width="4.95" height="4.95" rx="0.27" transform="translate(-174.56 381.99) rotate(-124.66)"/><rect class="cls-2" x="20.69" y="245.65" width="4.95" height="4.95" rx="0.27" transform="translate(-119.81 452.24) rotate(-139.66)"/><rect class="cls-2" x="33.56" y="253.97" width="4.95" height="4.95" rx="0.27" transform="translate(-41.15 503.63) rotate(-154.66)"/><circle class="cls-7" cx="61.18" cy="203.37" r="49.2"/><circle class="cls-7" cx="61.18" cy="203.37" r="53.05"/><path class="cls-2" d="M61.21,220.63a17.44,17.44,0,0,1-3.13-.29,17.18,17.18,0,1,1,3.13.29Z"/><path class="cls-4" d="M61.14,200.49a2.64,2.64,0,0,1,.55.06A2.86,2.86,0,0,1,64,203.89a2.89,2.89,0,0,1-2.79,2.36,3.51,3.51,0,0,1-.55-.05,2.88,2.88,0,0,1-2.31-3.34,2.9,2.9,0,0,1,2.79-2.37h0m0-28.75a31.66,31.66,0,1,0,5.71.52,31.65,31.65,0,0,0-5.71-.52Z"/><circle class="cls-5" cx="61.18" cy="203.37" r="14.97"/><g class="cls-6"><circle class="cls-2" cx="57.01" cy="226.19" r="2.8"/><circle class="cls-2" cx="74.36" cy="222.45" r="2.8"/><circle class="cls-2" cx="83.99" cy="207.54" r="2.8"/><circle class="cls-2" cx="80.25" cy="190.18" r="2.8"/><circle class="cls-2" cx="65.34" cy="180.56" r="2.8"/><circle class="cls-2" cx="47.99" cy="184.29" r="2.8"/><circle class="cls-2" cx="38.36" cy="199.21" r="2.8"/><circle class="cls-2" cx="42.1" cy="216.56" r="2.8"/></g><path class="cls-2" d="M77.22,130.69a35.16,35.16,0,1,0-28.29-40.9A35.17,35.17,0,0,0,77.22,130.69Zm9.64-52.86a18.57,18.57,0,1,1-21.6,14.93A18.56,18.56,0,0,1,86.86,77.83Z"/><rect class="cls-2" x="75.88" y="128.56" width="2.91" height="2.91" rx="0.13" transform="translate(130.07 271.8) rotate(-169.66)"/><rect class="cls-2" x="84.87" y="129.01" width="2.91" height="2.91" rx="0.16" transform="translate(182.96 253.49) rotate(175.34)"/><rect class="cls-2" x="93.67" y="127.11" width="2.91" height="2.91" rx="0.16" transform="translate(227.96 217.64) rotate(160.34)"/><rect class="cls-2" x="101.68" y="123" width="2.91" height="2.91" rx="0.16" transform="translate(258.74 168.18) rotate(145.34)"/><rect class="cls-2" x="108.35" y="116.96" width="2.91" height="2.91" rx="0.16" transform="translate(271.15 111.38) rotate(130.34)"/><rect class="cls-2" x="113.23" y="109.4" width="2.91" height="2.91" rx="0.16" transform="translate(263.97 54.65) rotate(115.34)"/><rect class="cls-2" x="115.99" y="100.83" width="2.91" height="2.91" rx="0.16" transform="translate(239.16 5.11) rotate(100.34)"/><rect class="cls-2" x="116.44" y="91.84" width="2.91" height="2.91" rx="0.16" transform="translate(201.31 -31.78) rotate(85.34)"/><rect class="cls-2" x="114.54" y="83.04" width="2.91" height="2.91" rx="0.16" transform="translate(156.55 -53.16) rotate(70.34)"/><rect class="cls-2" x="110.43" y="75.03" width="2.91" height="2.91" rx="0.16" transform="translate(111.18 -59.04) rotate(55.34)"/><rect class="cls-2" x="104.39" y="68.36" width="2.91" height="2.91" rx="0.16" transform="translate(70.37 -51.92) rotate(40.34)"/><rect class="cls-2" x="96.83" y="63.48" width="2.91" height="2.91" rx="0.16" transform="translate(37.25 -35.82) rotate(25.34)"/><rect class="cls-2" x="88.26" y="60.72" width="2.91" height="2.91" rx="0.16" transform="translate(12.62 -15.1) rotate(10.34)"/><rect class="cls-2" x="79.27" y="60.28" width="2.91" height="2.91" rx="0.16" transform="translate(-4.75 6.76) rotate(-4.66)"/><rect class="cls-2" x="70.47" y="62.17" width="2.91" height="2.91" rx="0.16" transform="translate(-17.21 27.9) rotate(-19.66)"/><rect class="cls-2" x="62.46" y="66.28" width="2.91" height="2.91" rx="0.16" transform="translate(-27.18 48.37) rotate(-34.66)"/><rect class="cls-2" x="55.79" y="72.32" width="2.91" height="2.91" rx="0.16" transform="translate(-36.04 69.65) rotate(-49.66)"/><rect class="cls-2" x="50.91" y="79.88" width="2.91" height="2.91" rx="0.16" transform="translate(-43.56 93.85) rotate(-64.66)"/><rect class="cls-2" x="48.15" y="88.45" width="2.91" height="2.91" rx="0.16" transform="translate(-47.75 122.57) rotate(-79.66)"/><rect class="cls-2" x="47.71" y="97.44" width="2.91" height="2.91" rx="0.16" transform="translate(-45.42 155.92) rotate(-94.66)"/><rect class="cls-2" x="49.6" y="106.24" width="2.91" height="2.91" rx="0.16" transform="translate(-33.19 192) rotate(-109.66)"/><rect class="cls-2" x="53.71" y="114.25" width="2.91" height="2.91" rx="0.16" transform="translate(-8.64 226.88) rotate(-124.66)"/><rect class="cls-2" x="59.75" y="120.92" width="2.91" height="2.91" rx="0.16" transform="translate(28.63 255.27) rotate(-139.66)"/><rect class="cls-2" x="67.31" y="125.8" width="2.91" height="2.91" rx="0.16" transform="translate(76.45 271.71) rotate(-154.66)"/><circle class="cls-8" cx="83.53" cy="96.1" r="28.89"/><circle class="cls-8" cx="83.53" cy="96.1" r="31.15"/><path class="cls-2" d="M83.55,106.23a10.41,10.41,0,0,1-1.84-.17A10.13,10.13,0,0,1,83.5,86a10.32,10.32,0,0,1,1.84.16,10.13,10.13,0,0,1-1.79,20.1Z"/><path class="cls-4" d="M83.51,77.52a18.57,18.57,0,0,0-3.32,36.84,18.35,18.35,0,0,0,3.36.31,18.57,18.57,0,0,0,3.31-36.84,18.32,18.32,0,0,0-3.35-.31Z"/><circle class="cls-5" cx="83.53" cy="96.1" r="8.79"/><g class="cls-6"><circle class="cls-2" cx="81.08" cy="109.49" r="1.65"/><circle class="cls-2" cx="91.27" cy="107.3" r="1.65"/><circle class="cls-2" cx="96.92" cy="98.54" r="1.65"/><circle class="cls-2" cx="94.73" cy="88.35" r="1.65"/><circle class="cls-2" cx="85.97" cy="82.7" r="1.65"/><circle class="cls-2" cx="75.78" cy="84.89" r="1.65"/><circle class="cls-2" cx="70.13" cy="93.65" r="1.65"/><circle class="cls-2" cx="72.32" cy="103.84" r="1.65"/></g></g><path class="cls-2" d="M151.78,49.94A104.22,104.22,0,1,0,256,154.15,104.21,104.21,0,0,0,151.78,49.94Zm0,159.25a55,55,0,1,1,55-55A55,55,0,0,1,151.78,209.19Z"/><rect class="cls-2" x="147.48" y="47.66" width="8.62" height="8.62" rx="0.4"/><rect class="cls-2" x="121.03" y="51.14" width="8.62" height="8.62" rx="0.48" transform="translate(-10.08 34.33) rotate(-15)"/><rect class="cls-2" x="96.38" y="61.35" width="8.62" height="8.62" rx="0.48" transform="translate(-19.34 59.14) rotate(-30)"/><rect class="cls-2" x="75.22" y="77.59" width="8.62" height="8.62" rx="0.48" transform="translate(-34.62 80.22) rotate(-45)"/><rect class="cls-2" x="58.98" y="98.75" width="8.62" height="8.62" rx="0.48" transform="translate(-57.61 106.34) rotate(-60)"/><rect class="cls-2" x="48.77" y="123.4" width="8.62" height="8.62" rx="0.48" transform="translate(-84.01 145.92) rotate(-75)"/><rect class="cls-2" x="45.29" y="149.85" width="8.62" height="8.62" rx="0.48" transform="translate(-104.56 203.75) rotate(-90)"/><rect class="cls-2" x="48.77" y="176.29" width="8.62" height="8.62" rx="0.48" transform="translate(-107.63 278.62) rotate(-105)"/><rect class="cls-2" x="58.98" y="200.94" width="8.62" height="8.62" rx="0.48" transform="translate(-82.82 362.68) rotate(-120)"/><rect class="cls-2" x="75.22" y="222.11" width="8.62" height="8.62" rx="0.48" transform="translate(-24.34 442.75) rotate(-135)"/><rect class="cls-2" x="96.38" y="238.35" width="8.62" height="8.62" rx="0.48" transform="translate(66.57 503.15) rotate(-150)"/><rect class="cls-2" x="121.03" y="248.55" width="8.62" height="8.62" rx="0.48" transform="translate(180.96 529.55) rotate(-165)"/><rect class="cls-2" x="147.48" y="252.04" width="8.62" height="8.62" rx="0.48" transform="translate(303.58 512.69) rotate(-180)"/><rect class="cls-2" x="173.93" y="248.55" width="8.62" height="8.62" rx="0.48" transform="matrix(-0.97, 0.26, -0.26, -0.97, 415.85, 450.98)"/><rect class="cls-2" x="198.57" y="238.35" width="8.62" height="8.62" rx="0.48" transform="translate(499.91 351.36) rotate(150)"/><rect class="cls-2" x="219.74" y="222.11" width="8.62" height="8.62" rx="0.48" transform="translate(542.57 228.09) rotate(135)"/><rect class="cls-2" x="235.98" y="200.94" width="8.62" height="8.62" rx="0.48" transform="matrix(-0.5, 0.87, -0.87, -0.5, 538.18, 99.78)"/><rect class="cls-2" x="246.19" y="176.29" width="8.62" height="8.62" rx="0.48" transform="translate(489.78 -14.61) rotate(105)"/><rect class="cls-2" x="249.67" y="149.85" width="8.62" height="8.62" rx="0.48" transform="translate(408.13 -99.82) rotate(90)"/><rect class="cls-2" x="246.19" y="123.4" width="8.62" height="8.62" rx="0.48" transform="translate(309.02 -147.31) rotate(75)"/><rect class="cls-2" x="235.98" y="98.75" width="8.62" height="8.62" rx="0.48" transform="translate(209.4 -156.57) rotate(60)"/><rect class="cls-2" x="219.74" y="77.59" width="8.62" height="8.62" rx="0.48" transform="translate(123.53 -134.44) rotate(45)"/><rect class="cls-2" x="198.57" y="61.35" width="8.62" height="8.62" rx="0.48" transform="translate(60.01 -92.65) rotate(30)"/><rect class="cls-2" x="173.93" y="51.14" width="8.62" height="8.62" rx="0.48" transform="translate(20.42 -44.24) rotate(15)"/><circle class="cls-9" cx="151.79" cy="154.16" r="85.63"/><circle class="cls-9" cx="151.79" cy="154.16" r="92.32"/><path class="cls-4" d="M151.79,149.16a5,5,0,1,1-5,5,5,5,0,0,1,5-5m0-50a55,55,0,1,0,55,55,55,55,0,0,0-55-55Z"/><circle class="cls-10" cx="151.79" cy="154.16" r="26.06"/><g class="cls-6"><circle class="cls-11" cx="151.79" cy="113.79" r="4.88"/><circle class="cls-11" cx="123.25" cy="125.62" r="4.88"/><circle class="cls-11" cx="111.43" cy="154.16" r="4.88"/><circle class="cls-11" cx="123.25" cy="182.69" r="4.88"/><circle class="cls-11" cx="151.79" cy="194.52" r="4.88"/><circle class="cls-11" cx="180.33" cy="182.69" r="4.88"/><circle class="cls-11" cx="192.15" cy="154.16" r="4.88"/><circle class="cls-11" cx="180.33" cy="125.62" r="4.88"/></g><path class="cls-2" d="M318.46,48.62a47.87,47.87,0,1,0,39.29,55.13A47.88,47.88,0,0,0,318.46,48.62Zm-12.11,72.15A25.28,25.28,0,1,1,335.47,100,25.29,25.29,0,0,1,306.35,120.77Z"/><rect class="cls-2" x="316.32" y="47.56" width="3.96" height="3.96" rx="0.18" transform="translate(12.58 -51.97) rotate(9.52)"/><rect class="cls-2" x="304.08" y="47.13" width="3.96" height="3.96" rx="0.22" transform="translate(-3.29 29.44) rotate(-5.48)"/><rect class="cls-2" x="292.14" y="49.88" width="3.96" height="3.96" rx="0.22" transform="matrix(0.94, -0.35, 0.35, 0.94, 0.44, 106.17)"/><rect class="cls-2" x="281.31" y="55.63" width="3.96" height="3.96" rx="0.22" transform="translate(19.16 175.12) rotate(-35.48)"/><rect class="cls-2" x="272.35" y="63.98" width="3.96" height="3.96" rx="0.22" transform="translate(48.87 235.6) rotate(-50.48)"/><rect class="cls-2" x="265.85" y="74.37" width="3.96" height="3.96" rx="0.22" transform="translate(87.2 288.33) rotate(-65.48)"/><rect class="cls-2" x="262.26" y="86.09" width="3.96" height="3.96" rx="0.22" transform="translate(133.67 334.1) rotate(-80.48)"/><rect class="cls-2" x="261.83" y="98.34" width="3.96" height="3.96" rx="0.22" transform="translate(189.13 372.5) rotate(-95.48)"/><rect class="cls-2" x="264.58" y="110.28" width="3.96" height="3.96" rx="0.22" transform="matrix(-0.35, -0.94, 0.94, -0.35, 254.65, 401.25)"/><rect class="cls-2" x="270.33" y="121.1" width="3.96" height="3.96" rx="0.22" transform="translate(330.13 416.27) rotate(-125.48)"/><rect class="cls-2" x="278.69" y="130.07" width="3.96" height="3.96" rx="0.22" transform="translate(413.13 412.52) rotate(-140.48)"/><rect class="cls-2" x="289.08" y="136.57" width="3.96" height="3.96" rx="0.22" transform="translate(498.36 385.4) rotate(-155.48)"/><rect class="cls-2" x="300.79" y="140.15" width="3.96" height="3.96" rx="0.22" transform="translate(577.86 332.39) rotate(-170.48)"/><rect class="cls-2" x="313.04" y="140.59" width="3.96" height="3.96" rx="0.22" transform="translate(642.21 254.41) rotate(174.52)"/><rect class="cls-2" x="324.98" y="137.83" width="3.96" height="3.96" rx="0.22" transform="translate(682.18 156.4) rotate(159.52)"/><rect class="cls-2" x="335.81" y="132.09" width="3.96" height="3.96" rx="0.22" transform="translate(690.67 47.19) rotate(144.52)"/><rect class="cls-2" x="344.77" y="123.73" width="3.96" height="3.96" rx="0.22" transform="translate(664.38 -61.77) rotate(129.52)"/><rect class="cls-2" x="351.27" y="113.34" width="3.96" height="3.96" rx="0.22" transform="translate(604.78 -158.21) rotate(114.52)"/><rect class="cls-2" x="354.86" y="101.62" width="3.96" height="3.96" rx="0.22" transform="translate(518.04 -231.18) rotate(99.52)"/><rect class="cls-2" x="355.29" y="89.37" width="3.96" height="3.96" rx="0.22" transform="translate(414.1 -273) rotate(84.52)"/><rect class="cls-2" x="352.54" y="77.43" width="3.96" height="3.96" rx="0.22" transform="translate(304.88 -280.48) rotate(69.52)"/><rect class="cls-2" x="346.79" y="66.61" width="3.96" height="3.96" rx="0.22" transform="translate(202.2 -255.23) rotate(54.52)"/><rect class="cls-2" x="338.43" y="57.64" width="3.96" height="3.96" rx="0.22" transform="translate(115.77 -203) rotate(39.52)"/><rect class="cls-2" x="328.04" y="51.15" width="3.96" height="3.96" rx="0.22" transform="translate(51.82 -132.18) rotate(24.52)"/><circle class="cls-12" cx="310.54" cy="95.84" r="39.34"/><circle class="cls-12" cx="310.54" cy="95.84" r="42.41"/><path class="cls-4" d="M310.51,93.54l.41,0a2.27,2.27,0,0,1,1.49.93,2.24,2.24,0,0,1,.39,1.72,2.31,2.31,0,0,1-2.23,1.92,3,3,0,0,1-.41,0,2.3,2.3,0,0,1-1.89-2.64,2.31,2.31,0,0,1,2.24-1.92m0-23a25.29,25.29,0,1,0,4.21.35,25.28,25.28,0,0,0-4.21-.35Z"/><circle class="cls-10" cx="310.54" cy="95.84" r="11.97"/><g class="cls-6"><circle class="cls-11" cx="313.61" cy="77.55" r="2.24"/><circle class="cls-11" cx="299.78" cy="80.74" r="2.24"/><circle class="cls-11" cx="292.25" cy="92.77" r="2.24"/><circle class="cls-11" cx="295.44" cy="106.6" r="2.24"/><circle class="cls-11" cx="307.47" cy="114.12" r="2.24"/><circle class="cls-11" cx="321.3" cy="110.93" r="2.24"/><circle class="cls-11" cx="328.82" cy="98.9" r="2.24"/><circle class="cls-11" cx="325.64" cy="85.08" r="2.24"/></g><path class="cls-2" d="M298.55,154.12a28.11,28.11,0,1,0,23.07,32.37A28.11,28.11,0,0,0,298.55,154.12Zm-7.11,42.36a14.85,14.85,0,1,1,17.1-12.18A14.84,14.84,0,0,1,291.44,196.48Z"/><rect class="cls-2" x="297.3" y="153.5" width="2.32" height="2.32" rx="0.11" transform="translate(29.7 -47.24) rotate(9.52)"/><rect class="cls-2" x="290.11" y="153.24" width="2.32" height="2.32" rx="0.13" transform="translate(-13.41 28.51) rotate(-5.48)"/><rect class="cls-2" x="283.09" y="154.86" width="2.32" height="2.32" rx="0.13" transform="translate(-36.62 109.31) rotate(-20.48)"/><rect class="cls-2" x="276.74" y="158.23" width="2.32" height="2.32" rx="0.13" transform="translate(-40.92 190.89) rotate(-35.48)"/><rect class="cls-2" x="271.48" y="163.14" width="2.32" height="2.32" rx="0.13" transform="translate(-27.6 270.05) rotate(-50.48)"/><rect class="cls-2" x="267.66" y="169.24" width="2.32" height="2.32" rx="0.13" transform="translate(2.22 344.25) rotate(-65.48)"/><rect class="cls-2" x="265.55" y="176.12" width="2.32" height="2.32" rx="0.13" transform="translate(47.75 411) rotate(-80.48)"/><rect class="cls-2" x="265.3" y="183.31" width="2.32" height="2.32" rx="0.13" transform="translate(108.27 467.33) rotate(-95.48)"/><rect class="cls-2" x="266.92" y="190.32" width="2.32" height="2.32" rx="0.13" transform="translate(182.48 509.62) rotate(-110.48)"/><rect class="cls-2" x="270.29" y="196.68" width="2.32" height="2.32" rx="0.13" transform="translate(267.9 533.72) rotate(-125.48)"/><rect class="cls-2" x="275.2" y="201.94" width="2.32" height="2.32" rx="0.13" transform="translate(360.29 535.65) rotate(-140.48)"/><rect class="cls-2" x="281.3" y="205.76" width="2.32" height="2.32" rx="0.13" transform="translate(453.56 512.41) rotate(-155.48)"/><rect class="cls-2" x="288.18" y="207.87" width="2.32" height="2.32" rx="0.13" transform="translate(540.12 463.04) rotate(-170.48)"/><rect class="cls-2" x="295.37" y="208.12" width="2.32" height="2.32" rx="0.13" transform="translate(611.69 389.3) rotate(174.52)"/><rect class="cls-2" x="302.38" y="206.5" width="2.32" height="2.32" rx="0.13" transform="translate(660.56 296.01) rotate(159.52)"/><rect class="cls-2" x="308.74" y="203.13" width="2.32" height="2.32" rx="0.13" transform="translate(680.83 190.79) rotate(144.52)"/><rect class="cls-2" x="314" y="198.22" width="2.32" height="2.32" rx="0.13" transform="translate(669.53 83.15) rotate(129.52)"/><rect class="cls-2" x="317.82" y="192.12" width="2.32" height="2.32" rx="0.13" transform="translate(627.22 -16.71) rotate(114.52)"/><rect class="cls-2" x="319.92" y="185.24" width="2.32" height="2.32" rx="0.13" transform="translate(558.04 -99.42) rotate(99.52)"/><rect class="cls-2" x="320.18" y="178.05" width="2.32" height="2.32" rx="0.13" transform="translate(469.05 -157.77) rotate(84.52)"/><rect class="cls-2" x="318.56" y="171.04" width="2.32" height="2.32" rx="0.13" transform="translate(369.18 -187.56) rotate(69.52)"/><rect class="cls-2" x="315.19" y="164.68" width="2.32" height="2.32" rx="0.13" transform="translate(267.79 -188.02) rotate(54.52)"/><rect class="cls-2" x="310.28" y="159.42" width="2.32" height="2.32" rx="0.13" transform="translate(173.39 -161.48) rotate(39.52)"/><rect class="cls-2" x="304.18" y="155.6" width="2.32" height="2.32" rx="0.13" transform="translate(92.6 -112.59) rotate(24.52)"/><circle class="cls-13" cx="293.9" cy="181.84" r="23.1"/><circle class="cls-13" cx="293.9" cy="181.84" r="24.9"/><path class="cls-4" d="M293.88,167a14.82,14.82,0,1,0,2.48.2,14.84,14.84,0,0,0-2.48-.2Z"/><circle class="cls-10" cx="293.9" cy="181.84" r="7.03"/><g class="cls-6"><circle class="cls-11" cx="295.7" cy="171.11" r="1.32"/><circle class="cls-11" cx="287.58" cy="172.98" r="1.32"/><circle class="cls-11" cx="283.16" cy="180.04" r="1.32"/><circle class="cls-11" cx="285.04" cy="188.16" r="1.32"/><circle class="cls-11" cx="292.1" cy="192.58" r="1.32"/><circle class="cls-11" cx="300.22" cy="190.71" r="1.32"/><circle class="cls-11" cx="304.64" cy="183.64" r="1.32"/><circle class="cls-11" cx="302.77" cy="175.52" r="1.32"/></g></g></g></svg>