<svg xmlns="http://www.w3.org/2000/svg" viewBox="0 0 38 38"><defs><style>.cls-1{fill:#e30613;}</style></defs><g id="Layer_2" data-name="Layer 2"><g id="Layer_1-2" data-name="Layer 1"><path class="cls-1" d="M26.05,16.15a2.25,2.25,0,0,0,1.67-.67,2.35,2.35,0,0,0,.68-1.73A2.37,2.37,0,0,0,27.72,12a2.25,2.25,0,0,0-1.67-.67,2.3,2.3,0,0,0-2.4,2.4,2.4,2.4,0,0,0,.67,1.73A2.34,2.34,0,0,0,26.05,16.15Zm-14.1,0a2.32,2.32,0,0,0,1.72-.67,2.35,2.35,0,0,0,.68-1.73A2.37,2.37,0,0,0,13.67,12,2.31,2.31,0,0,0,12,11.35a2.28,2.28,0,0,0-1.68.67,2.34,2.34,0,0,0-.67,1.73,2.37,2.37,0,0,0,.68,1.73A2.25,2.25,0,0,0,12,16.15Zm7.05,6a10,10,0,0,0-5.52,1.65A10.46,10.46,0,0,0,9.55,28.4H11.7a7.83,7.83,0,0,1,3.05-3.17,8.45,8.45,0,0,1,4.3-1.13,8.26,8.26,0,0,1,7.3,4.3h2.1A10.3,10.3,0,0,0,19,22.1ZM19,38a18.37,18.37,0,0,1-7.4-1.5A19.28,19.28,0,0,1,1.5,26.4,18.37,18.37,0,0,1,0,19a18.5,18.5,0,0,1,1.5-7.42,19,19,0,0,1,4.07-6,19.61,19.61,0,0,1,6-4A18.37,18.37,0,0,1,19,0a18.5,18.5,0,0,1,7.42,1.5A18.84,18.84,0,0,1,36.5,11.58,18.5,18.5,0,0,1,38,19a18.37,18.37,0,0,1-1.5,7.4,19.45,19.45,0,0,1-4,6,18.9,18.9,0,0,1-6,4.08A18.5,18.5,0,0,1,19,38Zm0-2.25a16.13,16.13,0,0,0,11.88-4.9A16.23,16.23,0,0,0,35.75,19,16.22,16.22,0,0,0,30.88,7.12,16.17,16.17,0,0,0,19.05,2.25,16.28,16.28,0,0,0,7.15,7.12,16.08,16.08,0,0,0,2.25,19a16.19,16.19,0,0,0,4.9,11.9A16.14,16.14,0,0,0,19,35.75Z"/></g></g></svg>