<svg xmlns="http://www.w3.org/2000/svg" viewBox="0 0 32.8 32.75"><defs><style>.cls-1{fill:#fff;}</style></defs><g id="Layer_2" data-name="Layer 2"><g id="Layer_1-2" data-name="Layer 1"><path class="cls-1" d="M31.65,32.75,18.85,20A10.35,10.35,0,0,1,15.38,22a11.8,11.8,0,0,1-4,.7,11,11,0,0,1-8.07-3.3,10.9,10.9,0,0,1-3.33-8,11,11,0,0,1,3.3-8A11,11,0,0,1,11.35,0a11,11,0,0,1,8.08,3.3,10.93,10.93,0,0,1,3.32,8.05,11.7,11.7,0,0,1-.72,4A10.77,10.77,0,0,1,20,18.85L32.8,31.6ZM11.4,21.15a9.56,9.56,0,0,0,7-2.82,9.45,9.45,0,0,0,2.85-7,9.51,9.51,0,0,0-2.85-7,9.51,9.51,0,0,0-7-2.85,9.51,9.51,0,0,0-7,2.85,9.51,9.51,0,0,0-2.85,7,9.45,9.45,0,0,0,2.85,7A9.56,9.56,0,0,0,11.4,21.15Z"/></g></g></svg>