<svg xmlns="http://www.w3.org/2000/svg" viewBox="0 0 368.71 266.22"><defs><style>.cls-1{fill:#030202;}.cls-2,.cls-3{fill:#fff;}.cls-3{opacity:0.78;}</style></defs><g id="Layer_2" data-name="Layer 2"><g id="Layer_1-2" data-name="Layer 1"><rect class="cls-1" width="368.71" height="266.22"/><circle class="cls-2" cx="181.54" cy="145.37" r="1.52"/><circle class="cls-2" cx="227.49" cy="181.47" r="1.52"/><circle class="cls-2" cx="251.7" cy="158.87" r="1.1"/><circle class="cls-2" cx="194.99" cy="202.2" r="1.1"/><circle class="cls-2" cx="295.52" cy="208.59" r="1.1"/><circle class="cls-2" cx="317.39" cy="163.58" r="1.1"/><circle class="cls-2" cx="332.45" cy="143.85" r="1.52"/><circle class="cls-2" cx="191.38" cy="232.56" r="1.52"/><circle class="cls-2" cx="69.1" cy="53.63" r="1.52"/><circle class="cls-2" cx="130.68" cy="101.66" r="1.52"/><circle class="cls-2" cx="139.26" cy="67.13" r="1.1"/><circle class="cls-2" cx="82.56" cy="110.46" r="1.1"/><circle class="cls-2" cx="183.09" cy="116.85" r="1.1"/><circle class="cls-2" cx="204.96" cy="71.84" r="1.1"/><circle class="cls-2" cx="220.01" cy="52.11" r="1.52"/><circle class="cls-2" cx="78.95" cy="140.82" r="1.52"/><circle class="cls-3" cx="192.51" cy="145.87" r="1.52"/><circle class="cls-3" cx="268.84" cy="129.33" r="1.52"/><circle class="cls-3" cx="247.81" cy="100.62" r="1.1"/><circle class="cls-3" cx="244.78" cy="171.92" r="1.1"/><circle class="cls-3" cx="314.06" cy="98.79" r="1.1"/><circle class="cls-3" cx="293.49" cy="53.17" r="1.1"/><circle class="cls-3" cx="310.49" cy="23.88" r="1.87"/><circle class="cls-3" cx="265.79" cy="194.14" r="1.52"/><circle class="cls-2" cx="133.6" cy="170.07" r="1.1"/><circle class="cls-2" cx="178.25" cy="204.9" r="1.1"/><circle class="cls-2" cx="184.47" cy="179.87" r="0.8"/><circle class="cls-2" cx="143.36" cy="211.28" r="0.8"/><circle class="cls-2" cx="216.25" cy="215.91" r="0.8"/><circle class="cls-2" cx="232.11" cy="183.28" r="0.8"/><circle class="cls-2" cx="243.02" cy="168.97" r="1.1"/><circle class="cls-2" cx="140.74" cy="233.29" r="1.1"/><circle class="cls-2" cx="52.08" cy="103.56" r="1.1"/><circle class="cls-2" cx="96.73" cy="138.39" r="1.1"/><circle class="cls-2" cx="102.95" cy="113.35" r="0.8"/><circle class="cls-2" cx="61.84" cy="144.76" r="0.8"/><circle class="cls-2" cx="134.73" cy="149.4" r="0.8"/><circle class="cls-2" cx="150.59" cy="116.76" r="0.8"/><circle class="cls-2" cx="161.5" cy="102.46" r="1.1"/><circle class="cls-2" cx="59.22" cy="166.78" r="1.1"/><circle class="cls-3" cx="141.56" cy="170.44" r="1.1"/><circle class="cls-3" cx="196.9" cy="158.44" r="1.1"/><circle class="cls-3" cx="181.65" cy="137.63" r="0.8"/><circle class="cls-3" cx="179.46" cy="189.33" r="0.8"/><circle class="cls-3" cx="229.69" cy="136.3" r="0.8"/><circle class="cls-3" cx="214.77" cy="103.23" r="0.8"/><circle class="cls-3" cx="210.78" cy="85.68" r="1.1"/><circle class="cls-3" cx="194.69" cy="205.43" r="1.1"/><circle class="cls-2" cx="177.98" cy="134.52" r="0.87"/><circle class="cls-2" cx="196.5" cy="175.32" r="0.87"/><circle class="cls-2" cx="210.05" cy="160.05" r="0.63"/><circle class="cls-2" cx="169.7" cy="166.99" r="0.63"/><circle class="cls-2" cx="219.1" cy="196.99" r="0.63"/><circle class="cls-2" cx="242.19" cy="179.92" r="0.63"/><circle class="cls-2" cx="255.09" cy="173.9" r="0.87"/><circle class="cls-2" cx="159.78" cy="181.47" r="0.87"/><circle class="cls-2" cx="145.23" cy="57.98" r="0.87"/><circle class="cls-2" cx="163.75" cy="98.78" r="0.87"/><circle class="cls-2" cx="177.3" cy="83.51" r="0.63"/><circle class="cls-2" cx="136.95" cy="90.44" r="0.63"/><circle class="cls-2" cx="186.35" cy="120.44" r="0.63"/><circle class="cls-2" cx="209.45" cy="103.38" r="0.63"/><circle class="cls-2" cx="222.35" cy="97.35" r="0.87"/><circle class="cls-2" cx="127.04" cy="104.92" r="0.87"/><circle class="cls-3" cx="183.42" cy="137.7" r="0.87"/><circle class="cls-3" cx="226.62" cy="149.59" r="0.87"/><circle class="cls-3" cx="223.57" cy="129.41" r="0.63"/><circle class="cls-3" cx="203.06" cy="164.85" r="0.63"/><circle class="cls-3" cx="257.73" cy="146.1" r="0.63"/><circle class="cls-3" cx="259.41" cy="117.44" r="0.63"/><circle class="cls-3" cx="263.05" cy="103.67" r="0.87"/><circle class="cls-3" cx="207.83" cy="181.73" r="0.87"/><circle class="cls-2" cx="147.04" cy="134.33" r="0.63"/><circle class="cls-2" cx="160.47" cy="163.91" r="0.63"/><circle class="cls-2" cx="170.29" cy="152.84" r="0.46"/><circle class="cls-2" cx="141.04" cy="157.87" r="0.46"/><circle class="cls-2" cx="176.85" cy="179.62" r="0.46"/><circle class="cls-2" cx="193.6" cy="167.25" r="0.46"/><circle class="cls-2" cx="202.95" cy="162.88" r="0.63"/><circle class="cls-2" cx="133.85" cy="168.37" r="0.63"/><circle class="cls-2" cx="123.3" cy="78.83" r="0.63"/><circle class="cls-2" cx="136.73" cy="108.41" r="0.63"/><circle class="cls-2" cx="146.55" cy="97.34" r="0.46"/><circle class="cls-2" cx="117.29" cy="102.37" r="0.46"/><circle class="cls-2" cx="153.11" cy="124.12" r="0.46"/><circle class="cls-2" cx="169.85" cy="111.75" r="0.46"/><circle class="cls-2" cx="179.21" cy="107.38" r="0.63"/><circle class="cls-2" cx="110.11" cy="112.86" r="0.63"/><circle class="cls-3" cx="150.99" cy="136.63" r="0.63"/><circle class="cls-3" cx="182.31" cy="145.26" r="0.63"/><circle class="cls-3" cx="180.09" cy="130.62" r="0.46"/><circle class="cls-3" cx="165.23" cy="156.32" r="0.46"/><circle class="cls-3" cx="204.87" cy="142.73" r="0.46"/><circle class="cls-3" cx="206.08" cy="121.94" r="0.46"/><circle class="cls-3" cx="208.72" cy="111.96" r="0.63"/><circle class="cls-3" cx="168.69" cy="168.56" r="0.63"/><circle class="cls-2" cx="177.86" cy="154.16" r="1.52"/><circle class="cls-2" cx="236.07" cy="149.05" r="1.52"/><circle class="cls-2" cx="243.02" cy="116.76" r="1.1"/><circle class="cls-2" cx="226.54" cy="186.41" r="1.1"/><circle class="cls-2" cx="304.25" cy="122.31" r="1.1"/><circle class="cls-2" cx="289.41" cy="74.51" r="1.1"/><circle class="cls-2" cx="286.9" cy="49.82" r="1.52"/><circle class="cls-2" cx="244.68" cy="211.03" r="1.52"/><circle class="cls-2" cx="33.08" cy="164.14" r="1.52"/><circle class="cls-2" cx="110.86" cy="157.06" r="1.52"/><circle class="cls-2" cx="93.5" cy="126" r="1.1"/><circle class="cls-2" cx="81.77" cy="196.39" r="1.1"/><circle class="cls-2" cx="159.48" cy="132.29" r="1.1"/><circle class="cls-2" cx="144.64" cy="84.5" r="1.1"/><circle class="cls-2" cx="142.13" cy="59.81" r="1.52"/><circle class="cls-2" cx="99.91" cy="221.01" r="1.52"/><circle class="cls-3" cx="186.2" cy="147.01" r="1.52"/><circle class="cls-3" cx="230.57" cy="82.74" r="1.52"/><circle class="cls-3" cx="195.59" cy="76.19" r="1.1"/><circle class="cls-3" cx="242.15" cy="130.26" r="1.1"/><circle class="cls-3" cx="242.67" cy="29.53" r="1.1"/><circle class="cls-3" cx="196.45" cy="10.33" r="1.1"/><circle class="cls-3" cx="272.68" cy="132.1" r="1.52"/><circle class="cls-2" cx="159.79" cy="204.96" r="1.1"/><circle class="cls-2" cx="216.18" cy="199.83" r="1.1"/><circle class="cls-2" cx="203.59" cy="177.31" r="0.8"/><circle class="cls-2" cx="195.09" cy="228.35" r="0.8"/><circle class="cls-2" cx="251.43" cy="181.87" r="0.8"/><circle class="cls-2" cx="240.67" cy="147.22" r="0.8"/><circle class="cls-2" cx="238.85" cy="129.32" r="1.1"/><circle class="cls-2" cx="208.24" cy="246.2" r="1.1"/><circle class="cls-2" cx="54.82" cy="212.2" r="1.1"/><circle class="cls-2" cx="111.21" cy="207.07" r="1.1"/><circle class="cls-2" cx="98.63" cy="184.55" r="0.8"/><circle class="cls-2" cx="90.12" cy="235.59" r="0.8"/><circle class="cls-2" cx="146.46" cy="189.11" r="0.8"/><circle class="cls-2" cx="135.71" cy="154.46" r="0.8"/><circle class="cls-2" cx="133.89" cy="136.56" r="1.1"/><circle class="cls-2" cx="103.27" cy="253.44" r="1.1"/><circle class="cls-3" cx="165.84" cy="199.79" r="1.1"/><circle class="cls-3" cx="198.01" cy="153.18" r="1.1"/><circle class="cls-3" cx="172.65" cy="148.43" r="0.8"/><circle class="cls-3" cx="206.41" cy="187.64" r="0.8"/><circle class="cls-3" cx="206.78" cy="114.61" r="0.8"/><circle class="cls-3" cx="173.27" cy="100.68" r="0.8"/><circle class="cls-3" cx="158.36" cy="90.62" r="1.1"/><circle class="cls-3" cx="228.54" cy="188.97" r="1.1"/><circle class="cls-2" cx="167.84" cy="148.68" r="0.87"/><circle class="cls-2" cx="209.26" cy="165.77" r="0.87"/><circle class="cls-2" cx="208.7" cy="145.37" r="0.63"/><circle class="cls-2" cx="184.01" cy="178.03" r="0.63"/><circle class="cls-2" cx="240.56" cy="166.12" r="0.63"/><circle class="cls-2" cx="245.74" cy="137.87" r="0.63"/><circle class="cls-2" cx="251.03" cy="124.66" r="0.87"/><circle class="cls-2" cx="186.68" cy="195.37" r="0.87"/><circle class="cls-2" cx="91.59" cy="115.24" r="0.87"/><circle class="cls-2" cx="133.01" cy="132.33" r="0.87"/><circle class="cls-2" cx="132.45" cy="111.93" r="0.63"/><circle class="cls-2" cx="107.76" cy="144.59" r="0.63"/><circle class="cls-2" cx="164.31" cy="132.68" r="0.63"/><circle class="cls-2" cx="169.49" cy="104.43" r="0.63"/><circle class="cls-2" cx="174.78" cy="91.22" r="0.87"/><circle class="cls-2" cx="110.43" cy="161.93" r="0.87"/><circle class="cls-3" cx="173.98" cy="147.27" r="0.87"/><circle class="cls-3" cx="213.64" cy="126.4" r="0.87"/><circle class="cls-3" cx="197.6" cy="113.76" r="0.63"/><circle class="cls-3" cx="206.88" cy="153.64" r="0.63"/><circle class="cls-3" cx="233.94" cy="102.57" r="0.63"/><circle class="cls-3" cx="215.56" cy="80.52" r="0.63"/><circle class="cls-3" cx="208.8" cy="67.99" r="0.87"/><circle class="cls-3" cx="221.91" cy="162.69" r="0.87"/><circle class="cls-2" cx="145.14" cy="169.7" r="0.63"/><circle class="cls-2" cx="175.17" cy="182.09" r="0.63"/><circle class="cls-2" cx="174.76" cy="167.3" r="0.46"/><circle class="cls-2" cx="156.86" cy="190.98" r="0.46"/><circle class="cls-2" cx="197.87" cy="182.34" r="0.46"/><circle class="cls-2" cx="201.62" cy="161.87" r="0.46"/><circle class="cls-2" cx="205.46" cy="152.28" r="0.63"/><circle class="cls-2" cx="158.8" cy="203.55" r="0.63"/><circle class="cls-2" cx="89.86" cy="145.45" r="0.63"/><circle class="cls-2" cx="119.89" cy="157.85" r="0.63"/><circle class="cls-2" cx="119.48" cy="143.05" r="0.46"/><circle class="cls-2" cx="101.58" cy="166.73" r="0.46"/><circle class="cls-2" cx="142.58" cy="158.1" r="0.46"/><circle class="cls-2" cx="146.33" cy="137.62" r="0.46"/><circle class="cls-2" cx="150.17" cy="128.04" r="0.63"/><circle class="cls-2" cx="103.51" cy="179.31" r="0.63"/><circle class="cls-3" cx="149.59" cy="168.68" r="0.63"/><circle class="cls-3" cx="178.34" cy="153.55" r="0.63"/><circle class="cls-3" cx="166.72" cy="144.39" r="0.46"/><circle class="cls-3" cx="173.44" cy="173.3" r="0.46"/><circle class="cls-3" cx="193.06" cy="136.27" r="0.46"/><circle class="cls-3" cx="179.74" cy="120.28" r="0.46"/><circle class="cls-3" cx="174.83" cy="111.19" r="0.63"/><circle class="cls-3" cx="184.34" cy="179.86" r="0.63"/></g></g></svg>