<svg xmlns="http://www.w3.org/2000/svg" viewBox="0 0 148.01 165.76"><defs><style>.cls-1{fill:#06a03d;}.cls-2{fill:#063;stroke:#063;}.cls-2,.cls-4{stroke-linejoin:round;stroke-width:0.5px;}.cls-3{fill:none;}.cls-4{fill:#2f8f4b;stroke:#2f8f4b;}</style></defs><g id="Layer_2" data-name="Layer 2"><g id="Layer_1-2" data-name="Layer 1"><path class="cls-1" d="M135.47,103.68c-13.25,28.42-35,49.79-60,61.88l.14-.18c19.61-15.58,34.56-38.69,40.69-66.33a118.25,118.25,0,0,0-3.08-63.4,123.19,123.19,0,0,1,30.23-20.79C151.29,42.51,149.23,74.16,135.47,103.68Z"/><path class="cls-1" d="M75.43,165.56c-26.19-11.8-49.12-33.72-62.89-63.24C-.71,73.91-3.11,43.52,3.68,16.62a122.2,122.2,0,0,1,30.79,20,118.53,118.53,0,0,0-2.19,60.66c6.37,28.75,22.3,52.61,43.1,68.18A.47.47,0,0,0,75.43,165.56Z"/><path class="cls-2" d="M75.38,165.46C54.58,149.89,38.65,126,32.28,97.28a118.53,118.53,0,0,1,2.19-60.66,109.5,109.5,0,0,1,6.78-16.91A108.08,108.08,0,0,1,54.84,31.78a129.57,129.57,0,0,0-6.17,19.6,134.3,134.3,0,0,0-3.43,30.29c0,32.45,11.43,61.91,30.06,83.64A1.09,1.09,0,0,0,75.38,165.46Z"/><path class="cls-3" d="M75.56,165.45a.54.54,0,0,1,0,.11l0,0,0,0-.06,0a1.09,1.09,0,0,1-.08-.15l.15.18s0-.06,0-.09l0,.11Z"/><path class="cls-3" d="M75.5,165.51h0l0,0a.47.47,0,0,1-.05-.1,1.09,1.09,0,0,1-.08-.15l.15.18s0-.06,0-.09Z"/><path class="cls-2" d="M116.34,99.05c-6.13,27.64-21.08,50.75-40.69,66.33,17.44-21.49,28.05-50,28.05-81.24a133.51,133.51,0,0,0-4.21-33.47,126.62,126.62,0,0,0-6.67-19.42A108.82,108.82,0,0,1,106,18.9a108.28,108.28,0,0,1,7.25,16.75A118.25,118.25,0,0,1,116.34,99.05Z"/><path class="cls-4" d="M103.7,84.14c0,31.26-10.61,59.75-28,81.24l-.09.07-.06.06,0-.11s0,.06,0,.09l-.15-.18c-18.63-21.73-30.06-51.19-30.06-83.64a134.3,134.3,0,0,1,3.43-30.29,129.57,129.57,0,0,1,6.17-19.6A123.51,123.51,0,0,1,73.43.25a122.29,122.29,0,0,1,19.39,31,126.62,126.62,0,0,1,6.67,19.42A133.51,133.51,0,0,1,103.7,84.14Z"/><path class="cls-3" d="M75.65,165.38l-.14.18,0,0,0,0s0-.06,0-.09l0,.11.06-.06Z"/><path class="cls-3" d="M75.45,165.49v0s0,0,0,.05a.47.47,0,0,1-.05-.1,1.09,1.09,0,0,1-.08-.15Z"/><path class="cls-3" d="M75.65,165.38l-.14.18s0,0,0-.05l.06-.06Z"/></g></g></svg>