<svg xmlns="http://www.w3.org/2000/svg" viewBox="0 0 155.69 24.11"><defs><style>.cls-1{fill:#06a03d;}.cls-2{fill:#063;stroke:#063;}.cls-2,.cls-3,.cls-4{stroke-linejoin:round;}.cls-2,.cls-3{stroke-width:0.07px;}.cls-3,.cls-4{fill:#2f8f4b;stroke:#2f8f4b;}.cls-4{stroke-width:0.15px;}.cls-5{fill:#878787;}</style></defs><g id="Layer_2" data-name="Layer 2"><g id="Layer_1-2" data-name="Layer 1"><path class="cls-1" d="M19.67,15.05A18.72,18.72,0,0,1,11,24l0,0a16.93,16.93,0,0,0,5.91-9.63,17.16,17.16,0,0,0-.45-9.2,17.82,17.82,0,0,1,4.39-3A18.61,18.61,0,0,1,19.67,15.05Z"/><path class="cls-1" d="M11,24a18.69,18.69,0,0,1-9.13-9.18A18.77,18.77,0,0,1,.53,2.41,17.61,17.61,0,0,1,5,5.32a17.26,17.26,0,0,0-.31,8.8A16.82,16.82,0,0,0,10.94,24Z"/><path class="cls-2" d="M10.94,24a16.82,16.82,0,0,1-6.25-9.9A17.26,17.26,0,0,1,5,5.32,16.63,16.63,0,0,1,6,2.86,15.51,15.51,0,0,1,8,4.61a18.14,18.14,0,0,0-.89,2.85,19.2,19.2,0,0,0-.5,4.4A18.63,18.63,0,0,0,10.93,24Z"/><path class="cls-2" d="M16.89,14.38A16.93,16.93,0,0,1,11,24a18.65,18.65,0,0,0,4.08-11.79,19.32,19.32,0,0,0-.62-4.86,18.71,18.71,0,0,0-1-2.82,15.43,15.43,0,0,1,1.91-1.8,14.71,14.71,0,0,1,1.05,2.44A17.16,17.16,0,0,1,16.89,14.38Z"/><path class="cls-3" d="M15.06,12.22A18.65,18.65,0,0,1,11,24h0v0l0,0A18.63,18.63,0,0,1,6.57,11.86a19.2,19.2,0,0,1,.5-4.4A18,18,0,0,1,10.66,0a17.73,17.73,0,0,1,2.82,4.5,18.71,18.71,0,0,1,1,2.82A19.32,19.32,0,0,1,15.06,12.22Z"/><path class="cls-4" d="M28.3,3.66h8.36V6.53h-5.2v5.59h4.08V15H31.46v8.76H28.3Z"/><path class="cls-4" d="M38.18,3.66h4.68a4.83,4.83,0,0,1,3.56,1.13,4.83,4.83,0,0,1,1.11,3.49V9.51c0,2.09-.68,3.41-2.06,4v.06a2.48,2.48,0,0,1,1.62,1.41,7,7,0,0,1,.47,2.84v3.53a12.88,12.88,0,0,0,.06,1.39,3.36,3.36,0,0,0,.29,1.05H44.69a5.15,5.15,0,0,1-.23-.92,13.92,13.92,0,0,1-.05-1.55V17.61A3.12,3.12,0,0,0,44,15.68a1.89,1.89,0,0,0-1.53-.54h-1.1v8.61H38.18Zm4.3,8.61a1.91,1.91,0,0,0,1.42-.49,2.3,2.3,0,0,0,.48-1.64V8.59A2.57,2.57,0,0,0,44,7a1.48,1.48,0,0,0-1.22-.48H41.33v5.74Z"/><path class="cls-4" d="M49.74,3.66h8.62V6.53H52.9v5.31h4.34v2.87H52.9v6.17h5.46v2.87H49.74Z"/><path class="cls-4" d="M60.85,22.73A5.44,5.44,0,0,1,59.68,19V17.84h3v1.37c0,1.31.55,2,1.64,2a1.54,1.54,0,0,0,1.22-.48,2.33,2.33,0,0,0,.41-1.53,4.28,4.28,0,0,0-.57-2.23,10.62,10.62,0,0,0-2.12-2.31,12.8,12.8,0,0,1-2.73-3.11,6.34,6.34,0,0,1-.78-3.15,5.29,5.29,0,0,1,1.21-3.69,4.52,4.52,0,0,1,3.5-1.3,4.35,4.35,0,0,1,3.43,1.3A5.47,5.47,0,0,1,69,8.42v.83h-3v-1a2.37,2.37,0,0,0-.4-1.51,1.48,1.48,0,0,0-1.18-.47c-1,0-1.58.64-1.58,1.92a3.81,3.81,0,0,0,.59,2,11.06,11.06,0,0,0,2.14,2.3,11.88,11.88,0,0,1,2.73,3.13,7,7,0,0,1,.74,3.3,5.41,5.41,0,0,1-1.22,3.79A4.57,4.57,0,0,1,64.33,24,4.47,4.47,0,0,1,60.85,22.73Z"/><path class="cls-4" d="M70.9,3.66h3.16v8.18h3.38V3.66H80.6V23.75H77.44v-9H74.06v9H70.9Z"/><path class="cls-4" d="M87.55,3.66h3.16V23.75H87.55Z"/><path class="cls-4" d="M93.06,3.66h4.82a4.6,4.6,0,0,1,3.53,1.26,5.22,5.22,0,0,1,1.18,3.7V18.78a5.25,5.25,0,0,1-1.18,3.71,4.6,4.6,0,0,1-3.53,1.26H93.06Zm4.76,17.22A1.5,1.5,0,0,0,99,20.42a2.17,2.17,0,0,0,.42-1.49V8.48A2.16,2.16,0,0,0,99,7a1.5,1.5,0,0,0-1.19-.46h-1.6V20.88Z"/><path class="cls-4" d="M104.71,3.66h8.61V6.53h-5.45v5.31h4.33v2.87h-4.33v6.17h5.45v2.87h-8.61Z"/><path class="cls-4" d="M117.57,3.66h4.28l3.27,20.09H122l-.57-4v.06H117.8l-.57,3.93H114.3ZM121,17.09l-1.41-9.93h-.06l-1.38,9.93Z"/><path class="cls-4" d="M127.19,22.73A5.39,5.39,0,0,1,126,19V17.84h3v1.37c0,1.31.54,2,1.63,2a1.52,1.52,0,0,0,1.22-.48,2.28,2.28,0,0,0,.42-1.53,4.19,4.19,0,0,0-.58-2.23,10.62,10.62,0,0,0-2.12-2.31,13,13,0,0,1-2.73-3.11,6.44,6.44,0,0,1-.77-3.15,5.29,5.29,0,0,1,1.2-3.69,4.54,4.54,0,0,1,3.51-1.3,4.36,4.36,0,0,1,3.43,1.3,5.52,5.52,0,0,1,1.16,3.75v.83h-3v-1a2.31,2.31,0,0,0-.4-1.51,1.48,1.48,0,0,0-1.18-.47c-1.05,0-1.57.64-1.57,1.92a3.8,3.8,0,0,0,.58,2A11.65,11.65,0,0,0,132,12.5a11.88,11.88,0,0,1,2.73,3.13,6.87,6.87,0,0,1,.75,3.3,5.41,5.41,0,0,1-1.22,3.79A4.61,4.61,0,0,1,130.66,24,4.43,4.43,0,0,1,127.19,22.73Z"/><path class="cls-5" d="M139.48,13.72h2.36a2.33,2.33,0,0,1,1.79.64,2.67,2.67,0,0,1,.59,1.87v1a2.7,2.7,0,0,1-.59,1.88,2.33,2.33,0,0,1-1.79.64h-.76v4.14h-1.6Zm2.36,4.58a.78.78,0,0,0,.59-.22,1.13,1.13,0,0,0,.19-.74V16.13a1.1,1.1,0,0,0-.19-.74.74.74,0,0,0-.59-.22h-.76V18.3Z"/><path class="cls-5" d="M145.09,13.72h2.37a2.47,2.47,0,0,1,1.81.57,2.46,2.46,0,0,1,.56,1.77v.62c0,1.06-.35,1.73-1,2v0a1.24,1.24,0,0,1,.82.71,3.6,3.6,0,0,1,.24,1.44v1.79a6.54,6.54,0,0,0,0,.7,1.44,1.44,0,0,0,.14.53h-1.63a2.18,2.18,0,0,1-.11-.46,6.92,6.92,0,0,1,0-.79V20.78a1.56,1.56,0,0,0-.23-1,.94.94,0,0,0-.78-.28h-.55v4.36h-1.6Zm2.18,4.36a1,1,0,0,0,.72-.25,1.16,1.16,0,0,0,.24-.83v-.78a1.29,1.29,0,0,0-.19-.8.73.73,0,0,0-.62-.25h-.73v2.91Z"/><path class="cls-5" d="M151.46,23.37a2.66,2.66,0,0,1-.63-1.89V16.13a2.66,2.66,0,0,1,.63-1.89,2.34,2.34,0,0,1,1.8-.67,2.31,2.31,0,0,1,1.8.67,2.66,2.66,0,0,1,.63,1.89v5.35a2.66,2.66,0,0,1-.63,1.89,2.35,2.35,0,0,1-1.8.67A2.38,2.38,0,0,1,151.46,23.37Zm2.63-1.79V16c0-.67-.28-1-.83-1s-.83.34-.83,1v5.55c0,.67.28,1,.83,1S154.09,22.25,154.09,21.58Z"/></g></g></svg>